<?xml version="1.0" encoding="UTF-8"?>
<svg version="1.1" xmlns="http://www.w3.org/2000/svg" width="825" height="825">
<path d="M0 0 C2.40086287 -0.0037392 4.80172453 -0.00834179 7.20258427 -0.01373065 C12.41165174 -0.02339639 17.62068514 -0.02688012 22.8297596 -0.02481842 C30.57643339 -0.02175991 38.32306629 -0.03011124 46.06973211 -0.04056767 C60.71369364 -0.05988252 75.35764114 -0.06553498 90.00161391 -0.06668179 C101.3145651 -0.06760193 112.6275108 -0.07172413 123.94046021 -0.07808304 C127.20046075 -0.07987822 130.46046129 -0.08165785 133.72046185 -0.08343279 C134.93624376 -0.08409594 134.93624376 -0.08409594 136.17658692 -0.08477248 C158.96746062 -0.09707657 181.75833243 -0.10497406 204.54920959 -0.10408592 C205.40802057 -0.10405476 206.26683154 -0.10402361 207.15166708 -0.10399151 C211.50416614 -0.1038253 215.8566652 -0.10362722 220.20916426 -0.10342209 C221.07353606 -0.1033822 221.93790786 -0.10334231 222.82847275 -0.10330121 C224.57644324 -0.10322034 226.32441373 -0.10313674 228.07238422 -0.10305043 C255.25644813 -0.10182544 282.4404621 -0.11683032 309.62451172 -0.14419556 C340.1892316 -0.17495156 370.75391868 -0.1921259 401.31865501 -0.19026911 C404.5811704 -0.19011986 407.84368578 -0.19002244 411.10620117 -0.18996048 C412.31110657 -0.18992552 412.31110657 -0.18992552 413.54035349 -0.18988985 C426.43812745 -0.18982843 439.33585787 -0.20257206 452.23361891 -0.21982501 C465.20900299 -0.23682212 478.18432376 -0.23872355 491.15971285 -0.22560637 C498.85634682 -0.21824408 506.55278779 -0.22179313 514.2494011 -0.24149105 C520.01384227 -0.2549903 525.77810694 -0.24730641 531.54253578 -0.2317446 C533.86149597 -0.22868603 536.18047738 -0.23226349 538.49941254 -0.24346475 C578.25193221 -0.42263703 613.36723675 12.75207996 642.01171875 40.62289429 C660.80757573 59.53508731 672.54870082 83.50523618 678.55859375 109.26742554 C678.73939409 110.02826447 678.92019443 110.78910339 679.10647357 111.57299805 C681.29833443 122.49808647 680.84238064 133.61975916 680.82601929 144.70883179 C680.82975848 147.10969466 680.83436108 149.51055632 680.83974993 151.91141605 C680.84941567 157.12048353 680.85289941 162.32951693 680.85083771 167.53859138 C680.8477792 175.28526517 680.85613053 183.03189807 680.86658696 190.77856389 C680.88590181 205.42252543 680.89155426 220.06647293 680.89270107 234.7104457 C680.89362122 246.02339689 680.89774342 257.33634259 680.90410233 268.64929199 C680.9058975 271.90929253 680.90767713 275.16929308 680.90945208 278.42929363 C680.91011523 279.64507555 680.91011523 279.64507555 680.91079177 280.88541871 C680.92309586 303.67629241 680.93099334 326.46716421 680.93010521 349.25804138 C680.93007405 350.11685235 680.93004289 350.97566332 680.93001079 351.86049887 C680.92984459 356.21299793 680.9296465 360.56549699 680.92944138 364.91799605 C680.92938154 366.21455375 680.92938154 366.21455375 680.9293205 367.53730454 C680.92923962 369.28527503 680.92915603 371.03324552 680.92906971 372.78121601 C680.92784472 399.96527991 680.9428496 427.14929389 680.97021484 454.33334351 C681.00097085 484.89806339 681.01814519 515.46275047 681.0162884 546.0274868 C681.01613915 549.29000219 681.01604173 552.55251757 681.01597977 555.81503296 C681.0159448 557.01993836 681.0159448 557.01993836 681.01590913 558.24918528 C681.01584772 571.14695923 681.02859135 584.04468966 681.0458443 596.94245069 C681.06284141 609.91783478 681.06474283 622.89315555 681.05162565 635.86854464 C681.04426336 643.56517861 681.04781242 651.26161957 681.06751033 658.95823289 C681.08100959 664.72267406 681.0733257 670.48693872 681.05776389 676.25136757 C681.05470532 678.57032776 681.05828278 680.88930917 681.06948404 683.20824432 C681.22264671 717.19007588 672.23958768 750.16546721 649.55859375 776.26742554 C649.09340332 776.80802612 648.62821289 777.34862671 648.14892578 777.90560913 C627.75916475 801.42911225 601.81178546 816.30982969 571.55859375 823.26742554 C570.80002075 823.44709291 570.04144775 823.62676028 569.2598877 823.81187212 C558.33247573 826.0073644 547.20908124 825.55121659 536.1171875 825.53485107 C533.71632463 825.53859027 531.31546297 825.54319287 528.91460323 825.54858172 C523.70553576 825.55824746 518.49650236 825.5617312 513.2874279 825.55966949 C505.54075411 825.55661098 497.79412121 825.56496231 490.04745539 825.57541875 C475.40349386 825.5947336 460.75954636 825.60038605 446.11557359 825.60153286 C434.8026224 825.60245301 423.4896767 825.6065752 412.17672729 825.61293411 C408.91672675 825.61472929 405.65672621 825.61650892 402.39672565 825.61828387 C401.18094374 825.61894701 401.18094374 825.61894701 399.94060058 825.61962355 C377.14972688 825.63192764 354.35885507 825.63982513 331.56797791 825.638937 C330.70916693 825.63890584 329.85035596 825.63887468 328.96552042 825.63884258 C324.61302136 825.63867637 320.2605223 825.63847829 315.90802324 825.63827316 C315.04365144 825.63823327 314.17927964 825.63819338 313.28871475 825.63815228 C311.54074426 825.63807141 309.79277377 825.63798781 308.04480328 825.6379015 C280.86073937 825.63667651 253.6767254 825.65168139 226.49267578 825.67904663 C195.9279559 825.70980264 165.36326882 825.72697698 134.79853249 825.72512019 C131.5360171 825.72497093 128.27350172 825.72487352 125.01098633 825.72481155 C123.80608093 825.72477659 123.80608093 825.72477659 122.57683401 825.72474092 C109.67906005 825.72467951 96.78132963 825.73742313 83.88356859 825.75467608 C70.90818451 825.77167319 57.93286374 825.77357462 44.95747465 825.76045744 C37.26084068 825.75309515 29.56439971 825.75664421 21.8677864 825.77634212 C16.10334523 825.78984138 10.33908056 825.78215748 4.57465172 825.76659568 C2.25569153 825.76353711 -0.06328988 825.76711457 -2.38222504 825.77831583 C-42.12820323 825.95745862 -77.26850539 812.787763 -105.8984375 784.90414429 C-115.47731703 775.26341566 -122.97997741 764.18253743 -129.44140625 752.26742554 C-129.76093262 751.67912964 -130.08045898 751.09083374 -130.40966797 750.48471069 C-136.14484648 739.6769122 -139.63225763 728.1446698 -142.44140625 716.26742554 C-142.62333955 715.50432068 -142.80527286 714.74121582 -142.99271929 713.95498657 C-145.18094444 703.03221928 -144.72518898 691.91227317 -144.70883179 680.82601929 C-144.71257098 678.42515641 -144.71717358 676.02429476 -144.72256243 673.62343502 C-144.73222817 668.41436754 -144.73571191 663.20533415 -144.73365021 657.99625969 C-144.7305917 650.2495859 -144.73894303 642.502953 -144.74939946 634.75628718 C-144.76871431 620.11232565 -144.77436676 605.46837815 -144.77551357 590.82440537 C-144.77643372 579.51145419 -144.78055592 568.19850848 -144.78691483 556.88555908 C-144.78871 553.62555854 -144.79048963 550.36555799 -144.79226458 547.10555744 C-144.79270668 546.29503617 -144.79314877 545.48451489 -144.79360427 544.64943236 C-144.80590836 521.85855866 -144.81380584 499.06768686 -144.81291771 476.27680969 C-144.81287097 474.98859324 -144.81287097 474.98859324 -144.81282329 473.67435221 C-144.81265709 469.32185314 -144.812459 464.96935409 -144.81225388 460.61685503 C-144.81221399 459.75248322 -144.8121741 458.88811142 -144.812133 457.99754654 C-144.81205212 456.24957605 -144.81196853 454.50160556 -144.81188221 452.75363506 C-144.81065722 425.56957116 -144.8256621 398.38555719 -144.85302734 371.20150757 C-144.88378335 340.63678768 -144.90095769 310.0721006 -144.8991009 279.50736427 C-144.89895165 276.24484889 -144.89885423 272.9823335 -144.89879227 269.71981812 C-144.89876896 268.91654785 -144.89874565 268.11327758 -144.89872163 267.2856658 C-144.89866022 254.38789184 -144.91140385 241.49016141 -144.9286568 228.59240038 C-144.94565391 215.61701629 -144.94755533 202.64169552 -144.93443815 189.66630644 C-144.92707586 181.96967246 -144.93062492 174.2732315 -144.95032283 166.57661819 C-144.96382209 160.81217701 -144.9561382 155.04791235 -144.94057639 149.28348351 C-144.93751782 146.96452331 -144.94109528 144.64554191 -144.95229654 142.32660675 C-145.12983978 102.93551797 -132.23101107 67.92166752 -104.65625 39.45101929 C-100.21153147 34.98519198 -95.51976923 30.99791201 -90.44140625 27.26742554 C-89.90354492 26.87103882 -89.36568359 26.4746521 -88.81152344 26.06625366 C-72.60598174 14.28207643 -54.93726837 6.75114741 -35.44140625 2.26742554 C-34.68283325 2.08775816 -33.92426025 1.90809079 -33.1427002 1.72297895 C-22.21528823 -0.47251333 -11.09189374 -0.01636552 0 0 Z " fill="#FEFEFE" transform="translate(144.44140625,-0.267425537109375)"/>
<path d="M0 0 C1.36973969 -0.00956978 1.36973969 -0.00956978 2.76715088 -0.01933289 C3.76792664 -0.02044571 4.76870239 -0.02155853 5.79980469 -0.02270508 C6.8361908 -0.02603348 7.8725769 -0.02936188 8.94036865 -0.03279114 C11.15311234 -0.03787365 13.36586376 -0.04019906 15.57861328 -0.04003906 C18.88816045 -0.04218224 22.19734985 -0.06019992 25.50683594 -0.0793457 C42.89639186 -0.12702686 60.30109958 0.38026741 77.28417969 4.45776367 C78.23413818 4.67577637 79.18409668 4.89378906 80.1628418 5.1184082 C83.01938241 5.77971269 85.87053411 6.46112948 88.72167969 7.14526367 C90.4299747 7.54256392 92.13830674 7.93970497 93.84667969 8.33666992 C106.34506345 11.29843048 118.54600017 15.06760293 130.72167969 19.14526367 C131.52863281 19.41516113 132.33558594 19.68505859 133.16699219 19.96313477 C141.90828273 22.91039681 150.39165795 26.16134023 158.72167969 30.14526367 C163.65710394 32.41289103 168.52014449 34.5447913 173.72167969 36.14526367 C173.72167969 36.80526367 173.72167969 37.46526367 173.72167969 38.14526367 C174.27774902 38.26571045 174.83381836 38.38615723 175.40673828 38.51025391 C184.1924046 40.92024316 192.30517008 45.99545093 200.09667969 50.58276367 C201.12889648 51.18822021 202.16111328 51.79367676 203.22460938 52.41748047 C217.94768022 61.14255511 232.24352783 70.58830248 245.72167969 81.14526367 C246.31094238 81.60594238 246.90020508 82.06662109 247.50732422 82.54125977 C250.57457764 84.94052308 253.63605391 87.34681813 256.69042969 89.76245117 C259.48505337 92.0828408 259.48505337 92.0828408 261.86653137 93.35748291 C264.66424126 96.05359721 264.31170341 98.30939377 264.43530273 102.13256836 C264.46354126 102.84042984 264.49177979 103.54829132 264.52087402 104.27760315 C264.60997475 106.62385893 264.6716316 108.97001729 264.73339844 111.31713867 C264.79078967 112.95849743 264.8499658 114.59979466 264.9108429 116.24102783 C265.06709882 120.57494019 265.20048683 124.90925948 265.32873535 129.24407959 C265.48690578 134.45686311 265.67094273 139.66878026 265.85178089 144.88081741 C265.99253293 148.94964346 266.12946269 153.0184593 266.25358582 157.08782959 C266.50708527 165.21832147 266.91330317 173.31275628 267.48710632 181.4284668 C267.90563017 188.05994495 268.075464 194.6993196 268.25683594 201.34057617 C268.30011405 202.86392591 268.34352867 204.38727177 268.3870697 205.91061401 C268.47720228 209.08887719 268.56515906 212.26719131 268.65161133 215.44555664 C268.73861572 218.63706156 268.82875503 221.82845022 268.92211914 225.01977539 C269.51828072 245.40189841 269.86775056 265.75317125 269.72167969 286.14526367 C265.0138334 281.62415868 262.26819395 276.85923331 260.09667969 270.77026367 C259.16745922 267.08578635 259.16745922 267.08578635 256.72167969 266.14526367 C256.06448985 264.53903982 255.40775584 262.93262839 254.75292969 261.32543945 C252.5994058 256.77265339 249.58025063 252.71414195 246.72167969 248.58276367 C246.04959473 247.60621826 245.37750977 246.62967285 244.68505859 245.62353516 C235.51433601 232.40060742 225.39451589 220.17510384 214.72167969 208.14526367 C213.43390625 206.68733398 213.43390625 206.68733398 212.12011719 205.19995117 C206.2862846 198.71590815 200.1883044 192.51175593 194.03417969 186.33276367 C193.23802246 185.53193359 192.44186523 184.73110352 191.62158203 183.90600586 C184.08467981 176.38946941 176.1882049 169.58665461 167.72167969 163.14526367 C166.56796538 162.24951852 165.41432525 161.35367783 164.26074219 160.45776367 C144.79013891 145.45953211 124.3327867 133.91792211 101.52685547 124.87084961 C100.02910422 124.2688322 98.54352567 123.6366333 97.06152344 122.99682617 C61.2347019 107.63369515 14.03411999 106.64390328 -22.17333984 120.71313477 C-23.99152038 121.45430676 -25.78862056 122.24664989 -27.58300781 123.04370117 C-30.27832031 124.14526367 -30.27832031 124.14526367 -33.27832031 124.14526367 C-33.60832031 125.13526367 -33.93832031 126.12526367 -34.27832031 127.14526367 C-35.35082031 127.49588867 -36.42332031 127.84651367 -37.52832031 128.20776367 C-43.78993246 130.34368164 -48.6965454 134.75044202 -53.74462891 138.89038086 C-55.08193342 139.9845778 -56.43836526 141.05531443 -57.79785156 142.12182617 C-68.82472303 151.19823526 -75.348602 162.70357104 -77.71972656 176.76245117 C-78.33210917 184.91886629 -74.47776086 191.9912115 -69.60253906 198.32104492 C-63.831843 204.51625196 -57.27368964 206.8899421 -49.27832031 209.14526367 C-48.19679688 209.51264648 -47.11527344 209.8800293 -46.00097656 210.25854492 C-34.70592701 213.95927087 -23.22724547 215.74884917 -11.49926758 217.4453125 C-0.09787146 219.10029068 -0.09787146 219.10029068 4.12792969 220.26245117 C9.04798918 221.47107448 13.81862666 221.52992788 18.86425781 221.6237793 C24.13115278 221.80539636 29.17599989 222.54898839 34.34667969 223.53198242 C44.34175232 225.40576876 54.39758849 226.30490424 64.5178833 227.22271729 C81.99224456 228.8145609 99.43600306 230.58717974 116.84667969 232.77026367 C118.03960129 232.91754913 118.03960129 232.91754913 119.25662231 233.06781006 C135.41776564 235.0727806 151.16044952 237.69692974 166.84667969 242.14526367 C168.09449219 242.4881543 169.34230469 242.83104492 170.62792969 243.18432617 C176.53199955 244.83343737 182.16793603 246.54909134 187.72167969 249.14526367 C193.68041332 251.58987234 199.68216746 253.90840729 205.72167969 256.14526367 C205.72167969 256.80526367 205.72167969 257.46526367 205.72167969 258.14526367 C208.03167969 258.80526367 210.34167969 259.46526367 212.72167969 260.14526367 C212.72167969 260.80526367 212.72167969 261.46526367 212.72167969 262.14526367 C214.04167969 262.14526367 215.36167969 262.14526367 216.72167969 262.14526367 C216.72167969 262.80526367 216.72167969 263.46526367 216.72167969 264.14526367 C217.50542969 264.43401367 218.28917969 264.72276367 219.09667969 265.02026367 C221.72167969 266.14526367 221.72167969 266.14526367 223.72167969 268.14526367 C224.48480469 268.41338867 225.24792969 268.68151367 226.03417969 268.95776367 C229.41285281 270.45066575 231.14468193 272.49095598 233.72167969 275.14526367 C234.75897032 276.15364376 235.79946706 277.15873396 236.84277344 278.16088867 C242.93456255 284.07644649 248.43884844 289.74051514 252.72167969 297.14526367 C253.55699219 298.38276367 253.55699219 298.38276367 254.40917969 299.64526367 C256.02142397 302.71620517 257.04008737 305.85199794 258.07324219 309.15698242 C258.6813514 311.18781565 258.6813514 311.18781565 259.72167969 313.14526367 C262.96676672 337.02269417 258.81605477 358.53530028 250.81982422 380.97045898 C249.66820142 384.29987271 248.6040507 387.64734954 247.56152344 391.01245117 C247.21114014 392.14199219 246.86075684 393.2715332 246.49975586 394.43530273 C245.83100902 396.60464061 245.16809192 398.77578713 244.51196289 400.94897461 C242.83397662 406.33014852 241.03128508 410.52505454 237.72167969 415.14526367 C236.66685583 417.45433082 235.66716048 419.78931153 234.72167969 422.14526367 C231.6187011 429.74162655 228.73490241 436.6002229 223.72167969 443.14526367 C222.43093597 445.90487404 222.43093597 445.90487404 221.72167969 448.14526367 C221.06167969 448.14526367 220.40167969 448.14526367 219.72167969 448.14526367 C219.63917969 449.09401367 219.55667969 450.04276367 219.47167969 451.02026367 C219.10042969 452.56713867 219.10042969 452.56713867 218.72167969 454.14526367 C217.4052085 454.84463899 216.07145818 455.51255501 214.72167969 456.14526367 C213.9099674 458.70046289 213.9099674 458.70046289 213.72167969 461.14526367 C213.06167969 461.14526367 212.40167969 461.14526367 211.72167969 461.14526367 C211.49480469 461.82588867 211.26792969 462.50651367 211.03417969 463.20776367 C209.40941822 466.84413457 207.39364712 470.1735563 204.72167969 473.14526367 C204.06167969 473.14526367 203.40167969 473.14526367 202.72167969 473.14526367 C202.36396484 473.94770508 202.36396484 473.94770508 201.99902344 474.76635742 C200.36392127 477.81154771 198.36579934 480.44936128 196.28417969 483.20776367 C195.50171875 484.25061523 194.71925781 485.2934668 193.91308594 486.36791992 C191.72167969 489.14526367 191.72167969 489.14526367 189.99902344 490.82885742 C188.45133025 492.23348845 188.45133025 492.23348845 187.72167969 495.14526367 C186.032582 496.7327615 184.23766026 498.11918285 182.41308594 499.54760742 C180.62629105 501.05233381 180.62629105 501.05233381 179.72949219 503.12963867 C178.51884736 505.55092833 177.11778535 506.74257551 175.03417969 508.45776367 C172.30982805 510.75996353 169.71506098 513.09456327 167.22167969 515.64526367 C164.25689297 518.65679252 161.15413543 521.43998262 157.95214844 524.19604492 C155.35316508 526.46731059 152.82187391 528.80577151 150.28417969 531.14526367 C145.60079371 535.4110638 140.7733371 539.33008279 135.72167969 543.14526367 C134.20561863 544.32486732 132.68958464 545.50450597 131.17407227 546.68481445 C76.4738733 589.14526367 76.4738733 589.14526367 65.72167969 589.14526367 C65.39167969 590.13526367 65.06167969 591.12526367 64.72167969 592.14526367 C63.40167969 592.14526367 62.08167969 592.14526367 60.72167969 592.14526367 C60.72167969 592.80526367 60.72167969 593.46526367 60.72167969 594.14526367 C59.18833984 594.77368164 59.18833984 594.77368164 57.62402344 595.41479492 C54.00927709 596.9650086 50.67142418 598.82806795 47.28417969 600.83276367 C41.98916893 603.91348402 36.62655386 606.81909848 31.15917969 609.58276367 C30.49281494 609.92460693 29.8264502 610.2664502 29.13989258 610.61865234 C25.67185671 612.35112854 22.59114475 613.77819692 18.72167969 614.14526367 C16.23583984 613.18310547 16.23583984 613.18310547 13.63574219 611.65698242 C12.67313477 611.0980127 11.71052734 610.53904297 10.71875 609.96313477 C9.7297168 609.3632373 8.74068359 608.76333984 7.72167969 608.14526367 C6.77647461 607.57501465 5.83126953 607.00476563 4.85742188 606.41723633 C1.92228561 604.6202039 -0.99282185 602.79440987 -3.90332031 600.95776367 C-4.95455078 600.29703857 -6.00578125 599.63631348 -7.08886719 598.95556641 C-15.86816897 593.42693921 -24.61020977 587.84664231 -33.27832031 582.14526367 C-34.67099121 581.23043213 -34.67099121 581.23043213 -36.09179688 580.29711914 C-47.71169995 572.6494973 -59.23348814 564.93645682 -70.35449219 556.57739258 C-72.52855975 554.95898137 -74.72224603 553.3695318 -76.91894531 551.78198242 C-86.17525431 545.07429801 -95.06793419 538.15367742 -103.63085938 530.58227539 C-105.26064784 529.16067864 -106.91505535 527.77569757 -108.58300781 526.39916992 C-115.77500894 520.43593716 -122.52544068 514.10570224 -129.15332031 507.52026367 C-130.33027466 506.35708618 -130.33027466 506.35708618 -131.53100586 505.17041016 C-136.16913989 500.50768108 -140.33473727 495.66120698 -144.37597656 490.47558594 C-146.1201883 488.33897133 -147.9262783 486.43491814 -149.91113281 484.52416992 C-153.5077411 481.03658064 -156.32582469 477.20561912 -159.15332031 473.08276367 C-159.66435303 472.34687012 -160.17538574 471.61097656 -160.7019043 470.8527832 C-173.33006989 452.56371579 -173.33006989 452.56371579 -177.27832031 443.14526367 C-178.00980973 441.87184023 -178.77556045 440.61675268 -179.59082031 439.39526367 C-184.75643921 431.33565347 -188.88504774 423.08468344 -192.27832031 414.14526367 C-192.60574219 413.36795898 -192.93316406 412.5906543 -193.27050781 411.78979492 C-195.79338839 405.79550889 -197.63195511 399.71297789 -199.34863281 393.44213867 C-199.95705331 391.28454667 -200.61695222 389.14065569 -201.33300781 387.01635742 C-202.42829192 383.68977139 -203.10097763 380.40051407 -203.74731445 376.96459961 C-204.07550736 375.22208388 -204.40620975 373.48003613 -204.7409668 371.73876953 C-206.19843951 363.99051518 -207.29872118 356.20902599 -208.34082031 348.39526367 C-208.51419922 347.1397168 -208.68757812 345.88416992 -208.86621094 344.59057617 C-210.73882681 330.61411746 -211.43473731 316.80253725 -211.34082031 302.70776367 C-211.33630859 301.39227539 -211.33179688 300.07678711 -211.32714844 298.72143555 C-211.31554077 295.52932729 -211.29921706 292.33732227 -211.27832031 289.14526367 C-210.61832031 289.14526367 -209.95832031 289.14526367 -209.27832031 289.14526367 C-209.024375 290.3750293 -208.77042969 291.60479492 -208.50878906 292.87182617 C-208.16156237 294.50473007 -207.81388208 296.13753757 -207.46582031 297.77026367 C-207.21735352 298.98262695 -207.21735352 298.98262695 -206.96386719 300.21948242 C-205.9434696 304.95566745 -204.59571094 308.85092382 -202.27832031 313.14526367 C-201.44016327 315.23934256 -200.62799952 317.34399393 -199.84082031 319.45776367 C-198.07036491 324.15751802 -196.17109373 328.72575795 -193.97753906 333.24291992 C-193.27832031 335.14526367 -193.27832031 335.14526367 -193.27832031 339.14526367 C-192.28832031 339.47526367 -191.29832031 339.80526367 -190.27832031 340.14526367 C-188.74316406 342.69213867 -188.74316406 342.69213867 -187.21582031 345.89526367 C-186.70921875 346.94198242 -186.20261719 347.98870117 -185.68066406 349.06713867 C-184.27832031 352.14526367 -184.27832031 352.14526367 -183.34472656 354.78588867 C-182.08480221 357.57341361 -180.4854858 359.04417268 -178.27832031 361.14526367 C-176.97576928 362.85066554 -175.70641795 364.5817776 -174.46582031 366.33276367 C-171.33280075 370.71313495 -168.09720727 374.97525316 -164.72363281 379.17260742 C-163.27832031 381.14526367 -163.27832031 381.14526367 -162.31738281 383.19604492 C-161.06043022 385.55401238 -159.61055194 386.73270663 -157.52832031 388.39526367 C-154.01086129 391.36133723 -151.43426681 394.44403649 -148.76660156 398.16870117 C-144.70546297 403.56223432 -139.7219163 407.69155401 -134.29003906 411.63354492 C-132.31616663 413.11682382 -130.49017502 414.68390263 -128.65332031 416.33276367 C-120.13121958 423.87664662 -111.06419956 430.72685315 -101.71582031 437.20776367 C-100.71615234 437.90530762 -100.71615234 437.90530762 -99.69628906 438.61694336 C-96.29738118 440.93987583 -93.12982003 442.64626285 -89.27832031 444.14526367 C-88.94832031 444.80526367 -88.61832031 445.46526367 -88.27832031 446.14526367 C-87.04082031 446.57838867 -85.80332031 447.01151367 -84.52832031 447.45776367 C-81.47820237 448.52826362 -80.29188017 449.13133734 -77.96582031 451.52026367 C-74.62243936 454.78589158 -71.18154151 456.16445935 -66.89941406 457.93432617 C-64.27832031 459.14526367 -64.27832031 459.14526367 -62.37597656 460.60620117 C-59.54894935 462.68040736 -56.51234677 463.80232048 -53.27832031 465.14526367 C-49.76077565 466.87262935 -46.27078565 468.64909828 -42.77832031 470.42651367 C-37.90038284 472.82192939 -32.93973819 474.95421498 -27.84082031 476.83276367 C-26.66519531 477.26588867 -25.48957031 477.69901367 -24.27832031 478.14526367 C-24.27832031 478.80526367 -24.27832031 479.46526367 -24.27832031 480.14526367 C-23.6634375 480.27803711 -23.04855469 480.41081055 -22.41503906 480.54760742 C-21.60679687 480.72420898 -20.79855469 480.90081055 -19.96582031 481.08276367 C-18.76505859 481.34379883 -18.76505859 481.34379883 -17.54003906 481.61010742 C-15.27832031 482.14526367 -15.27832031 482.14526367 -12.27832031 483.14526367 C-12.27832031 483.80526367 -12.27832031 484.46526367 -12.27832031 485.14526367 C-11.6840625 485.25483398 -11.08980469 485.3644043 -10.47753906 485.47729492 C6.62789561 488.74940762 6.62789561 488.74940762 11.72167969 492.14526367 C14.46087187 492.75988807 16.0572107 492.56220385 18.4453125 491.0637207 C20.47017387 489.50479857 22.41156223 487.87677663 24.34667969 486.20776367 C25.78285876 485.00201206 27.21905672 483.79628295 28.65527344 482.59057617 C29.35249512 481.99792969 30.0497168 481.4052832 30.76806641 480.79467773 C33.27730313 478.67615695 35.84273318 476.63138518 38.40917969 474.58276367 C46.28876804 468.12934516 53.80410592 461.19236646 60.90917969 453.89526367 C63.72167969 451.14526367 63.72167969 451.14526367 65.72167969 451.14526367 C65.97304688 450.56131836 66.22441406 449.97737305 66.48339844 449.37573242 C67.87967406 446.86067443 69.41324672 445.39768937 71.53417969 443.45776367 C86.77630993 428.53471184 102.87379553 407.99042689 103.22167969 385.95776367 C103.08827187 378.17962805 102.03512504 371.94377009 96.82714844 365.97338867 C72.51305046 343.93744298 25.26849088 346.71805699 -5.25384521 345.28918457 C-10.06093562 345.06043719 -14.86686735 344.81009259 -19.67285156 344.55932617 C-24.73045568 344.29564473 -29.78798922 344.03285577 -34.84667969 343.79077148 C-43.00594833 343.39722526 -51.14305318 342.90207842 -59.27832031 342.14526367 C-59.27832031 341.48526367 -59.27832031 340.82526367 -59.27832031 340.14526367 C-60.15230469 340.1684668 -61.02628906 340.19166992 -61.92675781 340.21557617 C-82.5246295 340.51785102 -101.82097753 336.87480549 -121.27832031 330.14526367 C-121.27832031 329.48526367 -121.27832031 328.82526367 -121.27832031 328.14526367 C-121.973125 328.03053711 -122.66792969 327.91581055 -123.38378906 327.79760742 C-140.75387596 323.88289148 -156.44486791 311.98190118 -169.27832031 300.14526367 C-170.17292969 299.32155273 -171.06753906 298.4978418 -171.98925781 297.64916992 C-178.19585829 291.68128485 -183.28977133 285.14607913 -188.27832031 278.14526367 C-188.87257812 277.34604492 -189.46683594 276.54682617 -190.07910156 275.72338867 C-195.5177448 268.27182231 -199.92685711 260.26166977 -204.27832031 252.14526367 C-204.77589844 251.24291992 -205.27347656 250.34057617 -205.78613281 249.41088867 C-212.63179734 235.8917776 -215.38864156 219.02272919 -215.48144531 203.98510742 C-215.48832367 203.21426819 -215.49520203 202.44342896 -215.50228882 201.64923096 C-215.51953321 199.12702714 -215.52576582 196.60502363 -215.52832031 194.08276367 C-215.52999207 193.21221344 -215.53166382 192.34166321 -215.53338623 191.44473267 C-215.53560656 171.92425163 -214.16707416 152.56499529 -212.27832031 133.14526367 C-212.15402649 131.85703705 -212.15402649 131.85703705 -212.02722168 130.54278564 C-211.7702183 127.90577268 -211.506188 125.26957013 -211.23925781 122.63354492 C-211.15858063 121.81428024 -211.07790344 120.99501556 -210.99478149 120.15092468 C-210.39460835 114.37783974 -210.39460835 114.37783974 -209.27832031 112.14526367 C-209.06611492 109.53690577 -208.90387907 106.94540619 -208.77832031 104.33276367 C-208.69139756 102.79238118 -208.60415437 101.25201673 -208.51660156 99.71166992 C-208.36306073 96.88568864 -208.23834478 94.06376339 -208.13378906 91.23510742 C-208.07835937 90.09170898 -208.02292969 88.94831055 -207.96582031 87.77026367 C-207.9284375 86.7519043 -207.89105469 85.73354492 -207.85253906 84.68432617 C-207.27832031 82.14526367 -207.27832031 82.14526367 -205.54785156 80.41870117 C-203.17796811 79.08895589 -200.80700208 78.13719827 -198.27832031 77.14526367 C-196.23993006 76.00955084 -194.21961681 74.84095513 -192.21582031 73.64526367 C-188.9469199 71.69958777 -185.70946792 69.79089801 -182.27832031 68.14526367 C-183.26832031 67.65026367 -183.26832031 67.65026367 -184.27832031 67.14526367 C-167.12605203 44.45823789 -132.73983534 31.35633443 -107.09082031 21.14526367 C-106.15898926 20.77119385 -105.2271582 20.39712402 -104.26708984 20.01171875 C-99.05683194 17.99226432 -94.05735296 16.62061458 -88.56103516 15.64086914 C-85.26340913 14.92491397 -82.34415359 13.53261613 -79.27832031 12.14526367 C-71.06124846 9.5691006 -62.90870361 7.55139936 -54.27832031 7.14526367 C-54.27832031 6.48526367 -54.27832031 5.82526367 -54.27832031 5.14526367 C-53.71024658 5.09515137 -53.14217285 5.04503906 -52.55688477 4.9934082 C-39.43435514 3.87724543 -39.43435514 3.87724543 -26.40332031 2.02026367 C-20.28903697 0.98516846 -14.37926646 1.02758841 -8.20019531 1.17260742 C-5.02800619 1.14292116 -3.34253659 0.01582902 0 0 Z " fill="#96AEE8" transform="translate(384.2783203125,102.854736328125)"/>
<path d="M0 0 C1.36973969 -0.00956978 1.36973969 -0.00956978 2.76715088 -0.01933289 C3.76792664 -0.02044571 4.76870239 -0.02155853 5.79980469 -0.02270508 C6.8361908 -0.02603348 7.8725769 -0.02936188 8.94036865 -0.03279114 C11.15311234 -0.03787365 13.36586376 -0.04019906 15.57861328 -0.04003906 C18.88816045 -0.04218224 22.19734985 -0.06019992 25.50683594 -0.0793457 C42.89639186 -0.12702686 60.30109958 0.38026741 77.28417969 4.45776367 C78.23413818 4.67577637 79.18409668 4.89378906 80.1628418 5.1184082 C83.01938241 5.77971269 85.87053411 6.46112948 88.72167969 7.14526367 C90.4299747 7.54256392 92.13830674 7.93970497 93.84667969 8.33666992 C106.34506345 11.29843048 118.54600017 15.06760293 130.72167969 19.14526367 C131.52863281 19.41516113 132.33558594 19.68505859 133.16699219 19.96313477 C141.90828273 22.91039681 150.39165795 26.16134023 158.72167969 30.14526367 C163.65710394 32.41289103 168.52014449 34.5447913 173.72167969 36.14526367 C173.72167969 36.80526367 173.72167969 37.46526367 173.72167969 38.14526367 C174.27774902 38.26571045 174.83381836 38.38615723 175.40673828 38.51025391 C184.1924046 40.92024316 192.30517008 45.99545093 200.09667969 50.58276367 C201.12889648 51.18822021 202.16111328 51.79367676 203.22460938 52.41748047 C217.94768022 61.14255511 232.24352783 70.58830248 245.72167969 81.14526367 C246.31094238 81.60594238 246.90020508 82.06662109 247.50732422 82.54125977 C250.57457764 84.94052308 253.63605391 87.34681813 256.69042969 89.76245117 C259.48505337 92.0828408 259.48505337 92.0828408 261.86653137 93.35748291 C264.66424126 96.05359721 264.31170341 98.30939377 264.43530273 102.13256836 C264.46354126 102.84042984 264.49177979 103.54829132 264.52087402 104.27760315 C264.60997475 106.62385893 264.6716316 108.97001729 264.73339844 111.31713867 C264.79078967 112.95849743 264.8499658 114.59979466 264.9108429 116.24102783 C265.06709882 120.57494019 265.20048683 124.90925948 265.32873535 129.24407959 C265.48690578 134.45686311 265.67094273 139.66878026 265.85178089 144.88081741 C265.99253293 148.94964346 266.12946269 153.0184593 266.25358582 157.08782959 C266.50708527 165.21832147 266.91330317 173.31275628 267.48710632 181.4284668 C267.90563017 188.05994495 268.075464 194.6993196 268.25683594 201.34057617 C268.30011405 202.86392591 268.34352867 204.38727177 268.3870697 205.91061401 C268.47720228 209.08887719 268.56515906 212.26719131 268.65161133 215.44555664 C268.73861572 218.63706156 268.82875503 221.82845022 268.92211914 225.01977539 C269.51828072 245.40189841 269.86775056 265.75317125 269.72167969 286.14526367 C265.0138334 281.62415868 262.26819395 276.85923331 260.09667969 270.77026367 C259.16745922 267.08578635 259.16745922 267.08578635 256.72167969 266.14526367 C256.06448985 264.53903982 255.40775584 262.93262839 254.75292969 261.32543945 C252.5994058 256.77265339 249.58025063 252.71414195 246.72167969 248.58276367 C246.04959473 247.60621826 245.37750977 246.62967285 244.68505859 245.62353516 C235.51433601 232.40060742 225.39451589 220.17510384 214.72167969 208.14526367 C213.43390625 206.68733398 213.43390625 206.68733398 212.12011719 205.19995117 C206.2862846 198.71590815 200.1883044 192.51175593 194.03417969 186.33276367 C193.23802246 185.53193359 192.44186523 184.73110352 191.62158203 183.90600586 C184.08467981 176.38946941 176.1882049 169.58665461 167.72167969 163.14526367 C166.56796538 162.24951852 165.41432525 161.35367783 164.26074219 160.45776367 C144.79013891 145.45953211 124.3327867 133.91792211 101.52685547 124.87084961 C100.02910422 124.2688322 98.54352567 123.6366333 97.06152344 122.99682617 C61.2347019 107.63369515 14.03411999 106.64390328 -22.17333984 120.71313477 C-23.99152038 121.45430676 -25.78862056 122.24664989 -27.58300781 123.04370117 C-30.27832031 124.14526367 -30.27832031 124.14526367 -33.27832031 124.14526367 C-33.60832031 125.13526367 -33.93832031 126.12526367 -34.27832031 127.14526367 C-35.35082031 127.49588867 -36.42332031 127.84651367 -37.52832031 128.20776367 C-43.78993246 130.34368164 -48.6965454 134.75044202 -53.74462891 138.89038086 C-55.08193342 139.9845778 -56.43836526 141.05531443 -57.79785156 142.12182617 C-68.82472303 151.19823526 -75.348602 162.70357104 -77.71972656 176.76245117 C-78.33279843 184.92804673 -74.44286921 191.80508084 -69.74316406 198.25073242 C-64.98008152 203.55214862 -58.69108576 206.27057571 -52.27832031 209.14526367 C-52.27832031 209.47526367 -52.27832031 209.80526367 -52.27832031 210.14526367 C-60.48709083 209.23821721 -68.31689445 207.28682003 -76.27832031 205.14526367 C-77.00889648 204.94884277 -77.73947266 204.75242187 -78.4921875 204.55004883 C-86.56419573 202.34972398 -94.28016476 199.98050366 -101.82910156 196.31323242 C-104.15679424 195.2032163 -106.48628421 194.29001238 -108.90332031 193.39526367 C-122.16274473 188.13358732 -133.91280322 180.66135226 -145.27832031 172.14526367 C-146.26832031 171.48526367 -147.25832031 170.82526367 -148.27832031 170.14526367 C-148.27832031 169.48526367 -148.27832031 168.82526367 -148.27832031 168.14526367 C-149.20644531 167.77401367 -149.20644531 167.77401367 -150.15332031 167.39526367 C-152.68190658 165.90785999 -152.99671036 164.70848359 -154.27832031 162.14526367 C-154.85324219 161.87327148 -155.42816406 161.6012793 -156.02050781 161.32104492 C-170.17620345 153.94930723 -180.24279609 135.10573606 -188.19580078 121.93139648 C-189.13785566 120.37702717 -190.09903275 118.83427882 -191.06347656 117.29370117 C-194.11338942 112.37951933 -196.65755405 107.39190748 -198.97753906 102.09448242 C-200.93755855 97.65059439 -203.05006337 93.27853766 -205.14160156 88.89526367 C-206.27832031 86.14526367 -206.27832031 86.14526367 -206.27832031 83.14526367 C-199.20816543 76.82837763 -190.71977831 72.33766563 -182.27832031 68.14526367 C-182.93832031 67.81526367 -183.59832031 67.48526367 -184.27832031 67.14526367 C-167.12605203 44.45823789 -132.73983534 31.35633443 -107.09082031 21.14526367 C-106.15898926 20.77119385 -105.2271582 20.39712402 -104.26708984 20.01171875 C-99.05683194 17.99226432 -94.05735296 16.62061458 -88.56103516 15.64086914 C-85.26340913 14.92491397 -82.34415359 13.53261613 -79.27832031 12.14526367 C-71.06124846 9.5691006 -62.90870361 7.55139936 -54.27832031 7.14526367 C-54.27832031 6.48526367 -54.27832031 5.82526367 -54.27832031 5.14526367 C-53.71024658 5.09515137 -53.14217285 5.04503906 -52.55688477 4.9934082 C-39.43435514 3.87724543 -39.43435514 3.87724543 -26.40332031 2.02026367 C-20.28903697 0.98516846 -14.37926646 1.02758841 -8.20019531 1.17260742 C-5.02800619 1.14292116 -3.34253659 0.01582902 0 0 Z " fill="#78A9E4" transform="translate(384.2783203125,102.854736328125)"/>
<path d="M0 0 C0.66 0 1.32 0 2 0 C2.25394531 1.22976563 2.50789062 2.45953125 2.76953125 3.7265625 C3.11675794 5.3594664 3.46443823 6.99227389 3.8125 8.625 C3.97814453 9.43324219 4.14378906 10.24148438 4.31445312 11.07421875 C5.33485071 15.81040378 6.68260937 19.70566015 9 24 C9.83815704 26.09407889 10.65032079 28.19873026 11.4375 30.3125 C13.20795541 35.01225435 15.10722659 39.58049428 17.30078125 44.09765625 C18 46 18 46 18 50 C19.485 50.495 19.485 50.495 21 51 C22.53515625 53.546875 22.53515625 53.546875 24.0625 56.75 C24.56910156 57.79671875 25.07570312 58.8434375 25.59765625 59.921875 C27 63 27 63 27.93359375 65.640625 C29.1935181 68.42814994 30.79283452 69.89890901 33 72 C34.30255103 73.70540187 35.57190236 75.43651393 36.8125 77.1875 C39.94551956 81.56787127 43.18111305 85.82998949 46.5546875 90.02734375 C48 92 48 92 48.9609375 94.05078125 C50.21789009 96.4087487 51.66776837 97.58744296 53.75 99.25 C57.26745903 102.21607356 59.84405351 105.29877282 62.51171875 109.0234375 C66.57285735 114.41697065 71.55640401 118.54629034 76.98828125 122.48828125 C78.96215369 123.97156015 80.7881453 125.53863896 82.625 127.1875 C91.14710074 134.73138295 100.21412075 141.58158948 109.5625 148.0625 C110.56216797 148.76004395 110.56216797 148.76004395 111.58203125 149.47167969 C114.98093913 151.79461216 118.14850028 153.50099918 122 155 C122.33 155.66 122.66 156.32 123 157 C124.2375 157.433125 125.475 157.86625 126.75 158.3125 C129.80011794 159.38299995 130.98644015 159.98607366 133.3125 162.375 C136.65588095 165.6406279 140.09677881 167.01919568 144.37890625 168.7890625 C147 170 147 170 148.90234375 171.4609375 C151.72937097 173.53514369 154.76597354 174.65705681 158 176 C161.51754466 177.72736568 165.00753466 179.5038346 168.5 181.28125 C173.37793747 183.67666572 178.33858212 185.80895131 183.4375 187.6875 C184.613125 188.120625 185.78875 188.55375 187 189 C187 189.66 187 190.32 187 191 C187.61488281 191.13277344 188.22976563 191.26554688 188.86328125 191.40234375 C189.67152344 191.57894531 190.47976563 191.75554687 191.3125 191.9375 C192.11300781 192.11152344 192.91351563 192.28554688 193.73828125 192.46484375 C196 193 196 193 199 194 C199 194.66 199 195.32 199 196 C199.59425781 196.10957031 200.18851563 196.21914063 200.80078125 196.33203125 C217.90621592 199.60414395 217.90621592 199.60414395 223 203 C225.73919219 203.6146244 227.33553101 203.41694018 229.72363281 201.91845703 C231.74849419 200.3595349 233.68988254 198.73151295 235.625 197.0625 C237.06117907 195.85674839 238.49737704 194.65101928 239.93359375 193.4453125 C240.63081543 192.85266602 241.32803711 192.26001953 242.04638672 191.64941406 C244.55562344 189.53089328 247.1210535 187.48612151 249.6875 185.4375 C257.56708835 178.98408149 265.08242623 172.04710279 272.1875 164.75 C275 162 275 162 277 162 C277.25136719 161.41605469 277.50273437 160.83210937 277.76171875 160.23046875 C279.15799438 157.71541076 280.69156703 156.2524257 282.8125 154.3125 C298.06018878 139.38400599 314.14161186 118.84950289 314.5 96.8125 C314.40894424 89.77280409 313.57718104 82.67756112 308.46875 77.42578125 C307.01466038 76.23898752 305.50938013 75.11562879 304 74 C302.8203125 71.8671875 302.8203125 71.8671875 302 70 C313.18845882 70.49506455 322.76390013 74.42028332 332.94921875 78.79296875 C336.01842758 80.00729081 339.07281228 80.92320085 342.25 81.8125 C349.02357993 83.80376928 355.04410563 86.83939517 361.2734375 90.09765625 C364.77801594 91.92545136 368.34951924 93.48604093 372 95 C372 95.66 372 96.32 372 97 C372.70382812 97.25394531 373.40765625 97.50789063 374.1328125 97.76953125 C382.59016557 101.39904926 389.85070817 107.23577899 396 114 C398.62770312 116.69179344 401.20082033 119.16502634 404.1875 121.4375 C407.32584308 124.29687925 407.83641593 126.01056891 409 130 C409.62132812 130.75410156 410.24265625 131.50820313 410.8828125 132.28515625 C413.1901605 135.24384049 414.41501648 137.93934873 415.75 141.4375 C416.17796875 142.52933594 416.6059375 143.62117187 417.046875 144.74609375 C418.00393061 148.01341883 418.18365972 150.61760013 418 154 C418.66 154.33 419.32 154.66 420 155 C419.34 161.6 418.68 168.2 418 175 C419.32 174.34 420.64 173.68 422 173 C420.54997977 177.10839064 418.6020866 180.50344613 416 184 C415.34 184 414.68 184 414 184 C413.76152344 184.53496094 413.52304687 185.06992187 413.27734375 185.62109375 C411.64224158 188.66628403 409.64411965 191.30409761 407.5625 194.0625 C406.78003906 195.10535156 405.99757813 196.14820313 405.19140625 197.22265625 C403 200 403 200 401.27734375 201.68359375 C399.72965056 203.08822477 399.72965056 203.08822477 399 206 C397.31090232 207.58749782 395.51598057 208.97391918 393.69140625 210.40234375 C391.90461136 211.90707014 391.90461136 211.90707014 391.0078125 213.984375 C389.79716767 216.40566466 388.39610566 217.59731184 386.3125 219.3125 C383.58814836 221.61469986 380.99338129 223.9492996 378.5 226.5 C375.53521329 229.51152885 372.43245574 232.29471895 369.23046875 235.05078125 C366.63148539 237.32204692 364.10019422 239.66050784 361.5625 242 C356.87911402 246.26580013 352.05165741 250.18481912 347 254 C345.48393894 255.17960365 343.96790495 256.35924229 342.45239258 257.53955078 C287.75219361 300 287.75219361 300 277 300 C276.67 300.99 276.34 301.98 276 303 C274.68 303 273.36 303 272 303 C272 303.66 272 304.32 272 305 C270.46666016 305.62841797 270.46666016 305.62841797 268.90234375 306.26953125 C265.2875974 307.81974493 261.9497445 309.68280428 258.5625 311.6875 C253.26748925 314.76822035 247.90487418 317.67383481 242.4375 320.4375 C241.77113525 320.77934326 241.10477051 321.12118652 240.41821289 321.47338867 C236.95017703 323.20586486 233.86946507 324.63293325 230 325 C227.51416016 324.0378418 227.51416016 324.0378418 224.9140625 322.51171875 C223.95145508 321.95274902 222.98884766 321.3937793 221.99707031 320.81787109 C221.00803711 320.21797363 220.01900391 319.61807617 219 319 C218.05479492 318.42975098 217.10958984 317.85950195 216.13574219 317.27197266 C213.20060592 315.47494023 210.28549846 313.6491462 207.375 311.8125 C206.32376953 311.1517749 205.27253906 310.4910498 204.18945312 309.81030273 C195.41015134 304.28167554 186.66811054 298.70137864 178 293 C177.07155273 292.3901123 176.14310547 291.78022461 175.18652344 291.15185547 C163.56662037 283.50423363 152.04483218 275.79119315 140.92382812 267.43212891 C138.74976056 265.81371769 136.55607428 264.22426813 134.359375 262.63671875 C125.103066 255.92903434 116.21038612 249.00841375 107.64746094 241.43701172 C106.01767247 240.01541496 104.36326496 238.6304339 102.6953125 237.25390625 C95.50331137 231.29067349 88.75287963 224.96043857 82.125 218.375 C80.94804565 217.21182251 80.94804565 217.21182251 79.74731445 216.02514648 C75.10918042 211.36241741 70.94358304 206.51594331 66.90234375 201.33032227 C65.15813201 199.19370766 63.35204202 197.28965446 61.3671875 195.37890625 C57.77057921 191.89131696 54.95249562 188.06035545 52.125 183.9375 C51.61396729 183.20160645 51.10293457 182.46571289 50.57641602 181.70751953 C37.94825042 163.41845211 37.94825042 163.41845211 34 154 C33.26851058 152.72657656 32.50275986 151.471489 31.6875 150.25 C26.52188111 142.1903898 22.39327257 133.93941976 19 125 C18.67257813 124.22269531 18.34515625 123.44539062 18.0078125 122.64453125 C15.48493192 116.65024522 13.6463652 110.56771421 11.9296875 104.296875 C11.32126701 102.139283 10.6613681 99.99539202 9.9453125 97.87109375 C8.85002839 94.54450772 8.17734269 91.25525039 7.53100586 87.81933594 C7.20281295 86.0768202 6.87211056 84.33477246 6.53735352 82.59350586 C5.07988081 74.84525151 3.97959913 67.06376232 2.9375 59.25 C2.76412109 57.99445313 2.59074219 56.73890625 2.41210938 55.4453125 C0.5394935 41.46885379 -0.15641699 27.65727358 -0.0625 13.5625 C-0.05798828 12.24701172 -0.05347656 10.93152344 -0.04882812 9.57617188 C-0.03722046 6.38406362 -0.02089675 3.19205859 0 0 Z " fill="#5D8DD2" transform="translate(173,392)"/>
<path d="M0 0 C0.82274414 0.11835205 1.64548828 0.2367041 2.49316406 0.35864258 C6.57800976 0.99073945 10.05287677 1.88318612 13.875 3.5 C16.35110249 4.13355025 18.82392541 4.73412487 21.3125 5.3125 C29.04253615 7.19958729 36.48155982 9.5391931 43.875 12.5 C45.10234863 12.99064941 45.10234863 12.99064941 46.35449219 13.49121094 C61.57009236 19.65999495 75.7863257 27.09039879 89.875 35.5 C90.65020996 35.95938965 91.42541992 36.4187793 92.22412109 36.89208984 C102.72976741 43.151519 112.30043089 50.16475475 121.796875 57.87109375 C122.68890625 58.59425781 123.5809375 59.31742188 124.5 60.0625 C125.27601563 60.70316406 126.05203125 61.34382813 126.8515625 62.00390625 C128.90089898 63.68071125 128.90089898 63.68071125 131.875 64.5 C134.13778677 66.64047397 136.27861056 68.87356575 138.42578125 71.12890625 C141.68205122 74.51170299 141.68205122 74.51170299 145.875 76.5 C147.07517423 77.88967542 148.27483005 79.28209326 149.3984375 80.734375 C151.41220532 83.1423725 153.6470321 85.28817679 155.875 87.5 C156.8640048 88.48356968 157.85293435 89.46721502 158.84179688 90.45092773 C159.36584106 90.97174423 159.88988525 91.49256073 160.42980957 92.02915955 C162.79280104 94.37865106 165.15303247 96.73090763 167.51318359 99.08325195 C168.75349968 100.31852611 169.99470998 101.55290305 171.23681641 102.78637695 C173.04569811 104.58305265 174.85126249 106.38300689 176.65625 108.18359375 C177.20535034 108.72753281 177.75445068 109.27147186 178.32019043 109.83189392 C181.72499316 113.23620591 184.81689749 116.78180619 187.875 120.5 C188.6175 121.20125 189.36 121.9025 190.125 122.625 C191.98756383 124.6206041 192.49395328 125.83267295 192.875 128.5 C193.535 128.5 194.195 128.5 194.875 128.5 C200.43446285 134.46315828 205.16511735 141.19763388 209.91015625 147.8125 C213.76402445 153.08379488 217.92859464 158.10980024 222.05078125 163.171875 C222.75589844 164.04328125 223.46101563 164.9146875 224.1875 165.8125 C224.82300781 166.59238281 225.45851563 167.37226563 226.11328125 168.17578125 C227.89620029 170.52796935 229.40430713 172.94325702 230.875 175.5 C227.93278439 174.18564633 225.99243608 172.82311333 223.8359375 170.4375 C223.26431885 169.81415771 222.6927002 169.19081543 222.10375977 168.54858398 C221.18614868 167.53453491 221.18614868 167.53453491 220.25 166.5 C214.4342489 160.18660573 208.50539291 154.00918455 202.4375 147.9375 C201.33897705 146.83245117 201.33897705 146.83245117 200.21826172 145.70507812 C192.87512892 138.380274 185.12443183 131.77622479 176.875 125.5 C175.72128569 124.60425485 174.56764557 123.70841416 173.4140625 122.8125 C153.94345922 107.81426844 133.48610701 96.27265844 110.68017578 87.22558594 C109.18242453 86.62356853 107.69684598 85.99136963 106.21484375 85.3515625 C70.38802221 69.98843148 23.1874403 68.9986396 -13.02001953 83.06787109 C-14.83820006 83.80904308 -16.63530025 84.60138621 -18.4296875 85.3984375 C-21.125 86.5 -21.125 86.5 -24.125 86.5 C-24.455 87.49 -24.785 88.48 -25.125 89.5 C-26.1975 89.850625 -27.27 90.20125 -28.375 90.5625 C-34.63661214 92.69841797 -39.54322509 97.10517835 -44.59130859 101.24511719 C-45.9286131 102.33931413 -47.28504494 103.41005076 -48.64453125 104.4765625 C-59.67140271 113.55297159 -66.19528169 125.05830737 -68.56640625 139.1171875 C-69.17947812 147.28278305 -65.28954889 154.15981717 -60.58984375 160.60546875 C-55.8267612 165.90688495 -49.53776545 168.62531204 -43.125 171.5 C-43.125 171.83 -43.125 172.16 -43.125 172.5 C-51.33377052 171.59295353 -59.16357413 169.64155636 -67.125 167.5 C-67.85557617 167.3035791 -68.58615234 167.1071582 -69.33886719 166.90478516 C-77.41087541 164.7044603 -85.12684445 162.33523999 -92.67578125 158.66796875 C-95.00347393 157.55795263 -97.33296389 156.64474871 -99.75 155.75 C-113.00942441 150.48832365 -124.7594829 143.01608859 -136.125 134.5 C-137.115 133.84 -138.105 133.18 -139.125 132.5 C-139.125 131.84 -139.125 131.18 -139.125 130.5 C-140.053125 130.12875 -140.053125 130.12875 -141 129.75 C-143.52858627 128.26259631 -143.84339004 127.06321991 -145.125 124.5 C-145.69992188 124.22800781 -146.27484375 123.95601563 -146.8671875 123.67578125 C-161.02288314 116.30404356 -171.08947578 97.46047239 -179.04248047 84.28613281 C-179.98453535 82.7317635 -180.94571244 81.18901515 -181.91015625 79.6484375 C-184.96006911 74.73425566 -187.50423374 69.74664381 -189.82421875 64.44921875 C-191.78423824 60.00533072 -193.89674306 55.63327399 -195.98828125 51.25 C-197.125 48.5 -197.125 48.5 -197.125 45.5 C-190.7042585 39.7633375 -182.8060837 34.77053345 -174.7890625 31.56640625 C-171.58099122 30.28223695 -168.49383601 28.80041631 -165.375 27.3125 C-158.9804733 24.28802919 -152.50178736 21.52969134 -145.93652344 18.89770508 C-142.97604162 17.70491374 -140.10433148 16.4895392 -137.25390625 15.046875 C-129.64633197 11.28582704 -122.02066045 8.77304117 -113.75 6.9375 C-111.91397534 6.51470125 -110.07803733 6.091526 -108.2421875 5.66796875 C-107.3665918 5.46864746 -106.49099609 5.26932617 -105.58886719 5.06396484 C-102.34340311 4.32109703 -99.10817405 3.54472504 -95.875 2.75 C-94.96234375 2.52828125 -94.0496875 2.3065625 -93.109375 2.078125 C-91.14228945 1.67765536 -91.14228945 1.67765536 -90.125 0.5 C-88.45283198 0.21259024 -86.77043778 -0.0157498 -85.0859375 -0.21875 C-84.03784912 -0.34596436 -82.98976074 -0.47317871 -81.90991211 -0.60424805 C-80.78464111 -0.73484619 -79.65937012 -0.86544434 -78.5 -1 C-76.78598999 -1.2007312 -76.78598999 -1.2007312 -75.03735352 -1.40551758 C-49.67012612 -4.31391933 -25.25327435 -3.68218396 0 0 Z " fill="#7370C5" transform="translate(375.125,140.5)"/>
<path d="M0 0 C11.18845882 0.49506455 20.76390013 4.42028332 30.94921875 8.79296875 C34.01842758 10.00729081 37.07281228 10.92320085 40.25 11.8125 C47.02357993 13.80376928 53.04410563 16.83939517 59.2734375 20.09765625 C62.77801594 21.92545136 66.34951924 23.48604093 70 25 C70 25.66 70 26.32 70 27 C71.05574219 27.38091797 71.05574219 27.38091797 72.1328125 27.76953125 C80.59016557 31.39904926 87.85070817 37.23577899 94 44 C96.62770312 46.69179344 99.20082033 49.16502634 102.1875 51.4375 C105.32584308 54.29687925 105.83641593 56.01056891 107 60 C107.99 61.175625 107.99 61.175625 109 62.375 C111.19505957 65.25601569 111.80666266 67.3555583 112.5078125 70.83984375 C112.96676392 73.11231711 112.96676392 73.11231711 114.0390625 75.6015625 C115.35426123 80.25287508 115.29043734 84.62882681 115.25 89.4375 C115.26160156 90.81131836 115.26160156 90.81131836 115.2734375 92.21289062 C115.25423696 98.8994779 114.7967226 104.30491611 111 110 C110.83564453 108.69675781 110.83564453 108.69675781 110.66796875 107.3671875 C109.83905056 101.34236752 109.08750699 96.33296662 106 91 C106 90.01 106 89.02 106 88 C105.34 88 104.68 88 104 88 C102.2734375 85.6640625 102.2734375 85.6640625 100.375 82.625 C99.74335937 81.62726563 99.11171875 80.62953125 98.4609375 79.6015625 C97 77 97 77 97 75 C95.515 74.505 95.515 74.505 94 74 C92.52734375 72.43359375 92.52734375 72.43359375 90.9375 70.4375 C84.78797248 63.21115648 77.65451066 57.84644918 69 54 C69 53.34 69 52.68 69 52 C64.99745544 51.90818866 64.99745544 51.90818866 61 52 C60.67 52.33 60.34 52.66 60 53 C53.97440985 53.45476152 49.01080326 52.33935632 43.19921875 50.80078125 C33.35927869 48.33779259 23.13796899 47.07091389 13 48 C12.01 48.66 11.02 49.32 10 50 C10.75736325 42.55259467 10.75736325 42.55259467 12.01367188 39.69140625 C13.06697555 36.81724296 13.2309445 34.74575467 13.1953125 31.69921875 C13.18886719 30.72275391 13.18242187 29.74628906 13.17578125 28.74023438 C13.15902344 27.73283203 13.14226562 26.72542969 13.125 25.6875 C13.11597656 24.66076172 13.10695313 23.63402344 13.09765625 22.57617188 C13.07416201 20.05054101 13.04131131 17.5253919 13 15 C12.01 14.67 11.02 14.34 10 14 C9.731875 13.2575 9.46375 12.515 9.1875 11.75 C7.60123918 8.0765539 5.07359831 6.49729862 2 4 C0.8125 1.84765625 0.8125 1.84765625 0 0 Z " fill="#33439B" transform="translate(475,462)"/>
<path d="M0 0 C0.66 0 1.32 0 2 0 C3.5859375 2.16015625 3.5859375 2.16015625 5.375 5.0625 C6.00148437 6.06796875 6.62796875 7.0734375 7.2734375 8.109375 C8.59389265 10.32009177 9.81701519 12.52882498 11 14.8125 C13.13041202 18.20784415 15.32299767 20.13182582 18.41015625 22.60546875 C20.50787261 24.4454804 21.59518973 26.60011579 23 29 C28.82751693 35.51865101 35.44507701 41.59296159 43 46 C44.33333333 47.33333333 45.66666667 48.66666667 47 50 C47.9075 50.53625 48.815 51.0725 49.75 51.625 C50.4925 52.07875 51.235 52.5325 52 53 C52 53.66 52 54.32 52 55 C52.69222656 55.24363281 53.38445312 55.48726562 54.09765625 55.73828125 C57.4737832 57.20596497 60.39801651 59.14019505 63.4375 61.1875 C79.10039452 71.44961023 95.651846 78.46185014 114.08642578 81.61987305 C119.13019717 82.50260945 123.37107723 83.7942717 128 86 C128.00257813 86.94359375 128.00515625 87.8871875 128.0078125 88.859375 C128.3365405 99.77314461 130.63620771 108.46846356 138.125 116.875 C142.68727294 121.0665239 148.39870882 123.48907637 154 126 C154 126.33 154 126.66 154 127 C145.79122948 126.09295353 137.96142587 124.14155636 130 122 C129.26942383 121.8035791 128.53884766 121.6071582 127.78613281 121.40478516 C119.71412459 119.2044603 111.99815555 116.83523999 104.44921875 113.16796875 C102.12152607 112.05795263 99.79203611 111.14474871 97.375 110.25 C84.11557559 104.98832365 72.3655171 97.51608859 61 89 C60.01 88.34 59.02 87.68 58 87 C58 86.34 58 85.68 58 85 C57.071875 84.62875 57.071875 84.62875 56.125 84.25 C53.59641373 82.76259631 53.28160996 81.56321991 52 79 C51.42507812 78.72800781 50.85015625 78.45601563 50.2578125 78.17578125 C36.10211686 70.80404356 26.03552422 51.96047239 18.08251953 38.78613281 C17.14046465 37.2317635 16.17928756 35.68901515 15.21484375 34.1484375 C12.16493089 29.23425566 9.62076626 24.24664381 7.30078125 18.94921875 C5.34076176 14.50533072 3.22825694 10.13327399 1.13671875 5.75 C0 3 0 3 0 0 Z " fill="#6649A8" transform="translate(178,186)"/>
<path d="M0 0 C14.03640121 -0.34036163 27.84654752 0.62087663 41.80371094 2.06201172 C41.80371094 2.39201172 41.80371094 2.72201172 41.80371094 3.06201172 C40.1746582 3.04630127 40.1746582 3.04630127 38.51269531 3.03027344 C18.18559318 2.85162831 -1.97155167 2.72496689 -22.19628906 5.06201172 C-23.79259936 5.23169573 -25.38895215 5.40098065 -26.98535156 5.56982422 C-32.97933886 6.24003248 -38.47865822 7.08283181 -44.19628906 9.06201172 C-47.81028704 10.10234942 -51.44098134 11.08032208 -55.07128906 12.06201172 C-56.02648437 12.32240234 -56.98167969 12.58279297 -57.96582031 12.85107422 C-62.13292762 13.98288114 -66.29841666 15.09604054 -70.49707031 16.10498047 C-79.05419654 18.31880932 -87.15579038 21.96154546 -95.16113281 25.66357422 C-98.95143002 27.40994024 -102.75664277 29.11959517 -106.57128906 30.81201172 C-107.58896362 31.27099854 -107.58896362 31.27099854 -108.62719727 31.73925781 C-112.12715612 33.28620575 -115.40248181 34.50539135 -119.19628906 35.06201172 C-117.84595955 32.3613527 -116.44674816 32.08290903 -113.70800781 30.85498047 C-112.77939941 30.43547119 -111.85079102 30.01596191 -110.89404297 29.58374023 C-109.40396729 28.92329712 -109.40396729 28.92329712 -107.88378906 28.24951172 C-106.88009277 27.79954834 -105.87639648 27.34958496 -104.84228516 26.88598633 C-98.00560111 23.83276904 -91.15516722 20.82757557 -84.19628906 18.06201172 C-83.40867188 17.74490234 -82.62105469 17.42779297 -81.80957031 17.10107422 C-78.79508532 15.92125783 -76.46261399 15.06201172 -73.19628906 15.06201172 C-73.19628906 14.40201172 -73.19628906 13.74201172 -73.19628906 13.06201172 C-71.92785156 12.87638672 -71.92785156 12.87638672 -70.63378906 12.68701172 C-67.17152076 12.13137942 -67.17152076 12.13137942 -63.82128906 10.99951172 C-59.70930513 9.9360676 -56.42214202 9.91373618 -52.19628906 10.06201172 C-52.19628906 9.40201172 -52.19628906 8.74201172 -52.19628906 8.06201172 C-44.10113305 5.91016911 -36.03478122 4.22028998 -27.75878906 2.93701172 C-26.1060498 2.67936035 -26.1060498 2.67936035 -24.41992188 2.41650391 C-16.26260192 1.1724945 -8.25206633 0.2329952 0 0 Z " fill="#A39EE3" transform="translate(323.1962890625,134.93798828125)"/>
<path d="M0 0 C3.78962312 3.78962312 4.91206179 9.32917408 5.1875 14.5625 C5.0946875 15.7690625 5.0946875 15.7690625 5 17 C5.66 17.33 6.32 17.66 7 18 C6.34 24.6 5.68 31.2 5 38 C6.32 37.34 7.64 36.68 9 36 C7.54997977 40.10839064 5.6020866 43.50344613 3 47 C2.34 47 1.68 47 1 47 C0.76152344 47.53496094 0.52304687 48.06992187 0.27734375 48.62109375 C-1.35775842 51.66628403 -3.35588035 54.30409761 -5.4375 57.0625 C-6.21996094 58.10535156 -7.00242187 59.14820313 -7.80859375 60.22265625 C-10 63 -10 63 -11.72265625 64.68359375 C-13.27034944 66.08822477 -13.27034944 66.08822477 -14 69 C-19.46511628 74 -19.46511628 74 -22 74 C-20.52266997 70.64173948 -18.60015399 68.25714878 -16.125 65.5625 C-11.02077011 60.17340722 -11.02077011 60.17340722 -7 54 C-6.34 54 -5.68 54 -5 54 C-4.896875 53.484375 -4.79375 52.96875 -4.6875 52.4375 C-3.75736134 49.13973565 -2.38604488 46.13366668 -1 43 C-0.34 43 0.32 43 1 43 C2.63141378 36.06158878 3.33852645 29.49583634 3.3125 22.375 C3.32861328 21.48554687 3.34472656 20.59609375 3.36132812 19.6796875 C3.36571201 13.71760193 2.25970268 9.49721866 0 4 C0 2.68 0 1.36 0 0 Z " fill="#4085CA" transform="translate(586,529)"/>
<path d="M0 0 C0.33 0 0.66 0 1 0 C1.19025418 6.43781405 0.91851502 12.78688166 0.34375 19.19921875 C0.2436412 20.32028015 0.2436412 20.32028015 0.14151001 21.46398926 C0.07241425 22.23625854 0.00331848 23.00852783 -0.06787109 23.80419922 C-1.48657015 39.66301276 -2.32492316 55.45151262 -2.375 71.375 C-2.38249268 72.19100677 -2.38998535 73.00701355 -2.39770508 73.8477478 C-2.47466499 83.98862704 -1.67390079 93.50561487 0.35693359 103.44775391 C0.89443848 106.41688681 1.13691372 109.00021314 1 112 C0.34 111.67 -0.32 111.34 -1 111 C-1.59765625 108.34765625 -1.59765625 108.34765625 -2.0625 105.0625 C-2.58146009 100.89137424 -2.58146009 100.89137424 -4 97 C-4.10025947 95.44901588 -4.1383373 93.89380543 -4.14526367 92.33959961 C-4.15469749 90.87625435 -4.15469749 90.87625435 -4.1643219 89.38334656 C-4.16552536 88.31711563 -4.16672882 87.2508847 -4.16796875 86.15234375 C-4.17211288 85.04482254 -4.17625702 83.93730133 -4.18052673 82.79621887 C-4.19025681 79.17661278 -4.19017714 75.55711723 -4.1875 71.9375 C-4.18756042 70.71381714 -4.18762085 69.49013428 -4.18768311 68.22937012 C-4.17719495 53.3844887 -4.05450615 38.56886278 -3.125 23.75 C-3.04660889 22.47116943 -2.96821777 21.19233887 -2.88745117 19.87475586 C-2.40651164 13.11716352 -1.54115491 6.59954679 0 0 Z " fill="#F1D4F9" transform="translate(172,225)"/>
<path d="M0 0 C0.99 0.33 1.98 0.66 3 1 C-4.93433192 6.93761263 -13.06388493 12.3970994 -21.5625 17.5 C-22.41875977 18.01594727 -23.27501953 18.53189453 -24.15722656 19.06347656 C-30.46468165 22.80907316 -30.46468165 22.80907316 -33.71069336 23.96679688 C-34.84390015 24.47823242 -34.84390015 24.47823242 -36 25 C-36.33 25.99 -36.66 26.98 -37 28 C-38.32 28 -39.64 28 -41 28 C-41 28.66 -41 29.32 -41 30 C-44.98188718 31.71767682 -48.96479403 33.41037341 -53 35 C-51.7142864 31.14285921 -50.4913606 30.93370484 -46.9375 29.125 C-43.54272621 27.35115423 -40.21982565 25.57514751 -37 23.5 C-33.96533181 21.5592957 -30.86421836 19.82344348 -27.6875 18.125 C-20.02231887 13.98857402 -12.7841538 9.46563886 -6 4 C-4.34338239 2.98343919 -2.67888441 1.97934924 -1 1 C-0.67 0.67 -0.34 0.34 0 0 Z " fill="#50A7DD" transform="translate(486,667)"/>
<path d="M0 0 C3.88397689 1.55002747 6.02979619 4.00476621 8.75 7.125 C9.94882812 8.49011719 9.94882812 8.49011719 11.171875 9.8828125 C12.07679688 10.93082031 12.07679688 10.93082031 13 12 C12.484375 11.21625 11.96875 10.4325 11.4375 9.625 C10.963125 8.75875 10.48875 7.8925 10 7 C10.33 6.34 10.66 5.68 11 5 C18.75 14.6875 18.75 14.6875 20.83984375 17.3046875 C22.28403088 19.10665697 23.73460532 20.90352526 25.19140625 22.6953125 C25.89136719 23.55898438 26.59132813 24.42265625 27.3125 25.3125 C28.26576172 26.48232422 28.26576172 26.48232422 29.23828125 27.67578125 C31.02120029 30.02796935 32.52930713 32.44325702 34 35 C31.00425222 33.66779052 29.05344981 32.25482547 26.85546875 29.83203125 C26.26773682 29.19281738 25.68000488 28.55360352 25.07446289 27.89501953 C24.45176514 27.20778809 23.82906738 26.52055664 23.1875 25.8125 C17.15981462 19.25033636 10.97432693 12.89714705 4.57299805 6.69848633 C3.67254761 5.81519653 3.67254761 5.81519653 2.75390625 4.9140625 C2.22095947 4.3979541 1.6880127 3.8818457 1.13891602 3.35009766 C0 2 0 2 0 0 Z " fill="#4765AC" transform="translate(572,281)"/>
<path d="M0 0 C0.66 0 1.32 0 2 0 C3.26305335 5.07476794 4.27036084 9.72796354 4 15 C3.34 15 2.68 15 2 15 C2.24556641 15.85343994 2.24556641 15.85343994 2.49609375 16.72412109 C3.01080512 19.04880104 3.09910011 21.03759678 3.0625 23.4140625 C3.05404053 24.25316162 3.04558105 25.09226074 3.03686523 25.95678711 C3.02469971 26.83729736 3.01253418 27.71780762 3 28.625 C2.91474788 40.36421315 2.91474788 40.36421315 4.6875 51.9375 C5 54 5 54 3 57 C-0.29603723 38.02378568 -0.1256064 19.18686106 0 0 Z " fill="#AFA1DB" transform="translate(173,392)"/>
<path d="M0 0 C0.66 0.33 1.32 0.66 2 1 C1.19175781 1.58007812 0.38351563 2.16015625 -0.44921875 2.7578125 C-5.90598318 6.7278384 -11.02353216 10.46134836 -15 16 C-14.01 16.33 -13.02 16.66 -12 17 C-14 19 -14 19 -17.5625 20.25 C-22.57890955 22.02645329 -26.69614699 24.92154958 -31 28 C-31.66 27.67 -32.32 27.34 -33 27 C-24.47635945 15.79082886 -11.36908956 8.08213982 0 0 Z " fill="#F5CFF8" transform="translate(216,154)"/>
<path d="M0 0 C0 0.33 0 0.66 0 1 C-1.08007324 1.02505615 -2.16014648 1.0501123 -3.27294922 1.07592773 C-7.27242312 1.16995572 -11.27172147 1.27018754 -15.27099609 1.37231445 C-17.00337626 1.4156808 -18.73579963 1.45735463 -20.46826172 1.49731445 C-22.95553627 1.55497594 -25.44259293 1.61868198 -27.9296875 1.68359375 C-28.70682098 1.70030624 -29.48395447 1.71701874 -30.28463745 1.73423767 C-34.27274216 1.76473429 -34.27274216 1.76473429 -38 3 C-40.10416952 3.0205428 -42.20891853 2.99131799 -44.3125 2.9375 C-50.2389367 2.88926857 -55.71047248 3.47310151 -61.53515625 4.48828125 C-67.98329636 5.44059958 -74.49443745 5.68265549 -81 6 C-77.29319725 2.29319725 -71.40465858 2.56093484 -66.375 1.875 C-65.72336884 1.78528931 -65.07173767 1.69557861 -64.40036011 1.60314941 C-43.08987191 -1.22525514 -21.44262376 -0.34772545 0 0 Z " fill="#D6CEF2" transform="translate(416,102)"/>
<path d="M0 0 C0.33 0 0.66 0 1 0 C2.24063784 7.65874066 2.11179358 15.25711646 2.0625 23 C2.05747487 24.36067544 2.05291376 25.72135267 2.04882812 27.08203125 C2.03710459 30.38806725 2.02069427 33.69401001 2 37 C-2.33648632 32.87504959 -2.6087311 30.86903353 -3 25 C-2.34 25 -1.68 25 -1 25 C-1.01160156 23.865625 -1.02320313 22.73125 -1.03515625 21.5625 C-1.0445441 20.04166833 -1.05364322 18.52083486 -1.0625 17 C-1.07087891 16.25621094 -1.07925781 15.51242187 -1.08789062 14.74609375 C-1.10966272 9.73851156 -0.71541549 4.95720968 0 0 Z " fill="#3CA6E0" transform="translate(652,352)"/>
<path d="M0 0 C1.32 0.66 2.64 1.32 4 2 C3.35160156 2.23332031 2.70320313 2.46664062 2.03515625 2.70703125 C-6.04124076 5.71047455 -13.92602475 9.09465963 -21.8125 12.5625 C-23.42209595 13.26886597 -23.42209595 13.26886597 -25.06420898 13.98950195 C-29.62609265 16.00625639 -34.11936437 18.03707361 -38.51171875 20.40234375 C-42.10888219 22.04986877 -42.53789975 22.16541722 -46 21 C-34.28125 15.140625 -34.28125 15.140625 -32.1262207 14.06762695 C-30.74225514 13.3727043 -29.36287073 12.66855664 -27.98901367 11.95385742 C-23.21601034 9.49103721 -18.3884977 7.55893352 -13.3125 5.8125 C-12.21325195 5.42288086 -12.21325195 5.42288086 -11.09179688 5.02539062 C-7.41793921 3.74335012 -3.85320774 2.63080127 0 2 C0 1.34 0 0.68 0 0 Z " fill="#C39CDF" transform="translate(250,148)"/>
<path d="M0 0 C0.8944862 2.46405631 1.09724895 3.69709345 0.28515625 6.2265625 C-2.62516238 11.93562204 -5.98253516 16.79072719 -10.1328125 21.67578125 C-12.06424592 23.9677888 -12.06424592 23.9677888 -13.55078125 26.6171875 C-15.58449005 29.96102137 -17.86997968 31.6691338 -21 34 C-21.66 34 -22.32 34 -23 34 C-21.52266997 30.64173948 -19.60015399 28.25714878 -17.125 25.5625 C-12.02077011 20.17340722 -12.02077011 20.17340722 -8 14 C-7.34 14 -6.68 14 -6 14 C-5.896875 13.484375 -5.79375 12.96875 -5.6875 12.4375 C-4.75736134 9.13973565 -3.38604488 6.13366668 -2 3 C-1.34 3 -0.68 3 0 3 C0 2.01 0 1.02 0 0 Z " fill="#4070B6" transform="translate(587,569)"/>
<path d="M0 0 C4.10737649 4.10737649 3.0781744 11.56634558 3.125 17.0625 C3.09435334 21.81783994 2.88934044 26.33096271 2 31 C1.01 31 0.02 31 -1 31 C-0.96970703 30.16750732 -0.93941406 29.33501465 -0.90820312 28.47729492 C-0.79595525 25.38551349 -0.684191 22.29371505 -0.57275391 19.2019043 C-0.50069904 17.20685496 -0.42808663 15.21182579 -0.35546875 13.21679688 C-0.31035156 11.96318359 -0.26523437 10.70957031 -0.21875 9.41796875 C-0.17685547 8.26063232 -0.13496094 7.1032959 -0.09179688 5.91088867 C-0.02968561 3.94133398 0 1.97053381 0 0 Z " fill="#4BADE0" transform="translate(642,418)"/>
<path d="M0 0 C16.67369166 0.03341421 31.89342243 2.77168566 48 7 C48 7.33 48 7.66 48 8 C40.99745514 7.60024842 34.54063447 6.47857563 27.76171875 4.69921875 C19.72765578 2.66513492 11.24611837 2.38180307 3 3 C2.01 3.66 1.02 4.32 0 5 C0 3.35 0 1.7 0 0 Z " fill="#3955A7" transform="translate(485,507)"/>
<path d="M0 0 C1.4717776 3.86510266 0.48260939 6.42833416 -0.80078125 10.26171875 C-1.20103516 11.46248047 -1.60128906 12.66324219 -2.01367188 13.90039062 C-2.22693115 14.52147705 -2.44019043 15.14256348 -2.65991211 15.7824707 C-3.3124109 17.6872399 -3.9453698 19.59771589 -4.57617188 21.50976562 C-7.73587828 30.86793914 -7.73587828 30.86793914 -10 32 C-11.20126577 28.39620268 -10.71657991 27.69732392 -9.25 24.3125 C-8.87746094 23.42820312 -8.50492188 22.54390625 -8.12109375 21.6328125 C-7.56615234 20.32957031 -7.56615234 20.32957031 -7 19 C-4.90489648 13.79515795 -4.90489648 13.79515795 -3.5 8.375 C-2.84937293 5.28452141 -1.48286437 2.77231164 0 0 Z " fill="#4AABDD" transform="translate(636,474)"/>
<path d="M0 0 C5.13503344 0.64187918 9.9943454 1.68272247 15 3 C15 3.66 15 4.32 15 5 C16.093125 4.95875 17.18625 4.9175 18.3125 4.875 C22 5 22 5 25 7 C22.03 7 19.06 7 16 7 C16.33 7.66 16.66 8.32 17 9 C16.21882813 8.58621094 16.21882813 8.58621094 15.421875 8.1640625 C12.42404298 6.72316905 9.35897091 5.55640895 6.25 4.375 C5.07953125 3.92898438 3.9090625 3.48296875 2.703125 3.0234375 C1.81109375 2.68570312 0.9190625 2.34796875 0 2 C0 1.34 0 0.68 0 0 Z " fill="#7893CC" transform="translate(460,456)"/>
<path d="M0 0 C0.99 0.33 1.98 0.66 3 1 C2.36835938 1.3403125 1.73671875 1.680625 1.0859375 2.03125 C0.19132812 2.5159375 -0.70328125 3.000625 -1.625 3.5 C-2.62273437 4.03753906 -3.62046875 4.57507813 -4.6484375 5.12890625 C-7.01044635 6.44755688 -9.30656414 7.79017085 -11.6015625 9.21484375 C-12.20790527 9.58351563 -12.81424805 9.9521875 -13.43896484 10.33203125 C-15.18052047 11.3950892 -16.91084299 12.47648358 -18.640625 13.55859375 C-22.64180398 15.27537868 -24.8349777 15.12414159 -29 14 C-29.33 13.34 -29.66 12.68 -30 12 C-28.82824219 12.07992187 -27.65648437 12.15984375 -26.44921875 12.2421875 C-21.68874911 12.24009084 -18.74041956 10.65603401 -14.8125 8.125 C-10.96203444 5.74318196 -7.23960886 3.62554951 -3 2 C-2.01 1.34 -1.02 0.68 0 0 Z " fill="#5BAADD" transform="translate(429,702)"/>
<path d="M0 0 C3.25180876 1.82914243 6.2970603 3.8718875 9.3125 6.0625 C10.00988281 6.56910156 10.70726562 7.07570313 11.42578125 7.59765625 C11.94527344 8.06042969 12.46476563 8.52320313 13 9 C13 9.66 13 10.32 13 11 C13.598125 11.2475 14.19625 11.495 14.8125 11.75 C17.28647521 13.16370012 18.43370255 14.65055383 20 17 C15.9324166 16.43532372 13.63895324 14.29459144 10.5625 11.6875 C9.63566406 10.90761719 8.70882812 10.12773437 7.75390625 9.32421875 C6.84511719 8.55722656 5.93632813 7.79023438 5 7 C4.06027344 6.30519531 3.12054687 5.61039062 2.15234375 4.89453125 C1.44207031 4.26933594 0.73179687 3.64414062 0 3 C0 2.01 0 1.02 0 0 Z " fill="#4A54A6" transform="translate(547,259)"/>
<path d="M0 0 C0.33 0 0.66 0 1 0 C1.04938628 4.23582327 1.08571263 8.47149465 1.10986328 12.70751953 C1.11992963 14.14895547 1.1335838 15.59037095 1.15087891 17.03173828 C1.17510012 19.10193934 1.18647641 21.17187076 1.1953125 23.2421875 C1.20578613 24.4885498 1.21625977 25.73491211 1.22705078 27.01904297 C1 30 1 30 -1 32 C-1 3.625 -1 3.625 0 0 Z " fill="#3EA6DD" transform="translate(651,316)"/>
<path d="M0 0 C0.33 0 0.66 0 1 0 C1.22520428 12.98678001 1.20375491 26.34050245 -2 39 C-2.33 39 -2.66 39 -3 39 C-3.22012309 30.13393103 -2.56035267 21.54806136 -1.5 12.75 C-1.35691406 11.51636719 -1.21382812 10.28273437 -1.06640625 9.01171875 C-0.71702533 6.00704286 -0.36146572 3.00324178 0 0 Z " fill="#F4D5F8" transform="translate(176,186)"/>
<path d="M0 0 C0.66 0.33 1.32 0.66 2 1 C0 3 0 3 -3.5625 4.25 C-8.57890955 6.02645329 -12.69614699 8.92154958 -17 12 C-17.66 11.67 -18.32 11.34 -19 11 C-12.62331839 2.49775785 -12.62331839 2.49775785 -7.71484375 1.56640625 C-6.11000011 1.40108955 -4.50125902 1.26911269 -2.890625 1.17578125 C-0.98908319 1.2019529 -0.98908319 1.2019529 0 0 Z " fill="#ECBFF3" transform="translate(202,170)"/>
<path d="M0 0 C-3.75 3 -3.75 3 -6 3 C-6.33 3.99 -6.66 4.98 -7 6 C-8.32 6 -9.64 6 -11 6 C-11 6.66 -11 7.32 -11 8 C-14.98188718 9.71767682 -18.96479403 11.41037341 -23 13 C-21.7142864 9.14285921 -20.4913606 8.93370484 -16.9375 7.125 C-12.65111769 4.90098629 -8.62418054 2.53412508 -4.65625 -0.21484375 C-3 -1 -3 -1 0 0 Z " fill="#61B1E1" transform="translate(456,689)"/>
<path d="M0 0 C-1.98 0.33 -3.96 0.66 -6 1 C-6 1.66 -6 2.32 -6 3 C-8.93622464 3.83806616 -11.87382067 4.67062444 -14.8125 5.5 C-16.06256836 5.85771484 -16.06256836 5.85771484 -17.33789062 6.22265625 C-18.54155273 6.56103516 -18.54155273 6.56103516 -19.76953125 6.90625 C-20.50792236 7.11572266 -21.24631348 7.32519531 -22.00708008 7.54101562 C-24 8 -24 8 -27 8 C-27 7.34 -27 6.68 -27 6 C-21.10261508 3.70657253 -16.33393082 2.65451286 -10 3 C-10 2.34 -10 1.68 -10 1 C-3.71428571 -1.42857143 -3.71428571 -1.42857143 0 0 Z " fill="#B69FE4" transform="translate(281,142)"/>
<path d="M0 0 C0.82062424 0.00015106 1.64124847 0.00030212 2.48674011 0.00045776 C3.80875175 0.01594162 3.80875175 0.01594162 5.1574707 0.03173828 C6.5161602 0.03598312 6.5161602 0.03598312 7.90229797 0.04031372 C10.79608353 0.05151114 13.6895599 0.07661489 16.58325195 0.10205078 C18.54483603 0.11208115 20.50642495 0.1212069 22.46801758 0.12939453 C27.27738155 0.15144905 32.08651432 0.18597589 36.89575195 0.22705078 C36.89575195 0.55705078 36.89575195 0.88705078 36.89575195 1.22705078 C35.81567871 1.25210693 34.73560547 1.27716309 33.62280273 1.30297852 C29.62332883 1.3970065 25.62403048 1.49723832 21.62475586 1.59936523 C19.8923757 1.64273159 18.15995232 1.68440541 16.42749023 1.72436523 C13.94021568 1.78202672 11.45315902 1.84573276 8.96606445 1.91064453 C8.18893097 1.92735703 7.41179749 1.94406952 6.6111145 1.96128845 C2.6230098 1.99178507 2.6230098 1.99178507 -1.10424805 3.22705078 C-3.1122526 2.94593014 -5.11438856 2.61637112 -7.10424805 2.22705078 C-4.03653614 0.18190951 -3.44856757 -0.02122195 0 0 Z " fill="#C3C1ED" transform="translate(379.104248046875,101.77294921875)"/>
<path d="M0 0 C0.66 0 1.32 0 2 0 C0.54997977 4.10839064 -1.3979134 7.50344613 -4 11 C-4.66 11 -5.32 11 -6 11 C-6.33 11.99 -6.66 12.98 -7 14 C-7.33 13.01 -7.66 12.02 -8 11 C-7.34 10.01 -6.68 9.02 -6 8 C-5.29187186 5.67891331 -4.61975848 3.34622853 -4 1 C-3.01 1 -2.02 1 -1 1 C-0.67 0.67 -0.34 0.34 0 0 Z " fill="#4EABDD" transform="translate(593,565)"/>
<path d="M0 0 C0.66 0 1.32 0 2 0 C3.28406399 1.95224208 4.47941678 3.96340762 5.625 6 C6.25664062 7.11375 6.88828125 8.2275 7.5390625 9.375 C8.26222656 10.674375 8.26222656 10.674375 9 12 C8.01 13.32 7.02 14.64 6 16 C4.99303432 13.89915791 3.9946411 11.79420511 3 9.6875 C2.443125 8.51574219 1.88625 7.34398437 1.3125 6.13671875 C0 3 0 3 0 0 Z " fill="#8058AD" transform="translate(178,186)"/>
<path d="M0 0 C1.32 0.66 2.64 1.32 4 2 C2.69675781 2.48919922 2.69675781 2.48919922 1.3671875 2.98828125 C0.21476562 3.42527344 -0.93765625 3.86226562 -2.125 4.3125 C-3.83042969 4.95638672 -3.83042969 4.95638672 -5.5703125 5.61328125 C-9.00034439 6.93955219 -9.00034439 6.93955219 -12.15625 8.625 C-15.89575945 10.43311446 -18.89131908 10.64580337 -23 11 C-21.28395225 7.56790451 -17.2124341 7.11358299 -13.75 5.9375 C-12.98558594 5.66873047 -12.22117188 5.39996094 -11.43359375 5.12304688 C-7.64855266 3.81233748 -3.96698963 2.64265232 0 2 C0 1.34 0 0.68 0 0 Z " fill="#C9A5E7" transform="translate(250,148)"/>
<path d="M0 0 C-2.52049393 0.79276039 -5.04138014 1.58423465 -7.5625 2.375 C-8.26697266 2.59671875 -8.97144531 2.8184375 -9.69726562 3.046875 C-15.72851421 4.93685152 -21.75400678 6.79317069 -27.9375 8.125 C-28.70964844 8.29257813 -29.48179687 8.46015625 -30.27734375 8.6328125 C-31.13005859 8.81457031 -31.13005859 8.81457031 -32 9 C-31 7 -31 7 -28.04296875 5.81640625 C-26.76088636 5.38910166 -25.47546196 4.9717413 -24.1875 4.5625 C-23.17949341 4.23644775 -23.17949341 4.23644775 -22.15112305 3.90380859 C-4.77109847 -1.63133578 -4.77109847 -1.63133578 0 0 Z " fill="#DCCBF3" transform="translate(315,113)"/>
<path d="M0 0 C3.75345656 0.71971619 6.86091969 2.33112202 10.25 4.0625 C11.32765625 4.61035156 12.4053125 5.15820312 13.515625 5.72265625 C14.74539063 6.35494141 14.74539063 6.35494141 16 7 C16 7.33 16 7.66 16 8 C6.16299559 6.98237885 6.16299559 6.98237885 2 5 C0.625 2.375 0.625 2.375 0 0 Z " fill="#6057AC" transform="translate(316,305)"/>
<path d="M0 0 C0.66 0.33 1.32 0.66 2 1 C-3.61 6.61 -9.22 12.22 -15 18 C-15 13.78193333 -13.14807199 12.61332709 -10.3125 9.5625 C-9.44238281 8.61503906 -8.57226562 7.66757813 -7.67578125 6.69140625 C-5.23784139 4.23923024 -2.74711696 2.0937486 0 0 Z " fill="#E0DDEE" transform="translate(331,240)"/>
<path d="M0 0 C0.33 0 0.66 0 1 0 C1 9.57 1 19.14 1 29 C-0.32 27.68 -1.64 26.36 -3 25 C-3 24.34 -3 23.68 -3 23 C-2.34 22.67 -1.68 22.34 -1 22 C-0.67 14.74 -0.34 7.48 0 0 Z " fill="#80C4E6" transform="translate(653,360)"/>
<path d="M0 0 C3.7602985 0.58107632 6.53035032 1.65199496 9.8125 3.5625 C10.60269531 4.01753906 11.39289063 4.47257813 12.20703125 4.94140625 C12.79871094 5.29074219 13.39039063 5.64007813 14 6 C14 6.66 14 7.32 14 8 C8.93001981 7.34580901 4.58009223 5.1453591 0 3 C0 2.01 0 1.02 0 0 Z " fill="#4F54A5" transform="translate(496,229)"/>
<path d="M0 0 C2.55763428 3.12934077 4.17140993 6.28567043 5.75 10 C6.19859375 11.03125 6.6471875 12.0625 7.109375 13.125 C8.00889467 16.02871263 8.0943977 17.22396681 7 20 C3.11939892 13.71074997 0 7.50733847 0 0 Z " fill="#B3B0DF" transform="translate(188,503)"/>
<path d="M0 0 C4.88049925 3.9419417 9.0580583 8.11950075 13 13 C10 13 10 13 7.30078125 10.59375 C6.29697757 9.5700032 5.30114351 8.5383946 4.3125 7.5 C3.80138672 6.97535156 3.29027344 6.45070312 2.76367188 5.91015625 C1.50227292 4.61339096 0.25022788 3.30753883 -1 2 C-0.67 1.34 -0.34 0.68 0 0 Z " fill="#3845A2" transform="translate(531,229)"/>
<path d="M0 0 C2.72716125 2.72716125 2 4.20596937 2 8 C2.33 9.010625 2.66 10.02125 3 11.0625 C4.74902361 16.50664391 4.15282689 22.35389533 4 28 C1.6527923 24.47918845 1.33250322 21.4671643 0.875 17.375 C0.79008301 16.66021484 0.70516602 15.94542969 0.61767578 15.20898438 C0.04333322 10.11039409 -0.18332504 5.13310106 0 0 Z " fill="#B4AADD" transform="translate(177,449)"/>
<path d="M0 0 C0 3 0 3 -1.6796875 4.75390625 C-2.76636719 5.64916016 -2.76636719 5.64916016 -3.875 6.5625 C-4.59429688 7.16191406 -5.31359375 7.76132812 -6.0546875 8.37890625 C-7.01761719 9.18134766 -7.01761719 9.18134766 -8 10 C-8.66 10.66 -9.32 11.32 -10 12 C-10.99 11.67 -11.98 11.34 -13 11 C-11.21427748 9.16052663 -9.42197551 7.32842259 -7.625 5.5 C-7.11710938 4.97535156 -6.60921875 4.45070313 -6.0859375 3.91015625 C-2.2265625 0 -2.2265625 0 0 0 Z " fill="#4780BE" transform="translate(548,619)"/>
<path d="M0 0 C0.99 0 1.98 0 3 0 C1.43977363 3.82964655 -0.87555571 6.32190489 -4 9 C-5.32 9 -6.64 9 -8 9 C-7.04270084 7.87411986 -6.08412105 6.7493285 -5.125 5.625 C-4.59132813 4.99851562 -4.05765625 4.37203125 -3.5078125 3.7265625 C-2.38567993 2.44163349 -1.20628025 1.20628025 0 0 Z " fill="#669CD2" transform="translate(448,554)"/>
<path d="M0 0 C0.66 0.66 1.32 1.32 2 2 C3.2684375 2.495 3.2684375 2.495 4.5625 3 C7 4 7 4 8 6 C8.639375 6.12375 9.27875 6.2475 9.9375 6.375 C12 7 12 7 13.25 9.0625 C13.4975 9.701875 13.745 10.34125 14 11 C10.04093183 9.56691865 6.71281819 7.66858051 3.1875 5.375 C2.21167969 4.74335937 1.23585938 4.11171875 0.23046875 3.4609375 C-0.50558594 2.97882812 -1.24164063 2.49671875 -2 2 C-1.34 1.34 -0.68 0.68 0 0 Z " fill="#86B6E0" transform="translate(356,685)"/>
<path d="M0 0 C2.07912902 3.11869354 2.30503876 4.27054261 2.5625 7.875 C2.78252786 10.67424338 3.04613842 13.19713687 3.6875 15.9375 C4 18 4 18 2 21 C0.79556805 13.94546999 -0.28100502 7.16562789 0 0 Z " fill="#B0A2DC" transform="translate(174,428)"/>
<path d="M0 0 C3.88397689 1.55002747 6.02979619 4.00476621 8.75 7.125 C9.94882812 8.49011719 9.94882812 8.49011719 11.171875 9.8828125 C12.07679688 10.93082031 12.07679688 10.93082031 13 12 C12.67 12.66 12.34 13.32 12 14 C9.99387601 12.04761147 7.99507567 10.08862178 6 8.125 C5.42765625 7.56941406 4.8553125 7.01382812 4.265625 6.44140625 C2.80549218 4.99865596 1.39850702 3.5025626 0 2 C0 1.34 0 0.68 0 0 Z " fill="#5565AD" transform="translate(572,281)"/>
<path d="M0 0 C2 3 2 3 2.5 5.625 C2.665 6.40875 2.83 7.1925 3 8 C3.66 8.33 4.32 8.66 5 9 C7.34067017 15.20277595 7.34067017 15.20277595 6.046875 18.23046875 C5.52867187 19.10638672 5.52867187 19.10638672 5 20 C4.15960114 17.41877492 3.32749444 14.83536099 2.5 12.25 C2.26152344 11.52039063 2.02304688 10.79078125 1.77734375 10.0390625 C1.55175781 9.33007812 1.32617188 8.62109375 1.09375 7.890625 C0.88427734 7.24125977 0.67480469 6.59189453 0.45898438 5.92285156 C0 4 0 4 0 0 Z " fill="#BDB8E0" transform="translate(182,483)"/>
<path d="M0 0 C2.27203802 0.2821289 4.54261684 0.57602856 6.8125 0.875 C8.70935547 1.11863281 8.70935547 1.11863281 10.64453125 1.3671875 C14 2 14 2 17 4 C14.03 4 11.06 4 8 4 C8.33 4.66 8.66 5.32 9 6 C5.88802644 4.50164236 2.91164984 2.86022073 0 1 C0 0.67 0 0.34 0 0 Z " fill="#576AB4" transform="translate(468,459)"/>
<path d="M0 0 C-1.5577308 3.82352106 -3.91595258 6.29205593 -7 9 C-7.99 9 -8.98 9 -10 9 C-10 7 -10 7 -8.3203125 5.2734375 C-7.59585938 4.64695312 -6.87140625 4.02046875 -6.125 3.375 C-5.04605469 2.42753906 -5.04605469 2.42753906 -3.9453125 1.4609375 C-2 0 -2 0 0 0 Z " fill="#517EBA" transform="translate(559,609)"/>
<path d="M0 0 C0.33 0.66 0.66 1.32 1 2 C-0.34747897 4.83679784 -1.4311223 6.6207482 -4.0625 8.375 C-6 9 -6 9 -8 8 C-5.36 5.36 -2.72 2.72 0 0 Z " fill="#6597CD" transform="translate(460,542)"/>
<path d="M0 0 C2.64752004 2.57784846 4.94432065 4.91648098 7 8 C7 8.99 7 9.98 7 11 C5.68 10.67 4.36 10.34 3 10 C2.87625 9.278125 2.7525 8.55625 2.625 7.8125 C2.0095069 5.04278106 1.11555626 2.6029646 0 0 Z " fill="#3E56AB" transform="translate(582,286)"/>
<path d="M0 0 C0.33 1.32 0.66 2.64 1 4 C-4.75 9 -4.75 9 -7 9 C-5.44499019 5.18315774 -2.96404505 2.80804268 0 0 Z " fill="#4F74B4" transform="translate(571,594)"/>
<path d="M0 0 C1.44010481 0.25662245 2.8770687 0.53090821 4.3125 0.8125 C5.11300781 0.96332031 5.91351563 1.11414063 6.73828125 1.26953125 C9.23445587 2.07572236 10.32422106 3.02052002 12 5 C9.6875 5.625 9.6875 5.625 7 6 C6.01 5.34 5.02 4.68 4 4 C4 3.34 4 2.68 4 2 C2.68 1.67 1.36 1.34 0 1 C0 0.67 0 0.34 0 0 Z " fill="#90BEE4" transform="translate(384,591)"/>
<path d="M0 0 C0.66 0.33 1.32 0.66 2 1 C-0.97 4.96 -0.97 4.96 -4 9 C-4.33 7.68 -4.66 6.36 -5 5 C-2.5625 2.25 -2.5625 2.25 0 0 Z " fill="#577FBF" transform="translate(478,520)"/>
<path d="M0 0 C1.875 0.25 1.875 0.25 4 1 C5.3125 2.8125 5.3125 2.8125 6 5 C5.54296875 7.13671875 5.54296875 7.13671875 5 9 C4.16094435 7.87926138 3.32892169 6.75325453 2.5 5.625 C2.0359375 4.99851562 1.571875 4.37203125 1.09375 3.7265625 C0 2 0 2 0 0 Z " fill="#53B1E2" transform="translate(632,397)"/>
<path d="M0 0 C0.556875 0.28875 1.11375 0.5775 1.6875 0.875 C4.00808578 2.06620729 4.00808578 2.06620729 6.625 2.875 C9.39919994 4.18909471 9.96368671 5.17369103 11 8 C6.40378078 6.5129879 3.53027653 4.20187872 0 1 C0 0.67 0 0.34 0 0 Z " fill="#8DB1DE" transform="translate(318,661)"/>
<path d="M0 0 C0.36923077 5.41538462 0.36923077 5.41538462 -1.5 8.375 C-1.995 8.91125 -2.49 9.4475 -3 10 C-3.33 7.03 -3.66 4.06 -4 1 C-2 0 -2 0 0 0 Z " fill="#354FA4" transform="translate(589,562)"/>
<path d="M0 0 C7.94432548 5.24625268 7.94432548 5.24625268 10 10 C9.67 10.66 9.34 11.32 9 12 C7.5 10.6875 7.5 10.6875 6 9 C6 8.01 6 7.02 6 6 C5.38125 5.7525 4.7625 5.505 4.125 5.25 C1.64931313 3.79371361 1.04874998 2.62187494 0 0 Z " fill="#4364B9" transform="translate(558,257)"/>
<path d="M0 0 C-1.45449401 1.0055761 -2.91372443 2.00430435 -4.375 3 C-5.59316406 3.8353125 -5.59316406 3.8353125 -6.8359375 4.6875 C-9 6 -9 6 -11 6 C-9.89210592 2.67631776 -9.51563783 2.38436907 -6.625 0.75 C-6.01914062 0.39421875 -5.41328125 0.0384375 -4.7890625 -0.328125 C-3 -1 -3 -1 0 0 Z " fill="#53A8DD" transform="translate(444,696)"/>
<path d="M0 0 C0 3 0 3 -1.1875 4.75 C-3 6 -3 6 -5.6875 5.6875 C-6.450625 5.460625 -7.21375 5.23375 -8 5 C-8 4.34 -8 3.68 -8 3 C-7.05125 2.690625 -6.1025 2.38125 -5.125 2.0625 C-2.13919592 1.12605258 -2.13919592 1.12605258 0 0 Z " fill="#71AFDF" transform="translate(404,593)"/>
<path d="M0 0 C0.66 0 1.32 0 2 0 C0.8905928 3.48670834 -0.26337666 6.77484237 -2 10 C-2.66 10 -3.32 10 -4 10 C-3.52449439 8.51965236 -3.04448784 7.04074979 -2.5625 5.5625 C-2.29566406 4.73878906 -2.02882813 3.91507813 -1.75390625 3.06640625 C-1 1 -1 1 0 0 Z " fill="#43A6DD" transform="translate(617,523)"/>
<path d="M0 0 C0.66 0 1.32 0 2 0 C2.36923077 7.38461538 2.36923077 7.38461538 0.5 10.5 C0.005 10.995 -0.49 11.49 -1 12 C-1.02712066 10.56260487 -1.04645067 9.12506137 -1.0625 7.6875 C-1.07410156 6.88699219 -1.08570313 6.08648437 -1.09765625 5.26171875 C-1 3 -1 3 0 0 Z " fill="#60B6E1" transform="translate(638,462)"/>
<path d="M0 0 C0.59296875 0.21527344 1.1859375 0.43054688 1.796875 0.65234375 C0.70241662 1.51891491 -0.40410281 2.37027099 -1.515625 3.21484375 C-2.13050781 3.69050781 -2.74539063 4.16617188 -3.37890625 4.65625 C-3.98089844 4.98496094 -4.58289063 5.31367187 -5.203125 5.65234375 C-6.193125 5.32234375 -7.183125 4.99234375 -8.203125 4.65234375 C-2.74543269 -0.43323317 -2.74543269 -0.43323317 0 0 Z " fill="#4C99D2" transform="translate(509.203125,652.34765625)"/>
<path d="M0 0 C0.99 0.495 0.99 0.495 2 1 C2.4140625 3.06640625 2.4140625 3.06640625 2.625 5.5625 C2.69976562 6.38878906 2.77453125 7.21507812 2.8515625 8.06640625 C2.92503906 9.02353516 2.92503906 9.02353516 3 10 C2.34 10 1.68 10 1 10 C0.67 6.7 0.34 3.4 0 0 Z " fill="#A799DA" transform="translate(174,397)"/>
<path d="M0 0 C0.66 0 1.32 0 2 0 C1.44271087 3.34373475 0.64826111 6.03312999 -1 9 C-1.66 9 -2.32 9 -3 9 C-2.01 6.03 -1.02 3.06 0 0 Z " fill="#44A8DD" transform="translate(622,511)"/>
<path d="M0 0 C0.75 1.625 0.75 1.625 1 4 C-0.9375 7.25 -0.9375 7.25 -3 10 C-3.75 8.375 -3.75 8.375 -4 6 C-2.0625 2.75 -2.0625 2.75 0 0 Z " fill="#6383BF" transform="translate(484,508)"/>
<path d="M0 0 C5.94 1.485 5.94 1.485 12 3 C7.36533108 4.15866723 4.66739961 3.70010994 0 3 C0 2.01 0 1.02 0 0 Z " fill="#C6C0E9" transform="translate(336,313)"/>
<path d="M0 0 C1.98 0.99 3.96 1.98 6 3 C6 3.66 6 4.32 6 5 C2.65626525 4.44271087 -0.03312999 3.64826111 -3 2 C-2.01 1.34 -1.02 0.68 0 0 Z " fill="#5F65AE" transform="translate(504,232)"/>
<path d="M0 0 C1.75 0.125 1.75 0.125 4 1 C6.25 4.0625 6.25 4.0625 8 7 C4.2047869 5.50902342 2.38957269 3.24299151 0 0 Z " fill="#5899CF" transform="translate(604,316)"/>
<path d="M0 0 C-3.44450737 2.29633824 -5.93812283 2.54016485 -10 3 C-10 2.34 -10 1.68 -10 1 C-6.78548731 -0.60725635 -3.56387464 -0.05748185 0 0 Z " fill="#AF95DF" transform="translate(264,147)"/>
<path d="M0 0 C2.375 0.3125 2.375 0.3125 5 1 C5.66 1.99 6.32 2.98 7 4 C4.69 3.67 2.38 3.34 0 3 C0 2.01 0 1.02 0 0 Z " fill="#AEA8D8" transform="translate(330,311)"/>
</svg>
