<?xml version="1.0" encoding="UTF-8"?>
<svg version="1.1" xmlns="http://www.w3.org/2000/svg" width="1142" height="322">
<path d="M0 0 C376.86 0 753.72 0 1142 0 C1142 106.26 1142 212.52 1142 322 C765.14 322 388.28 322 0 322 C0 215.74 0 109.48 0 0 Z " fill="#FDFDFE" transform="translate(0,0)"/>
<path d="M0 0 C0.91330078 0.27714844 1.82660156 0.55429688 2.76757812 0.83984375 C4.99180717 1.51526409 7.21506953 2.19368967 9.4375 2.875 C9.4375 3.535 9.4375 4.195 9.4375 4.875 C10.736875 5.019375 12.03625 5.16375 13.375 5.3125 C20.37599899 6.67269409 26.22581051 10.25101624 32.38671875 13.68359375 C34.93950395 15.10328418 37.3782317 16.27183971 40.0859375 17.4140625 C43.52037005 18.91112284 46.31719322 20.65475724 49.375 22.8125 C49.91350586 23.19148438 50.45201172 23.57046875 51.00683594 23.9609375 C69.98695632 37.42445632 69.98695632 37.42445632 73.4375 40.875 C77.64194716 72.47404818 76.63927477 105.059775 76.4375 136.875 C73.5244297 133.33428664 71.43896074 129.99970348 69.4375 125.875 C60.60987399 111.43524071 49.40247909 98.78227019 37.4375 86.875 C36.82648438 86.22917969 36.21546875 85.58335938 35.5859375 84.91796875 C30.03131406 79.10641339 23.67589324 73.49419662 16.4375 69.875 C16.4375 69.215 16.4375 68.555 16.4375 67.875 C15.633125 67.64554687 14.82875 67.41609375 14 67.1796875 C9.54001076 65.54631425 5.58314081 63.29817682 1.4375 61 C-6.42648146 56.75255629 -13.78348959 53.74677047 -22.5625 51.875 C-23.28284424 51.70202393 -24.00318848 51.52904785 -24.74536133 51.35083008 C-31.56744422 49.80934449 -38.146923 49.54144364 -45.125 49.5625 C-46.7327832 49.53833008 -46.7327832 49.53833008 -48.37304688 49.51367188 C-55.00611602 49.50961495 -60.44266501 50.3051923 -66.5625 52.875 C-67.75875 53.37 -68.955 53.865 -70.1875 54.375 C-71.858125 55.1175 -71.858125 55.1175 -73.5625 55.875 C-74.696875 56.308125 -75.83125 56.74125 -77 57.1875 C-85.12429112 61.03584843 -93.47314462 67.69628924 -97.5625 75.875 C-98.05037315 81.66549444 -98.3386285 87.03169481 -96.0625 92.4375 C-88.94130618 99.38066397 -79.9979371 100.12329963 -70.58251953 101.56347656 C-67.96572209 101.96703392 -65.35869059 102.42228271 -62.75 102.875 C-61.78449219 103.03097656 -60.81898437 103.18695313 -59.82421875 103.34765625 C-57.42830037 103.7350203 -55.03544218 104.14143581 -52.64453125 104.55859375 C-39.77172092 106.71588942 -26.85339048 107.77627125 -13.84375 108.69702148 C-0.32024936 109.69025989 13.01393208 111.56609599 26.0625 115.375 C26.78566406 115.57480469 27.50882813 115.77460938 28.25390625 115.98046875 C32.83037605 117.27975584 37.10156781 118.91757129 41.4375 120.875 C41.4375 121.535 41.4375 122.195 41.4375 122.875 C42.15292969 122.97683594 42.86835938 123.07867187 43.60546875 123.18359375 C52.71581063 125.40777377 61.40615667 133.12477102 66.7109375 140.69140625 C70.70151761 147.3973811 72.8585162 152.87241475 72.8125 160.6875 C72.82023438 161.99332031 72.82796875 163.29914063 72.8359375 164.64453125 C72.55732861 169.63937934 70.97059763 174.14576133 69.4375 178.875 C68.89457173 180.72951315 68.35951631 182.58634783 67.83203125 184.4453125 C67.57099609 185.36054688 67.30996094 186.27578125 67.04101562 187.21875 C66.77998047 188.1365625 66.51894531 189.054375 66.25 190 C65.97736328 190.95648438 65.70472656 191.91296875 65.42382812 192.8984375 C64.76110434 195.2237841 64.09900362 197.54930606 63.4375 199.875 C62.7775 199.875 62.1175 199.875 61.4375 199.875 C61.32792969 200.46667969 61.21835938 201.05835938 61.10546875 201.66796875 C60.19031262 206.22886882 59.34899857 210.11431435 56.4375 213.875 C55.7775 213.875 55.1175 213.875 54.4375 213.875 C54.17582031 214.57625 53.91414062 215.2775 53.64453125 216 C50.50210912 223.48486308 46.41550236 230.35684397 40.4375 235.875 C38.88008501 237.84772566 37.39712429 239.86729561 35.90625 241.890625 C32.20823151 246.88688403 28.28479084 250.93657619 23.4375 254.875 C22.695 255.6175 21.9525 256.36 21.1875 257.125 C13.22536958 265.08713042 4.76088513 271.61370704 -4.5625 277.875 C-7.16213748 279.69757193 -9.75367412 281.53107206 -12.34375 283.3671875 C-18.97700777 287.875 -18.97700777 287.875 -21.5625 287.875 C-21.8925 288.865 -22.2225 289.855 -22.5625 290.875 C-25.18359375 292.34375 -25.18359375 292.34375 -28.5625 293.875 C-30.91727225 295.04046658 -33.27141962 296.20713455 -35.625 297.375 C-36.22376953 297.67019531 -36.82253906 297.96539062 -37.43945312 298.26953125 C-40.13798018 299.6114056 -42.68788483 300.96020937 -45.18359375 302.65625 C-47.5625 303.875 -47.5625 303.875 -49.90625 303.8359375 C-53.59077141 302.50300769 -56.74967843 300.57297349 -60.0625 298.5 C-61.03896484 297.90058594 -61.03896484 297.90058594 -62.03515625 297.2890625 C-63.30110837 296.51158887 -64.56425703 295.72952732 -65.82421875 294.94238281 C-67.3700916 293.9931474 -68.94883724 293.09792149 -70.53125 292.2109375 C-71.2015625 291.77007812 -71.871875 291.32921875 -72.5625 290.875 C-72.5625 290.215 -72.5625 289.555 -72.5625 288.875 C-73.34625 288.689375 -74.13 288.50375 -74.9375 288.3125 C-80.08420341 286.27156589 -84.1069408 283.13035321 -88.5625 279.875 C-90.00537842 278.84996719 -91.44948603 277.82666339 -92.89453125 276.8046875 C-100.81970057 271.17749502 -108.45471174 265.52422128 -115.5625 258.875 C-116.80810432 257.82808103 -118.05792716 256.78615464 -119.3125 255.75 C-122.48130485 253.05578574 -124.94865775 250.10791015 -127.5625 246.875 C-128.73425781 245.71484375 -128.73425781 245.71484375 -129.9296875 244.53125 C-133.36667759 241.06366356 -136.35806371 237.3139498 -139.4140625 233.51171875 C-141.03756224 231.5192418 -142.69573479 229.63427327 -144.4375 227.75 C-147.17721609 224.04332529 -148.35692487 220.28564072 -149.5625 215.875 C-150.2225 215.875 -150.8825 215.875 -151.5625 215.875 C-151.8925 214.225 -152.2225 212.575 -152.5625 210.875 C-153.2225 210.875 -153.8825 210.875 -154.5625 210.875 C-162.54669108 186.32942775 -162.54669108 186.32942775 -164.5625 176.875 C-164.76617187 176.03710938 -164.96984375 175.19921875 -165.1796875 174.3359375 C-167.48223982 163.39092854 -166.73791351 151.99891548 -166.5625 140.875 C-165.9025 141.205 -165.2425 141.535 -164.5625 141.875 C-163.9296875 144.81640625 -163.9296875 144.81640625 -163.4375 148.4375 C-163.26992187 149.63503906 -163.10234375 150.83257812 -162.9296875 152.06640625 C-162.80851562 152.99324219 -162.68734375 153.92007813 -162.5625 154.875 C-161.9025 154.875 -161.2425 154.875 -160.5625 154.875 C-160.32128418 155.41390869 -160.08006836 155.95281738 -159.83154297 156.50805664 C-158.71223728 158.99016889 -157.57504782 161.46369809 -156.4375 163.9375 C-156.05851562 164.78505859 -155.67953125 165.63261719 -155.2890625 166.50585938 C-152.9968226 171.45327716 -150.57485169 175.44643673 -146.80126953 179.40014648 C-145.5625 180.875 -145.5625 180.875 -144.5625 183.875 C-142.91947047 185.56497323 -141.24778688 187.22716394 -139.5625 188.875 C-138.6160888 189.9925138 -137.67898487 191.11795832 -136.75 192.25 C-131.18829676 198.78818549 -124.61151115 203.69364778 -117.46875 208.39453125 C-116.8396875 208.88308594 -116.210625 209.37164062 -115.5625 209.875 C-115.5625 210.535 -115.5625 211.195 -115.5625 211.875 C-115.03398438 212.11863281 -114.50546875 212.36226562 -113.9609375 212.61328125 C-111.51591587 213.89950598 -109.24275977 215.36619661 -106.94433594 216.89599609 C-96.52865085 223.81180256 -85.82153201 229.90910516 -73.5625 232.875 C-73.5625 233.535 -73.5625 234.195 -73.5625 234.875 C-72.53125 235.16375 -71.5 235.4525 -70.4375 235.75 C-67.11242003 236.69808798 -63.83498547 237.75756594 -60.5625 238.875 C-60.5625 239.535 -60.5625 240.195 -60.5625 240.875 C-57.09259295 241.97392935 -54.18259195 242.38732276 -50.5625 241.875 C-46.37894413 239.04749328 -43.05123723 235.50453829 -39.5625 231.875 C-38.10033273 230.52304634 -36.62317171 229.18694258 -35.125 227.875 C-34.22974609 227.070625 -34.22974609 227.070625 -33.31640625 226.25 C-31.5625 224.875 -31.5625 224.875 -29.46484375 223.9375 C-27.04150498 222.58401305 -26.74836778 221.35694631 -25.5625 218.875 C-23.99461774 217.11286684 -22.38565411 215.38691274 -20.75 213.6875 C-16.463922 209.07267796 -13.23343111 204.56830052 -10.5625 198.875 C-9.9025 198.875 -9.2425 198.875 -8.5625 198.875 C-8.42701185 196.14416098 -8.32820145 193.42008193 -8.25 190.6875 C-8.20810547 189.91857422 -8.16621094 189.14964844 -8.12304688 188.35742188 C-8.03230655 184.12892267 -8.14420432 182.41675101 -10.8125 178.9609375 C-13.16808765 177.17417073 -15.16401488 175.82244624 -17.875 174.6875 C-18.57238281 174.38457031 -19.26976562 174.08164063 -19.98828125 173.76953125 C-27.01028855 171.32941035 -34.08234003 170.23910517 -41.4375 169.375 C-42.52885254 169.24536865 -43.62020508 169.1157373 -44.74462891 168.98217773 C-52.13023649 168.17708539 -59.48567263 167.68962771 -66.90625 167.37890625 C-67.81222931 167.340466 -68.71820862 167.30202576 -69.65164185 167.26242065 C-74.16298054 167.0765692 -78.67371506 166.91475801 -83.18701172 166.78515625 C-92.03537835 166.48999825 -100.64267906 165.76362838 -109.3515625 164.12109375 C-110.15878754 163.97656265 -110.96601257 163.83203156 -111.79769897 163.68312073 C-116.83763571 162.64173768 -120.63085353 160.91306614 -124.88417053 158.01338196 C-126.94496282 156.61558206 -129.10026814 155.62890968 -131.375 154.625 C-144.05621825 148.36218976 -154.17461254 137.40508694 -160.5625 124.875 C-161.078125 123.92625 -161.59375 122.9775 -162.125 122 C-163.94198243 118.05003819 -165.33739558 114.04420352 -166.5625 109.875 C-166.91828125 108.70582031 -167.2740625 107.53664063 -167.640625 106.33203125 C-168.97319475 100.90552867 -168.81561105 95.49372015 -168.75 89.9375 C-168.74935547 88.90431641 -168.74871094 87.87113281 -168.74804688 86.80664062 C-168.658332 71.066664 -168.658332 71.066664 -166.5625 66.875 C-166.51787091 65.35482163 -166.52345455 63.83283203 -166.5625 62.3125 C-166.60035426 60.83381779 -166.60879173 59.35344212 -166.5625 57.875 C-166.0675 57.38 -166.0675 57.38 -165.5625 56.875 C-165.53081695 54.64360789 -165.63052881 52.42870281 -165.72265625 50.19921875 C-165.54588301 47.63385099 -164.84810473 46.0781736 -163.5625 43.875 C-162.9025 44.205 -162.2425 44.535 -161.5625 44.875 C-161.8925 43.988125 -162.2225 43.10125 -162.5625 42.1875 C-164.13451226 36.9802094 -164.13451226 36.9802094 -163.5625 33.875 C-159.91824887 30.52475037 -155.85055384 28.28971904 -151.4375 26.125 C-150.81746094 25.80917969 -150.19742188 25.49335937 -149.55859375 25.16796875 C-146.6973641 23.7465837 -144.80023387 22.875 -141.5625 22.875 C-142.2225 22.545 -142.8825 22.215 -143.5625 21.875 C-143.5625 21.215 -143.5625 20.555 -143.5625 19.875 C-134.5323687 11.48015432 -121.16647129 6.57431115 -109.5625 2.875 C-108.799375 2.565625 -108.03625 2.25625 -107.25 1.9375 C-100.74478276 -0.63433007 -94.84450563 -2.43926049 -87.82421875 -2.9140625 C-85.6384935 -3.11791252 -83.67422553 -3.5396603 -81.5625 -4.125 C-80.22916667 -4.45833333 -78.89583333 -4.79166667 -77.5625 -5.125 C-76.94270264 -5.29378662 -76.32290527 -5.46257324 -75.68432617 -5.63647461 C-72.13263927 -6.45420853 -68.50451999 -6.51173193 -64.875 -6.6875 C-63.60958374 -6.74901245 -63.60958374 -6.74901245 -62.31860352 -6.81176758 C-40.74565706 -7.78730668 -20.73164519 -6.35790733 0 0 Z " fill="#96AEE8" transform="translate(186.5625,14.125)"/>
<path d="M0 0 C0.91330078 0.27714844 1.82660156 0.55429688 2.76757812 0.83984375 C4.99180717 1.51526409 7.21506953 2.19368967 9.4375 2.875 C9.4375 3.535 9.4375 4.195 9.4375 4.875 C10.736875 5.019375 12.03625 5.16375 13.375 5.3125 C20.37599899 6.67269409 26.22581051 10.25101624 32.38671875 13.68359375 C34.93950395 15.10328418 37.3782317 16.27183971 40.0859375 17.4140625 C43.52037005 18.91112284 46.31719322 20.65475724 49.375 22.8125 C49.91350586 23.19148438 50.45201172 23.57046875 51.00683594 23.9609375 C69.98695632 37.42445632 69.98695632 37.42445632 73.4375 40.875 C77.64194716 72.47404818 76.63927477 105.059775 76.4375 136.875 C73.5244297 133.33428664 71.43896074 129.99970348 69.4375 125.875 C60.60987399 111.43524071 49.40247909 98.78227019 37.4375 86.875 C36.82648438 86.22917969 36.21546875 85.58335938 35.5859375 84.91796875 C30.03131406 79.10641339 23.67589324 73.49419662 16.4375 69.875 C16.4375 69.215 16.4375 68.555 16.4375 67.875 C15.633125 67.64554687 14.82875 67.41609375 14 67.1796875 C9.54001076 65.54631425 5.58314081 63.29817682 1.4375 61 C-6.42648146 56.75255629 -13.78348959 53.74677047 -22.5625 51.875 C-23.28284424 51.70202393 -24.00318848 51.52904785 -24.74536133 51.35083008 C-31.56744422 49.80934449 -38.146923 49.54144364 -45.125 49.5625 C-46.7327832 49.53833008 -46.7327832 49.53833008 -48.37304688 49.51367188 C-55.00611602 49.50961495 -60.44266501 50.3051923 -66.5625 52.875 C-67.75875 53.37 -68.955 53.865 -70.1875 54.375 C-71.858125 55.1175 -71.858125 55.1175 -73.5625 55.875 C-74.696875 56.308125 -75.83125 56.74125 -77 57.1875 C-85.12429112 61.03584843 -93.47314462 67.69628924 -97.5625 75.875 C-98.47970218 84.53620794 -98.47970218 84.53620794 -95.75 92.5 C-93.23861773 95.27062132 -93.23861773 95.27062132 -90.5625 97.875 C-101.24087622 97.22122186 -112.31543318 93.18100924 -121.5625 87.875 C-122.33722656 87.45734375 -123.11195312 87.0396875 -123.91015625 86.609375 C-130.50982548 82.89642353 -136.36420676 78.40509919 -141.5625 72.875 C-141.5625 72.215 -141.5625 71.555 -141.5625 70.875 C-143.0475 70.38 -143.0475 70.38 -144.5625 69.875 C-146.22312266 67.90863093 -147.7134246 65.97482982 -149.1875 63.875 C-149.62046387 63.26213135 -150.05342773 62.6492627 -150.49951172 62.01782227 C-153.87511059 57.11750229 -156.86533515 52.04894313 -159.6875 46.8125 C-160.07760254 46.09900391 -160.46770508 45.38550781 -160.86962891 44.65039062 C-164.50196403 37.69239961 -164.50196403 37.69239961 -163.5625 33.875 C-160.09607412 30.36903314 -155.82523131 28.27729767 -151.4375 26.125 C-150.81746094 25.80917969 -150.19742188 25.49335937 -149.55859375 25.16796875 C-146.6973641 23.7465837 -144.80023387 22.875 -141.5625 22.875 C-142.2225 22.545 -142.8825 22.215 -143.5625 21.875 C-143.5625 21.215 -143.5625 20.555 -143.5625 19.875 C-134.5323687 11.48015432 -121.16647129 6.57431115 -109.5625 2.875 C-108.799375 2.565625 -108.03625 2.25625 -107.25 1.9375 C-100.74478276 -0.63433007 -94.84450563 -2.43926049 -87.82421875 -2.9140625 C-85.6384935 -3.11791252 -83.67422553 -3.5396603 -81.5625 -4.125 C-80.22916667 -4.45833333 -78.89583333 -4.79166667 -77.5625 -5.125 C-76.94270264 -5.29378662 -76.32290527 -5.46257324 -75.68432617 -5.63647461 C-72.13263927 -6.45420853 -68.50451999 -6.51173193 -64.875 -6.6875 C-63.60958374 -6.74901245 -63.60958374 -6.74901245 -62.31860352 -6.81176758 C-40.74565706 -7.78730668 -20.73164519 -6.35790733 0 0 Z " fill="#78A9E4" transform="translate(186.5625,14.125)"/>
<path d="M0 0 C0.99 0.495 0.99 0.495 2 1 C2.6328125 3.94140625 2.6328125 3.94140625 3.125 7.5625 C3.29257812 8.76003906 3.46015625 9.95757812 3.6328125 11.19140625 C3.75398438 12.11824219 3.87515625 13.04507813 4 14 C4.66 14 5.32 14 6 14 C6.24121582 14.53890869 6.48243164 15.07781738 6.73095703 15.63305664 C7.85026272 18.11516889 8.98745218 20.58869809 10.125 23.0625 C10.50398438 23.91005859 10.88296875 24.75761719 11.2734375 25.63085938 C13.5656774 30.57827716 15.98764831 34.57143673 19.76123047 38.52514648 C21 40 21 40 22 43 C23.64302953 44.68997323 25.31471312 46.35216394 27 48 C27.9464112 49.1175138 28.88351513 50.24295832 29.8125 51.375 C35.37420324 57.91318549 41.95098885 62.81864778 49.09375 67.51953125 C49.7228125 68.00808594 50.351875 68.49664062 51 69 C51 69.66 51 70.32 51 71 C51.52851562 71.24363281 52.05703125 71.48726563 52.6015625 71.73828125 C55.04658413 73.02450598 57.31974023 74.49119661 59.61816406 76.02099609 C70.03384915 82.93680256 80.74096799 89.03410516 93 92 C93 92.66 93 93.32 93 94 C94.03125 94.28875 95.0625 94.5775 96.125 94.875 C99.45007997 95.82308798 102.72751453 96.88256594 106 98 C106 98.66 106 99.32 106 100 C109.46990705 101.09892935 112.37990805 101.51232276 116 101 C120.18355587 98.17249328 123.51126277 94.62953829 127 91 C128.46216727 89.64804634 129.93932829 88.31194258 131.4375 87 C132.03433594 86.46375 132.63117188 85.9275 133.24609375 85.375 C135 84 135 84 137.09765625 83.0625 C139.52099502 81.70901305 139.81413222 80.48194631 141 78 C142.56788226 76.23786684 144.17684589 74.51191274 145.8125 72.8125 C150.098578 68.19767796 153.32906889 63.69330052 156 58 C156.66 58 157.32 58 158 58 C158.1083667 55.2697611 158.18746694 52.54385457 158.25 49.8125 C158.30027344 48.65911133 158.30027344 48.65911133 158.3515625 47.48242188 C158.44097653 42.27405436 157.73329104 39.902318 154 36 C154 35.34 154 34.68 154 34 C158.52582184 34.60161982 162.39511967 35.79616062 166.625 37.5 C171.71809223 39.54989067 171.71809223 39.54989067 177 41 C177 41.66 177 42.32 177 43 C178.051875 43.103125 179.10375 43.20625 180.1875 43.3125 C183.88628113 43.97949332 186.02986811 44.74990008 189 47 C189 47.66 189 48.32 189 49 C189.721875 49.268125 190.44375 49.53625 191.1875 49.8125 C197.28803214 52.38828024 200.34031502 55.38016793 204.21875 60.6875 C205.83323923 62.78350356 207.52103056 64.44200997 209.4375 66.25 C213.14405068 70.38914545 212.46082384 75.1249823 212.2109375 80.40234375 C212.14132813 81.25957031 212.07171875 82.11679688 212 83 C212.66 83 213.32 83 214 83 C214.37125 81.99646484 214.37125 81.99646484 214.75 80.97265625 C216.28183142 77.32976966 218.11624272 73.90811803 220 70.4375 C223.07712251 64.75887621 223.07712251 64.75887621 226 59 C226.66 59 227.32 59 228 59 C226.1643002 68.9127789 226.1643002 68.9127789 223 73 C222.34 73 221.68 73 221 73 C220.73832031 73.70125 220.47664062 74.4025 220.20703125 75.125 C217.06460912 82.60986308 212.97800236 89.48184397 207 95 C205.44258501 96.97272566 203.95962429 98.99229561 202.46875 101.015625 C198.77073151 106.01188403 194.84729084 110.06157619 190 114 C189.2575 114.7425 188.515 115.485 187.75 116.25 C179.78786958 124.21213042 171.32338513 130.73870704 162 137 C159.40036252 138.82257193 156.80882588 140.65607206 154.21875 142.4921875 C147.58549223 147 147.58549223 147 145 147 C144.67 147.99 144.34 148.98 144 150 C141.37890625 151.46875 141.37890625 151.46875 138 153 C135.64522775 154.16546658 133.29108038 155.33213455 130.9375 156.5 C130.33873047 156.79519531 129.73996094 157.09039062 129.12304688 157.39453125 C126.42451982 158.7364056 123.87461517 160.08520937 121.37890625 161.78125 C119 163 119 163 116.65625 162.9609375 C112.97172859 161.62800769 109.81282157 159.69797349 106.5 157.625 C105.84902344 157.22539062 105.19804688 156.82578125 104.52734375 156.4140625 C103.26139163 155.63658887 101.99824297 154.85452732 100.73828125 154.06738281 C99.1924084 153.1181474 97.61366276 152.22292149 96.03125 151.3359375 C95.3609375 150.89507812 94.690625 150.45421875 94 150 C94 149.34 94 148.68 94 148 C93.21625 147.814375 92.4325 147.62875 91.625 147.4375 C86.47829659 145.39656589 82.4555592 142.25535321 78 139 C76.55712158 137.97496719 75.11301397 136.95166339 73.66796875 135.9296875 C65.74279943 130.30249502 58.10778826 124.64922128 51 118 C49.75439568 116.95308103 48.50457284 115.91115464 47.25 114.875 C44.08119515 112.18078574 41.61384225 109.23291015 39 106 C37.82824219 104.83984375 37.82824219 104.83984375 36.6328125 103.65625 C33.19582241 100.18866356 30.20443629 96.4389498 27.1484375 92.63671875 C25.52493776 90.6442418 23.86676521 88.75927327 22.125 86.875 C19.38528391 83.16832529 18.20557513 79.41064072 17 75 C16.34 75 15.68 75 15 75 C14.505 72.525 14.505 72.525 14 70 C13.34 70 12.68 70 12 70 C4.01580892 45.45442775 4.01580892 45.45442775 2 36 C1.79632812 35.16210938 1.59265625 34.32421875 1.3828125 33.4609375 C-0.91973982 22.51592854 -0.17541351 11.12391548 0 0 Z " fill="#5E8ED2" transform="translate(20,155)"/>
<path d="M0 0 C1.27423828 -0.00193359 1.27423828 -0.00193359 2.57421875 -0.00390625 C3.46753906 -0.00003906 4.36085938 0.00382812 5.28125 0.0078125 C6.17457031 0.00394531 7.06789063 0.00007813 7.98828125 -0.00390625 C8.83777344 -0.00261719 9.68726562 -0.00132813 10.5625 0 C11.34689453 0.00112793 12.13128906 0.00225586 12.93945312 0.00341797 C14.78125 0.1328125 14.78125 0.1328125 15.78125 1.1328125 C17.69836003 1.12678385 19.61536368 1.0765644 21.53125 1.0078125 C42.5731757 0.8928293 63.76149803 12.43767567 80.78125 24.1328125 C81.64459961 24.72545898 81.64459961 24.72545898 82.52539062 25.33007812 C84.40909735 26.62993439 86.28431505 27.94106701 88.15625 29.2578125 C88.73971191 29.66563965 89.32317383 30.0734668 89.92431641 30.49365234 C93.57672748 33.10311938 96.67193613 35.90496174 99.78125 39.1328125 C101.22129625 40.55478431 102.66432659 41.97373682 104.109375 43.390625 C119.71659156 58.79231703 119.71659156 58.79231703 125.7265625 66.50390625 C128.7250962 70.34043321 131.90322705 74.01925137 135.06640625 77.72021484 C137.39944012 80.46118755 139.66298411 83.22195043 141.78125 86.1328125 C141.45125 86.7928125 141.12125 87.4528125 140.78125 88.1328125 C128.78125 76.1328125 128.78125 76.1328125 127.08203125 74.328125 C121.46285165 68.46958887 115.09398133 62.78917817 107.78125 59.1328125 C107.78125 58.4728125 107.78125 57.8128125 107.78125 57.1328125 C106.976875 56.90335938 106.1725 56.67390625 105.34375 56.4375 C100.88376076 54.80412675 96.92689081 52.55598932 92.78125 50.2578125 C84.91726854 46.01036879 77.56026041 43.00458297 68.78125 41.1328125 C68.06090576 40.95983643 67.34056152 40.78686035 66.59838867 40.60864258 C59.77630578 39.06715699 53.196827 38.79925614 46.21875 38.8203125 C44.6109668 38.79614258 44.6109668 38.79614258 42.97070312 38.77148438 C36.33763398 38.76742745 30.90108499 39.5630048 24.78125 42.1328125 C23.585 42.6278125 22.38875 43.1228125 21.15625 43.6328125 C19.485625 44.3753125 19.485625 44.3753125 17.78125 45.1328125 C16.646875 45.5659375 15.5125 45.9990625 14.34375 46.4453125 C6.21945888 50.29366093 -2.12939462 56.95410174 -6.21875 65.1328125 C-7.13595218 73.79402044 -7.13595218 73.79402044 -4.40625 81.7578125 C-1.89486773 84.52843382 -1.89486773 84.52843382 0.78125 87.1328125 C-9.89712622 86.47903436 -20.97168318 82.43882174 -30.21875 77.1328125 C-30.99347656 76.71515625 -31.76820312 76.2975 -32.56640625 75.8671875 C-39.16607548 72.15423603 -45.02045676 67.66291169 -50.21875 62.1328125 C-50.21875 61.4728125 -50.21875 60.8128125 -50.21875 60.1328125 C-51.70375 59.6378125 -51.70375 59.6378125 -53.21875 59.1328125 C-54.87937266 57.16644343 -56.3696746 55.23264232 -57.84375 53.1328125 C-58.27671387 52.51994385 -58.70967773 51.9070752 -59.15576172 51.27563477 C-62.53136059 46.37531479 -65.52158515 41.30675563 -68.34375 36.0703125 C-68.73385254 35.35681641 -69.12395508 34.64332031 -69.52587891 33.90820312 C-71.43409195 30.25288808 -72.93317285 27.36499137 -72.21875 23.1328125 C-66.72081509 17.26834859 -58.03650654 14.2303529 -50.50390625 11.87890625 C-48.00705283 11.06369428 -45.59092993 10.11783568 -43.15625 9.1328125 C-42.31191406 8.79378906 -41.46757813 8.45476563 -40.59765625 8.10546875 C-38.58684002 7.28331236 -36.58871752 6.43021229 -34.59375 5.5703125 C-25.33390495 2.13794631 -15.03088331 0.78852712 -5.21875 1.1328125 C-3.66268249 -0.42325501 -2.15917629 0.00310481 0 0 Z " fill="#7471C5" transform="translate(95.21875,24.8671875)"/>
<path d="M0 0 C5.61 0 11.22 0 17 0 C17 36.96 17 73.92 17 112 C11.39 112 5.78 112 0 112 C0 108.04 0 104.08 0 100 C-0.66 100 -1.32 100 -2 100 C-2.226875 100.5775 -2.45375 101.155 -2.6875 101.75 C-4.34848222 104.59739809 -6.31524561 106.12067193 -9 108 C-9.66 108 -10.32 108 -11 108 C-11 108.66 -11 109.32 -11 110 C-22.61462743 113.59844612 -34.81596481 117.00957752 -46.4609375 111.56640625 C-57.00591952 105.0609635 -63.81365884 96.65130549 -68 85 C-70.67680675 70.8759079 -70.24619579 55.14439744 -62 43 C-59.01081142 38.79645357 -55.72446832 34.88361135 -50.6875 33.25 C-50.130625 33.1675 -49.57375 33.085 -49 33 C-49 32.34 -49 31.68 -49 31 C-45.7 30.34 -42.4 29.68 -39 29 C-39 28.34 -39 27.68 -39 27 C-33.06 27 -27.12 27 -21 27 C-21 27.66 -21 28.32 -21 29 C-20.443125 29.08636719 -19.88625 29.17273438 -19.3125 29.26171875 C-13.50400694 30.33118791 -8.51944751 32.07664269 -4 36 C-2.77734375 38.1640625 -2.77734375 38.1640625 -2 40 C-1.34 40 -0.68 40 0 40 C0 26.8 0 13.6 0 0 Z " fill="#548FD1" transform="translate(1102,85)"/>
<path d="M0 0 C0 0.66 0 1.32 0 2 C0.825 2.061875 1.65 2.12375 2.5 2.1875 C11.28435413 4.22672507 18.60513751 10.92919274 23.54296875 18.3046875 C28.04887741 26.15368968 29.34283808 32.76992869 29.3125 41.75 C29.32861328 42.6884375 29.34472656 43.626875 29.36132812 44.59375 C29.36684867 52.58750052 28.49913064 60.79549043 23 67 C22.34 67 21.68 67 21 67 C20.7525 67.7425 20.505 68.485 20.25 69.25 C18.00153917 74.19661382 14.03461746 76.84715538 9.5625 79.75 C8.63566406 80.36359375 7.70882812 80.9771875 6.75390625 81.609375 C3.85743554 83.07198999 2.19110616 83.30115702 -1 83 C-1 83.66 -1 84.32 -1 85 C-3.94131891 85.98043964 -5.82501665 86.11621202 -8.88671875 86.09765625 C-9.82451172 86.09443359 -10.76230469 86.09121094 -11.72851562 86.08789062 C-13.19321289 86.07532227 -13.19321289 86.07532227 -14.6875 86.0625 C-15.67556641 86.05798828 -16.66363281 86.05347656 -17.68164062 86.04882812 C-20.12115474 86.03704303 -22.56054689 86.02059011 -25 86 C-25 85.34 -25 84.68 -25 84 C-25.60585938 83.93683594 -26.21171875 83.87367188 -26.8359375 83.80859375 C-36.26555733 82.43041854 -43.04678278 78.0128038 -48.8125 70.4375 C-58.41252122 55.40049993 -58.15972696 40.98353241 -55 24 C-54.34 24 -53.68 24 -53 24 C-52.75636719 23.11441406 -52.51273438 22.22882813 -52.26171875 21.31640625 C-48.97820358 12.68574254 -40.73377177 5.78865625 -32.56640625 1.81640625 C-22.85654624 -2.07561808 -10.17004749 -2.83182236 0 0 Z " fill="#4F84C8" transform="translate(992,113)"/>
<path d="M0 0 C2.63949149 2.0688127 4.50786788 4.60835835 6.57861328 7.23730469 C7.56861328 7.89730469 8.55861328 8.55730469 9.57861328 9.23730469 C12.76645778 14.01907143 14.11285433 17.53175751 14.57861328 23.23730469 C15.23861328 23.23730469 15.89861328 23.23730469 16.57861328 23.23730469 C18.97560849 35.89343941 18.85916636 48.58295614 11.76611328 59.54980469 C5.572442 68.52284103 -4.04329256 77.49544617 -15.08935547 79.79199219 C-28.40870773 81.57206975 -41.29243796 81.07425035 -52.42138672 72.79980469 C-55.48148904 70.21176897 -58.20661464 67.60761002 -60.42138672 64.23730469 C-60.42138672 63.57730469 -60.42138672 62.91730469 -60.42138672 62.23730469 C-61.08138672 62.23730469 -61.74138672 62.23730469 -62.42138672 62.23730469 C-63.0552018 60.90813908 -63.67787156 59.5736586 -64.29638672 58.23730469 C-64.64443359 57.49480469 -64.99248047 56.75230469 -65.35107422 55.98730469 C-70.04629056 43.92368313 -70.51707601 28.25575607 -65.42138672 16.23730469 C-59.21983633 5.83678789 -59.21983633 5.83678789 -54.42138672 4.23730469 C-54.42138672 3.57730469 -54.42138672 2.91730469 -54.42138672 2.23730469 C-49.36897005 -2.07830121 -46.02617184 -3.41507504 -39.42138672 -3.76269531 C-39.42138672 -4.42269531 -39.42138672 -5.08269531 -39.42138672 -5.76269531 C-25.55169297 -9.12418932 -12.03460318 -7.74759861 0 0 Z " fill="#517CC4" transform="translate(906.42138671875,118.7626953125)"/>
<path d="M0 0 C11.76421629 7.79619683 17.58805205 13.54269437 23.19140625 26.6171875 C23.19140625 33.5471875 23.19140625 40.4771875 23.19140625 47.6171875 C2.07140625 47.6171875 -19.04859375 47.6171875 -40.80859375 47.6171875 C-38.80883107 55.61623822 -36.84405462 60.18527272 -30.80859375 65.6171875 C-30.14859375 65.9471875 -29.48859375 66.2771875 -28.80859375 66.6171875 C-28.80859375 67.2771875 -28.80859375 67.9371875 -28.80859375 68.6171875 C-25.80704002 68.75334669 -22.81177275 68.8518273 -19.80859375 68.9296875 C-18.96941406 68.97158203 -18.13023437 69.01347656 -17.265625 69.05664062 C-10.9482604 69.17907017 -6.55766869 67.91360312 -1.80859375 63.6171875 C-1.1846875 62.53179687 -0.56078125 61.44640625 0.08203125 60.328125 C2.19140625 57.6171875 2.19140625 57.6171875 4.27148438 57.14160156 C6.8535808 57.0260921 9.36123123 57.09355113 11.94140625 57.2421875 C12.82957031 57.26925781 13.71773437 57.29632813 14.6328125 57.32421875 C16.8214902 57.39482126 19.00520193 57.49333223 21.19140625 57.6171875 C18.91544227 67.21134753 13.27690449 73.52792626 5.2265625 78.9375 C2.37611319 80.66102749 0.56736756 81.6171875 -2.80859375 81.6171875 C-2.80859375 82.2771875 -2.80859375 82.9371875 -2.80859375 83.6171875 C-5.80875287 84.61724054 -7.78283131 84.73294335 -10.9140625 84.71484375 C-11.89697266 84.71162109 -12.87988281 84.70839844 -13.89257812 84.70507812 C-14.91673828 84.69669922 -15.94089844 84.68832031 -16.99609375 84.6796875 C-18.54973633 84.67291992 -18.54973633 84.67291992 -20.13476562 84.66601562 C-22.69276641 84.6542276 -25.25065108 84.63777265 -27.80859375 84.6171875 C-27.80859375 83.9571875 -27.80859375 83.2971875 -27.80859375 82.6171875 C-28.69998047 82.53984375 -28.69998047 82.53984375 -29.609375 82.4609375 C-38.2203306 81.28245524 -45.08038344 77.16043946 -50.61328125 70.41796875 C-52.68155753 67.25712844 -53.80859375 65.45060946 -53.80859375 61.6171875 C-54.46859375 61.6171875 -55.12859375 61.6171875 -55.80859375 61.6171875 C-61.92118971 50.51081895 -61.09535789 37.92339894 -57.80859375 26.0546875 C-57.16353722 23.90225929 -56.50515143 21.75350502 -55.80859375 19.6171875 C-55.14859375 19.6171875 -54.48859375 19.6171875 -53.80859375 19.6171875 C-53.74671875 18.9159375 -53.68484375 18.2146875 -53.62109375 17.4921875 C-52.03206699 11.86947742 -47.50551668 7.86890337 -42.80859375 4.6171875 C-40.49609375 3.8671875 -40.49609375 3.8671875 -38.80859375 3.6171875 C-38.80859375 2.9571875 -38.80859375 2.2971875 -38.80859375 1.6171875 C-27.7440135 -3.15827681 -11.26756335 -5.5475903 0 0 Z " fill="#7E7ED0" transform="translate(617.80859375,114.3828125)"/>
<path d="M0 0 C2.95857409 -0.05379226 5.91617721 -0.09357093 8.875 -0.125 C9.71675781 -0.14175781 10.55851563 -0.15851563 11.42578125 -0.17578125 C12.23144531 -0.18222656 13.03710938 -0.18867187 13.8671875 -0.1953125 C14.98262939 -0.21102295 14.98262939 -0.21102295 16.12060547 -0.22705078 C18 0 18 0 20 2 C20.63842773 4.19213867 20.63842773 4.19213867 21.18359375 6.91796875 C21.38742676 7.91820068 21.59125977 8.91843262 21.80126953 9.94897461 C22.01122559 11.01768799 22.22118164 12.08640137 22.4375 13.1875 C22.65776855 14.27361572 22.87803711 15.35973145 23.10498047 16.47875977 C24.05637626 21.18435917 24.98366721 25.8942704 25.88671875 30.609375 C27.84939981 41.58447323 27.84939981 41.58447323 32.02734375 51.8515625 C33.68575016 55.51470918 33.90160364 59.46094834 34.4375 63.41796875 C34.7159375 64.69607422 34.7159375 64.69607422 35 66 C35.99 66.495 35.99 66.495 37 67 C37.05607422 65.85724609 37.05607422 65.85724609 37.11328125 64.69140625 C37.48284719 58.88704703 38.14161709 53.80305961 40.17578125 48.35546875 C41.48702822 44.60816105 42.33930524 40.75445754 43.25390625 36.89453125 C44.03293063 33.87224297 45.00869394 30.95889839 46 28 C48.62241126 18.73131568 50.88813601 9.39779476 53 0 C59.27 0 65.54 0 72 0 C72 0.99 72 1.98 72 3 C72.66 3 73.32 3 74 3 C74.24234375 4.258125 74.4846875 5.51625 74.734375 6.8125 C76.68682122 16.83282437 78.82745837 26.74422455 81.38769531 36.62841797 C82.69327214 41.68518563 83.97168634 46.74878659 85.25 51.8125 C85.65581299 53.39853027 85.65581299 53.39853027 86.06982422 55.01660156 C86.32006348 56.00756836 86.57030273 56.99853516 86.828125 58.01953125 C87.0540332 58.90745361 87.27994141 59.79537598 87.51269531 60.71020508 C88 63 88 63 88 66 C88.66 66 89.32 66 90 66 C90.0825 64.865625 90.165 63.73125 90.25 62.5625 C91.34319409 52.7081361 93.88238965 42.77256197 97.2109375 33.4453125 C98.34184844 29.9406083 99.23139988 26.38407774 100.125 22.8125 C100.29580078 22.13437256 100.46660156 21.45624512 100.64257812 20.75756836 C101.60421754 16.85785236 102.39486678 12.97041491 103 9 C103.66 9 104.32 9 105 9 C105.33 6.03 105.66 3.06 106 0 C111.61 0 117.22 0 123 0 C122.01 4.95 121.02 9.9 120 15 C119.34 15 118.68 15 118 15 C117.93941406 15.60328125 117.87882813 16.2065625 117.81640625 16.828125 C117.69072266 18.02695313 117.69072266 18.02695313 117.5625 19.25 C117.44068359 20.43335938 117.44068359 20.43335938 117.31640625 21.640625 C117.02365007 23.82364639 116.57935581 25.8773182 116 28 C115.34 28 114.68 28 114 28 C113.67 31.3 113.34 34.6 113 38 C112.34 38 111.68 38 111 38 C110.34 41.96 109.68 45.92 109 50 C108.34 50 107.68 50 107 50 C106.93941406 50.68707031 106.87882813 51.37414062 106.81640625 52.08203125 C106.69072266 53.43361328 106.69072266 53.43361328 106.5625 54.8125 C106.44068359 56.15248047 106.44068359 56.15248047 106.31640625 57.51953125 C106 60 106 60 105 63 C104.34 63 103.68 63 103 63 C102.896875 64.134375 102.79375 65.26875 102.6875 66.4375 C102.19633935 70.45220445 101.10440534 74.03445139 99.71875 77.82421875 C98.80832971 80.43245947 98.80832971 80.43245947 98 85 C91.73 85 85.46 85 79 85 C77.66666667 81 76.33333333 77 75 73 C74.68546875 72.11441406 74.3709375 71.22882813 74.046875 70.31640625 C72.51215643 65.45455526 71.33794491 60.5129808 70.125 55.5625 C67.8463382 46.34713848 65.49527265 37.15911844 63 28 C62.34 28 61.68 28 61 28 C60.69707031 29.16273438 60.39414062 30.32546875 60.08203125 31.5234375 C55.3959538 49.45244908 50.4758427 67.29477528 45 85 C38.73 85 32.46 85 26 85 C25.608125 83.659375 25.21625 82.31875 24.8125 80.9375 C23.07124114 75.1167204 21.13371688 69.36644825 19.18359375 63.61328125 C17.39995852 58.16819021 15.9031115 52.65084199 14.37890625 47.12890625 C14.08306641 46.05962891 13.78722656 44.99035156 13.48242188 43.88867188 C12.87042135 41.67585468 12.26103448 39.46231291 11.65429688 37.24804688 C10.02335776 31.37171312 8.22821427 25.67334819 6 20 C4.91806958 17.06939851 3.8640098 14.12913112 2.8125 11.1875 C2.40354492 10.06311523 2.40354492 10.06311523 1.98632812 8.91601562 C0.884551 5.82606924 0 3.30626699 0 0 Z " fill="#647FCA" transform="translate(707,113)"/>
<path d="M0 0 C1.32257813 -0.01740234 1.32257813 -0.01740234 2.671875 -0.03515625 C9.69231172 -0.00427456 16.30048761 1.21274381 22.625 4.375 C22.625 5.035 22.625 5.695 22.625 6.375 C23.181875 6.4575 23.73875 6.54 24.3125 6.625 C29.1077191 8.18020619 31.66915674 11.07715112 33.9375 15.4375 C35.23501234 18.10945229 35.625 19.32946098 35.625 22.375 C36.285 22.375 36.945 22.375 37.625 22.375 C37.625 24.685 37.625 26.995 37.625 29.375 C31.355 29.375 25.085 29.375 18.625 29.375 C17.635 27.065 16.645 24.755 15.625 22.375 C12.94231243 19.82644681 11.13209471 18.54403157 7.625 17.375 C7.625 16.715 7.625 16.055 7.625 15.375 C5.07994659 15.40824892 2.54333268 15.47564363 0 15.5625 C-1.06927734 15.57120117 -1.06927734 15.57120117 -2.16015625 15.58007812 C-7.82949754 15.8141335 -10.43031867 17.27860016 -14.375 21.375 C-16.11118337 26.58355011 -16.18474082 32.1363048 -14.3125 37.3125 C-11.6270435 40.17121176 -9.05577808 41.05547578 -5.375 42.375 C-5.375 43.035 -5.375 43.695 -5.375 44.375 C-4.1375 44.4575 -2.9 44.54 -1.625 44.625 C7.88026182 45.68445618 16.85848449 49.72875019 25.625 53.375 C25.625 54.035 25.625 54.695 25.625 55.375 C26.305625 55.54 26.98625 55.705 27.6875 55.875 C32.71334188 58.44138734 36.83473991 63.00421972 38.625 68.375 C39.46498313 79.61877413 39.23757957 88.15272122 32.0859375 97.35546875 C25.17958036 105.03101733 15.30015208 108.95546182 5.14453125 109.59375 C-6.839281 109.88222692 -15.99268577 108.09530428 -25.375 100.375 C-27.58431076 98.18846564 -29.66464312 95.97742537 -31.375 93.375 C-31.375 92.715 -31.375 92.055 -31.375 91.375 C-32.035 91.375 -32.695 91.375 -33.375 91.375 C-34.65298935 86.66241428 -35.375 83.33234952 -35.375 78.375 C-29.105 78.375 -22.835 78.375 -16.375 78.375 C-15.7975 79.756875 -15.22 81.13875 -14.625 82.5625 C-12.94617566 86.30303843 -11.35609805 89.48423826 -8.375 92.375 C-1.49724338 94.21302117 6.62204707 94.70274505 13.1875 91.6875 C16.47595643 89.71169146 18.33143909 88.09398763 19.625 84.375 C20.1527639 79.80607253 20.18733363 75.81207483 18.5 71.5 C12.49570952 64.69513746 4.33803524 62.98369092 -4.16064453 61.0480957 C-16.22698869 58.243707 -26.14294602 54.0103735 -33.375 43.375 C-34.66837231 39.15359932 -34.63381892 35.00537639 -34.6875 30.625 C-34.71650391 29.8515625 -34.74550781 29.078125 -34.77539062 28.28125 C-34.8508567 21.36159098 -32.95253372 16.30996516 -28.375 11.09765625 C-27.715 10.54980469 -27.055 10.00195312 -26.375 9.4375 C-25.715 8.87160156 -25.055 8.30570312 -24.375 7.72265625 C-22.34072276 6.35190303 -20.77347889 5.79794605 -18.375 5.375 C-18.375 4.715 -18.375 4.055 -18.375 3.375 C-12.05091804 0.58886599 -6.87489385 -0.08967253 0 0 Z " fill="#A980DC" transform="translate(335.375,89.625)"/>
<path d="M0 0 C6.27 0 12.54 0 19 0 C19.721875 2.3925 20.44375 4.785 21.1875 7.25 C22.7718122 12.42324283 24.51093869 17.41295845 26.6875 22.375 C28.92011301 27.50018081 30.18176782 32.47998592 31 38 C31.66 38 32.32 38 33 38 C33.66 41.96 34.32 45.92 35 50 C35.66 50 36.32 50 37 50 C37.495 53.96 37.495 53.96 38 58 C38.66 58 39.32 58 40 58 C40.66 61.3 41.32 64.6 42 68 C42.66 68 43.32 68 44 68 C44.0928125 66.453125 44.0928125 66.453125 44.1875 64.875 C44.97004443 58.30636946 47.66177115 52.14324333 50 46 C50.66 46 51.32 46 52 46 C52.09539063 44.72511719 52.19078125 43.45023438 52.2890625 42.13671875 C52.89273755 36.72588392 54.50925431 31.9047522 56.375 26.8125 C56.67921875 25.94947266 56.9834375 25.08644531 57.296875 24.19726562 C58.59401265 20.57470385 59.93562021 17.12860809 61.66015625 13.68359375 C62.9325296 11.1351375 63.56759776 9.03682817 64.0625 6.25 C64.7826087 2.2173913 64.7826087 2.2173913 67 0 C68.87939453 -0.22705078 68.87939453 -0.22705078 71.1328125 -0.1953125 C72.34130859 -0.18564453 72.34130859 -0.18564453 73.57421875 -0.17578125 C74.83685547 -0.15064453 74.83685547 -0.15064453 76.125 -0.125 C77.39923828 -0.11146484 77.39923828 -0.11146484 78.69921875 -0.09765625 C80.79959884 -0.07405647 82.89983444 -0.03818483 85 0 C81.02811601 14.02944432 81.02811601 14.02944432 78.5 18.875 C76.32940435 23.39707428 75.21742584 28.14756509 74 33 C73.34 33 72.68 33 72 33 C71.67 35.31 71.34 37.62 71 40 C70.34 40 69.68 40 69 40 C68.87044922 41.01707031 68.87044922 41.01707031 68.73828125 42.0546875 C67.80737139 48.22089777 66.20996898 52.96826715 63.2421875 58.4296875 C61.1533604 62.75185175 60.08927078 67.34181762 59 72 C58.34 72 57.68 72 57 72 C56.896875 72.845625 56.79375 73.69125 56.6875 74.5625 C55.91736721 78.41316395 54.588666 81.41804798 53 85 C49.541824 85.0868329 46.08392656 85.14033282 42.625 85.1875 C41.64015625 85.21263672 40.6553125 85.23777344 39.640625 85.26367188 C38.69960938 85.27333984 37.75859375 85.28300781 36.7890625 85.29296875 C35.91975098 85.3086792 35.05043945 85.32438965 34.15478516 85.34057617 C33.44370605 85.22818604 32.73262695 85.1157959 32 85 C30.12418591 82.18627887 29.64714295 80.93491205 29.0625 77.75 C28.43861752 74.68548926 27.66608025 71.97386252 26.375 69.125 C25 66 25 66 25 63 C24.34 63 23.68 63 23 63 C22.84144531 62.32195312 22.68289063 61.64390625 22.51953125 60.9453125 C21.02662485 54.99018311 19.0650198 49.88534327 16.19140625 44.47265625 C14.61560026 41.202213 13.70885692 37.86739101 12.75390625 34.375 C12.00722276 32.02275355 11.05364363 30.03795892 9.875 27.875 C7.75883911 23.91729451 7.31834111 20.45677551 7 16 C6.34 16 5.68 16 5 16 C4.80664062 15.39671875 4.61328125 14.7934375 4.4140625 14.171875 C4.15367187 13.37265625 3.89328125 12.5734375 3.625 11.75 C3.36976563 10.96109375 3.11453125 10.1721875 2.8515625 9.359375 C2.05887299 6.99751144 2.05887299 6.99751144 0.8984375 4.890625 C0 3 0 3 0 0 Z " fill="#8D7FD5" transform="translate(466,113)"/>
<path d="M0 0 C0 0.66 0 1.32 0 2 C1.12535156 2.13341797 1.12535156 2.13341797 2.2734375 2.26953125 C5.50288775 3.13472781 6.50646746 4.14816305 8.625 6.6875 C9.19476562 7.35136719 9.76453125 8.01523438 10.3515625 8.69921875 C14.6952254 14.76181934 15.55345838 19.52321313 15.5 26.8125 C15.49427979 27.70743164 15.48855957 28.60236328 15.48266602 29.52441406 C15.3021193 36.1651291 14.38782224 40.83850633 10 46 C9.18595703 47.10408203 9.18595703 47.10408203 8.35546875 48.23046875 C4.72106313 52.86577163 2.02978687 55.22196298 -4 56 C-11.72309229 56.6131008 -18.65261774 56.91922125 -25 52 C-28.52450939 48.80784566 -30.69025443 46.2168576 -31.875 41.5625 C-31.936875 40.2940625 -31.936875 40.2940625 -32 39 C-32.66 39 -33.32 39 -34 39 C-36.30589166 31.21530977 -36.10884947 20.53805973 -33 13 C-25.02448658 1.38093624 -14.18041011 -4.72680337 0 0 Z " fill="#FAFAFD" transform="translate(890,128)"/>
<path d="M0 0 C1.87365234 -0.00386719 1.87365234 -0.00386719 3.78515625 -0.0078125 C6.9375 0.125 6.9375 0.125 8.9375 1.125 C8.9375 1.785 8.9375 2.445 8.9375 3.125 C9.659375 3.2075 10.38125 3.29 11.125 3.375 C15.15553747 4.44980999 17.75115602 6.32912067 20.0703125 9.83984375 C21.06391282 11.58048432 22.00269325 13.35209066 22.9375 15.125 C23.5975 16.115 24.2575 17.105 24.9375 18.125 C26.27200915 26.48084709 26.55021397 36.80848316 22.125 44.1875 C20.54296875 46.34765625 20.54296875 46.34765625 18.9375 48.125 C18.41800781 48.70121094 17.89851562 49.27742188 17.36328125 49.87109375 C15.9375 51.125 15.9375 51.125 13.9375 51.125 C13.9375 51.785 13.9375 52.445 13.9375 53.125 C11.4625 53.62 11.4625 53.62 8.9375 54.125 C8.9375 54.785 8.9375 55.445 8.9375 56.125 C3.06151581 58.0836614 -3.85681042 58.20913992 -9.7421875 56.21875 C-17.17406774 52.31513614 -22.07298567 46.42284191 -24.62890625 38.33203125 C-26.30233224 29.8141422 -26.11214037 19.23455576 -21.58203125 11.64453125 C-18.32240647 7.11847389 -15.81639428 4.10737219 -10.0625 3.125 C-10.0625 2.465 -10.0625 1.805 -10.0625 1.125 C-6.54512679 -0.04745774 -3.7049868 -0.00766285 0 0 Z " fill="#FAFBFD" transform="translate(978.0625,126.875)"/>
<path d="M0 0 C7.31834391 4.22745245 11.60124914 9.83538146 13.8125 18 C14.45768446 28.32295136 14.28256439 38.34024909 8 47 C5.83420253 49.02251316 3.57772233 50.54671622 1 52 C0.41476562 52.33257812 -0.17046875 52.66515625 -0.7734375 53.0078125 C-6.93652839 55.89432343 -13.47737832 55.47835261 -20 54 C-23.89831719 52.0478473 -27.11160418 49.86188703 -29.01953125 45.86328125 C-29.91252063 43.6445556 -29.91252063 43.6445556 -33 43 C-37.44007523 35.48602653 -38.08695982 27.12287459 -36.57421875 18.6015625 C-34.36576968 10.87876512 -29.61406964 4.33523846 -22.875 -0.0625 C-15.84421306 -3.56581308 -7.03238904 -3.37647818 0 0 Z " fill="#FBFBFD" transform="translate(1087,129)"/>
<path d="M0 0 C5.94 0 11.88 0 18 0 C18 37.62 18 75.24 18 114 C12.06 114 6.12 114 0 114 C0 76.38 0 38.76 0 0 Z " fill="#9980D8" transform="translate(435,84)"/>
<path d="M0 0 C0 5.94 0 11.88 0 18 C-2.784375 18.1546875 -2.784375 18.1546875 -5.625 18.3125 C-11.69747032 18.82687396 -15.64860319 19.96635952 -20.3125 24 C-22.20195922 25.98906415 -22.20195922 25.98906415 -23 29 C-23.66 29 -24.32 29 -25 29 C-25.33 47.48 -25.66 65.96 -26 85 C-31.61 85 -37.22 85 -43 85 C-43 57.61 -43 30.22 -43 2 C-37.39 2 -31.78 2 -26 2 C-26 5.63 -26 9.26 -26 13 C-25.34 13 -24.68 13 -24 13 C-23.814375 12.278125 -23.62875 11.55625 -23.4375 10.8125 C-21.5043678 7.03028483 -18.74316961 4.95911995 -15 3 C-14.01 3 -13.02 3 -12 3 C-12 2.34 -12 1.68 -12 1 C-9 0 -9 0 0 0 Z " fill="#717CCD" transform="translate(702,112)"/>
<path d="M0 0 C0.96808594 -0.00257813 1.93617188 -0.00515625 2.93359375 -0.0078125 C5.5625 0.125 5.5625 0.125 8.5625 1.125 C8.5625 1.785 8.5625 2.445 8.5625 3.125 C9.8825 3.785 11.2025 4.445 12.5625 5.125 C12.5625 5.785 12.5625 6.445 12.5625 7.125 C13.2225 7.125 13.8825 7.125 14.5625 7.125 C14.5625 5.145 14.5625 3.165 14.5625 1.125 C16.5425 1.125 18.5225 1.125 20.5625 1.125 C20.61206675 6.85415394 20.64829861 12.58318207 20.67236328 18.3125 C20.68239919 20.26011328 20.69603088 22.20771157 20.71337891 24.15527344 C20.73773328 26.96032417 20.74900737 29.76517505 20.7578125 32.5703125 C20.76813507 33.43616974 20.77845764 34.30202698 20.78909302 35.19412231 C20.78996211 39.91402879 20.38722246 43.68631525 18.5625 48.125 C17.9025 48.125 17.2425 48.125 16.5625 48.125 C16.35625 48.723125 16.15 49.32125 15.9375 49.9375 C13.88667777 53.20017173 12.22785049 53.86108604 8.5625 55.125 C1.64142521 55.8353461 -4.40985491 55.76670224 -10.4375 52.125 C-12.875 49.6875 -12.875 49.6875 -14.4375 47.125 C-14.4375 45.805 -14.4375 44.485 -14.4375 43.125 C-11.625 42.8125 -11.625 42.8125 -8.4375 43.125 C-6.6875 45.5625 -6.6875 45.5625 -5.4375 48.125 C-2.864171 49.4116645 -0.93526962 49.29324551 1.9375 49.3125 C2.89398437 49.32667969 3.85046875 49.34085937 4.8359375 49.35546875 C7.64188007 49.11829022 9.26008262 48.73244808 11.5625 47.125 C12.37834568 44.06591587 12.37834568 44.06591587 12.5625 41.125 C13.2225 41.125 13.8825 41.125 14.5625 41.125 C14.5625 37.825 14.5625 34.525 14.5625 31.125 C13.9025 31.125 13.2425 31.125 12.5625 31.125 C11.9025 32.445 11.2425 33.765 10.5625 35.125 C9.9025 35.125 9.2425 35.125 8.5625 35.125 C8.5625 35.785 8.5625 36.445 8.5625 37.125 C3.45288711 38.8282043 -2.59393099 39.40358319 -7.609375 37.1484375 C-12.14990857 33.98558719 -15.35098583 30.65372255 -16.4375 25.125 C-17.21206332 12.19159389 -17.21206332 12.19159389 -14.4375 7.125 C-9.85331295 2.45244308 -6.63664417 -0.01762721 0 0 Z " fill="#646464" transform="translate(633.4375,221.875)"/>
<path d="M0 0 C5.61 0 11.22 0 17 0 C17 27.39 17 54.78 17 83 C11.39 83 5.78 83 0 83 C0 55.61 0 28.22 0 0 Z " fill="#9B7BD8" transform="translate(395,114)"/>
<path d="M0 0 C6.6323101 -0.25775794 10.73691598 0.76557377 15.98828125 5.0234375 C17.89848453 7.42887867 18.33993257 9.1257994 18.67578125 12.1484375 C19.33578125 12.1484375 19.99578125 12.1484375 20.67578125 12.1484375 C21.61147011 25.78870173 21.61147011 25.78870173 17.2734375 31.4921875 C12.47589623 36.46567772 8.48037414 38.44228243 1.48828125 38.6484375 C-3.01781871 38.60119137 -5.65338775 37.78023668 -9.32421875 35.1484375 C-14.37060996 29.63261455 -16.61069495 26.21446613 -16.63671875 18.7109375 C-16.65347656 17.59847656 -16.67023437 16.48601562 -16.6875 15.33984375 C-15.99145098 9.22509051 -11.98488037 4.90086763 -7.32421875 1.1484375 C-4.80975567 0.17059075 -2.67111848 0.17059244 0 0 Z " fill="#656565" transform="translate(589.32421875,221.8515625)"/>
<path d="M0 0 C4.56580734 2.42465259 8.19062063 4.80102243 10.06640625 9.83203125 C10.52209484 12.90655669 10.56166694 15.91224919 10.578125 19.01953125 C10.59230469 20.23640625 10.60648438 21.45328125 10.62109375 22.70703125 C10.31006354 27.17743153 9.41274394 29.08258889 6.140625 32.08203125 C-0.73492696 36.92617013 -6.24272013 38.05387045 -14.609375 37.01953125 C-19.07216726 34.86782784 -21.8452553 32.11452339 -24.609375 28.01953125 C-26.62748761 21.88500352 -26.69605808 13.92672942 -24.359375 7.89453125 C-22.61764769 5.0331221 -21.76527875 3.99894966 -18.609375 3.01953125 C-18.609375 2.35953125 -18.609375 1.69953125 -18.609375 1.01953125 C-12.55501782 -1.69186252 -6.3096752 -2.37085101 0 0 Z " fill="#626262" transform="translate(539.609375,222.98046875)"/>
<path d="M0 0 C4.52582184 0.60161982 8.39511967 1.79616062 12.625 3.5 C17.71809223 5.54989067 17.71809223 5.54989067 23 7 C23 7.66 23 8.32 23 9 C24.051875 9.103125 25.10375 9.20625 26.1875 9.3125 C29.88628113 9.97949332 32.02986811 10.74990008 35 13 C35 13.66 35 14.32 35 15 C35.721875 15.268125 36.44375 15.53625 37.1875 15.8125 C43.28956224 18.38892628 46.35493809 21.37560686 50.21484375 26.703125 C51.87489214 28.99961251 51.87489214 28.99961251 53.81640625 30.546875 C56.37616629 32.75622705 57.86225713 34.45029464 58.17138672 37.92822266 C58.24073191 50.51853617 58.24073191 50.51853617 56 55 C55.34 55 54.68 55 54 55 C54.020625 53.9275 54.04125 52.855 54.0625 51.75 C53.04370414 43.57052464 46.02438638 36.28920434 39.8125 31.3125 C36.58081184 29.12391118 33.94069649 28.25700194 30 28 C26.50976559 27.45707465 23.11400818 26.78222945 19.6875 25.9375 C14.7580842 24.81793777 8.67595182 23.66202409 4 26 C4.06960937 24.02966797 4.06960937 24.02966797 4.140625 22.01953125 C4.17815266 20.28387696 4.21455175 18.54819801 4.25 16.8125 C4.28351563 15.94818359 4.31703125 15.08386719 4.3515625 14.19335938 C4.43815399 8.77727989 4.43815399 8.77727989 1.984375 4.01171875 C1.32953125 3.34785156 0.6746875 2.68398437 0 2 C0 1.34 0 0.68 0 0 Z " fill="#33449C" transform="translate(174,189)"/>
<path d="M0 0 C4.47211512 2.25541737 7.20249427 5.68991417 8.8046875 10.34765625 C9.43019627 13.677136 9.83716901 16.95658664 9.8046875 20.34765625 C8.8046875 21.34765625 8.8046875 21.34765625 6.12084961 21.46118164 C4.95303955 21.45594482 3.78522949 21.45070801 2.58203125 21.4453125 C1.32197266 21.44208984 0.06191406 21.43886719 -1.23632812 21.43554688 C-2.57682359 21.42719028 -3.91731838 21.41872532 -5.2578125 21.41015625 C-6.60221192 21.40514285 -7.9466131 21.40057967 -9.29101562 21.39648438 C-12.59249191 21.38465113 -15.89388053 21.36816596 -19.1953125 21.34765625 C-18.8859375 22.27578125 -18.5765625 23.20390625 -18.2578125 24.16015625 C-17.5703125 26.22265625 -16.8828125 28.28515625 -16.1953125 30.34765625 C-7.61166472 31.29427595 -7.61166472 31.29427595 -0.2578125 27.84765625 C0.4228125 27.02265625 1.1034375 26.19765625 1.8046875 25.34765625 C5.1171875 25.03515625 5.1171875 25.03515625 7.8046875 25.34765625 C7.22662941 29.24954835 5.4496605 31.48226883 2.8046875 34.34765625 C-2.83030112 38.42173339 -8.47913843 38.23874568 -15.1953125 37.34765625 C-18.34750903 36.03684185 -19.71684709 34.82612166 -22.1953125 32.34765625 C-22.8671875 30.17578125 -22.8671875 30.17578125 -23.1953125 28.34765625 C-23.8553125 28.34765625 -24.5153125 28.34765625 -25.1953125 28.34765625 C-27.27837084 21.38190916 -27.15160702 12.99931893 -24.1953125 6.34765625 C-23.5353125 6.34765625 -22.8753125 6.34765625 -22.1953125 6.34765625 C-21.8653125 5.35765625 -21.5353125 4.36765625 -21.1953125 3.34765625 C-20.5353125 3.34765625 -19.8753125 3.34765625 -19.1953125 3.34765625 C-19.1953125 2.68765625 -19.1953125 2.02765625 -19.1953125 1.34765625 C-13.16530654 -1.41333549 -6.40693906 -1.90384132 0 0 Z " fill="#6A6A6A" transform="translate(705.1953125,222.65234375)"/>
<path d="M0 0 C0.66 0 1.32 0 2 0 C2.515625 1.175625 3.03125 2.35125 3.5625 3.5625 C5.57421842 7.6290451 8.10801599 10.33183444 11.40234375 13.40234375 C13 15 13 15 14.625 17.75 C16.34627611 20.56663363 18.16820255 21.32777478 21 23 C22.64469833 24.28773004 24.2694628 25.60126217 25.875 26.9375 C32.87411088 32.57395213 39.29675502 35.68847417 48 38 C48 38.66 48 39.32 48 40 C48.969375 39.938125 49.93875 39.87625 50.9375 39.8125 C55.61559946 39.78374119 59.67475582 41.35228793 64 43 C64.01417969 43.556875 64.02835937 44.11375 64.04296875 44.6875 C64.52523292 52.40372676 67.43179493 57.69229575 73 63 C62.32162378 62.34622186 51.24706682 58.30600924 42 53 C40.83791016 52.37351562 40.83791016 52.37351562 39.65234375 51.734375 C33.05267452 48.02142353 27.19829324 43.53009919 22 38 C22 37.34 22 36.68 22 36 C20.515 35.505 20.515 35.505 19 35 C17.33939475 33.03365154 15.84919379 31.09971311 14.375 29 C13.94203613 28.38785645 13.50907227 27.77571289 13.06298828 27.14501953 C9.67354432 22.22890993 6.69359737 17.1366852 3.875 11.875 C3.28984619 10.7921875 3.28984619 10.7921875 2.69287109 9.6875 C0.84960379 6.13985888 0 4.07021214 0 0 Z " fill="#664AA8" transform="translate(23,49)"/>
<path d="M0 0 C1.051875 -0.00257813 2.10375 -0.00515625 3.1875 -0.0078125 C6 0.125 6 0.125 9 1.125 C9 1.785 9 2.445 9 3.125 C9.8971875 3.5271875 9.8971875 3.5271875 10.8125 3.9375 C14.31088537 5.83662349 15.73345454 7.32536361 17 11.125 C17 14.425 17 17.725 17 21.125 C7.43 21.125 -2.14 21.125 -12 21.125 C-9.71976893 27.67011805 -9.71976893 27.67011805 -5 31.125 C-1.72283998 31.48708096 -1.72283998 31.48708096 1.75 31.3125 C2.92046875 31.28542969 4.0909375 31.25835937 5.296875 31.23046875 C6.18890625 31.19566406 7.0809375 31.16085938 8 31.125 C8.66 29.475 9.32 27.825 10 26.125 C12.31 26.125 14.62 26.125 17 26.125 C16.64598897 29.31109925 16.16972964 30.91566678 14.125 33.4375 C12 35.125 12 35.125 9 35.125 C9 35.785 9 36.445 9 37.125 C6.19892988 38.52553506 3.81108319 38.3325504 0.6875 38.375 C-0.44300781 38.40078125 -1.57351563 38.4265625 -2.73828125 38.453125 C-7.86229115 37.93765574 -10.2680184 35.92507292 -13.6875 32.1875 C-18.60989332 25.66865479 -18.79842987 20.20787029 -18 12.125 C-16.42961197 7.20162131 -13.26097983 3.96565322 -9 1.125 C-5.77717587 0.05072529 -3.38488847 -0.0082963 0 0 Z " fill="#626262" transform="translate(362,221.875)"/>
<path d="M0 0 C0 0.66 0 1.32 0 2 C0.58394531 2.0928125 1.16789063 2.185625 1.76953125 2.28125 C4.53889687 3.17365503 5.73041428 4.36036615 7.6875 6.5 C8.28949219 7.1290625 8.89148438 7.758125 9.51171875 8.40625 C11 11 11 11 12 20 C-3.18 20 -18.36 20 -34 20 C-32.80893631 9.28042678 -30.74477277 7.03810448 -23.0625 0.5 C-17.07256016 -2.6257847 -6.28506153 -2.09502051 0 0 Z " fill="#F8F7FC" transform="translate(611,128)"/>
<path d="M0 0 C1.98 0 3.96 0 6 0 C6.33 5.61 6.66 11.22 7 17 C7.99 16.01 8.98 15.02 10 14 C12.94826763 13.01724412 14.92652504 12.86585275 18 12.875 C18.86625 12.87242187 19.7325 12.86984375 20.625 12.8671875 C23 13 23 13 26 14 C26 14.66 26 15.32 26 16 C26.598125 16.226875 27.19625 16.45375 27.8125 16.6875 C30.68335584 18.41001351 31.53371199 19.99513305 33 23 C33.34057617 26.13793945 33.34057617 26.13793945 33.29296875 29.61328125 C33.2784668 31.4840332 33.2784668 31.4840332 33.26367188 33.39257812 C33.23853516 34.68615234 33.21339844 35.97972656 33.1875 37.3125 C33.16719727 39.28186523 33.16719727 39.28186523 33.14648438 41.29101562 C33.11117443 44.52776077 33.0618528 47.76367105 33 51 C30.69 51 28.38 51 26 51 C25.67 41.1 25.34 31.2 25 21 C23.68 20.67 22.36 20.34 21 20 C21 19.34 21 18.68 21 18 C19.58249437 18.11509661 18.16598831 18.24253658 16.75 18.375 C15.96109375 18.44460937 15.1721875 18.51421875 14.359375 18.5859375 C11.85521048 19.02541008 10.13042844 19.61427885 8 21 C6.92044788 24.23865635 6.79558259 26.79155838 6.68359375 30.19921875 C6.64169922 31.40771484 6.59980469 32.61621094 6.55664062 33.86132812 C6.51732422 35.12396484 6.47800781 36.38660156 6.4375 37.6875 C6.37272461 39.59885742 6.37272461 39.59885742 6.30664062 41.54882812 C6.2004514 44.69910852 6.09840467 47.84946839 6 51 C3.69 51 1.38 51 -1 51 C-1.02526787 43.89755001 -1.04283201 36.79511152 -1.05493164 29.69262695 C-1.05997349 27.27432828 -1.06680678 24.85603267 -1.07543945 22.43774414 C-1.08751157 18.97020717 -1.09322963 15.50271034 -1.09765625 12.03515625 C-1.10281754 10.94662857 -1.10797882 9.85810089 -1.11329651 8.73658752 C-1.11337204 7.73562546 -1.11344757 6.73466339 -1.11352539 5.70336914 C-1.115746 4.81734512 -1.11796661 3.93132111 -1.12025452 3.01844788 C-1 1 -1 1 0 0 Z " fill="#696969" transform="translate(429,209)"/>
<path d="M0 0 C3.07524004 2.03527297 4.51224482 3.32189071 5.6953125 6.87109375 C5.7159375 7.59296875 5.7365625 8.31484375 5.7578125 9.05859375 C6.4178125 9.05859375 7.0778125 9.05859375 7.7578125 9.05859375 C7.7578125 18.29859375 7.7578125 27.53859375 7.7578125 37.05859375 C5.4478125 37.05859375 3.1378125 37.05859375 0.7578125 37.05859375 C0.75370361 36.26686768 0.74959473 35.4751416 0.74536133 34.65942383 C0.71241096 31.06256123 0.64176207 27.467389 0.5703125 23.87109375 C0.56451172 22.62521484 0.55871094 21.37933594 0.55273438 20.09570312 C0.67620032 12.87623153 0.67620032 12.87623153 -2.50390625 6.7265625 C-5.28801586 5.03067833 -6.64989886 4.42592205 -9.8671875 4.55859375 C-11.00027344 4.5740625 -11.00027344 4.5740625 -12.15625 4.58984375 C-14.73297714 5.16888356 -15.63350877 5.99168532 -17.2421875 8.05859375 C-18.30055411 11.23369357 -18.44462539 13.70141758 -18.55859375 17.0390625 C-18.60048828 18.20244141 -18.64238281 19.36582031 -18.68554688 20.56445312 C-18.72486328 21.77939453 -18.76417969 22.99433594 -18.8046875 24.24609375 C-18.84787109 25.47263672 -18.89105469 26.69917969 -18.93554688 27.96289062 C-19.0417184 30.99467756 -19.14376702 34.0265469 -19.2421875 37.05859375 C-21.5521875 37.05859375 -23.8621875 37.05859375 -26.2421875 37.05859375 C-26.2421875 24.84859375 -26.2421875 12.63859375 -26.2421875 0.05859375 C-24.2621875 0.05859375 -22.2821875 0.05859375 -20.2421875 0.05859375 C-20.2421875 1.37859375 -20.2421875 2.69859375 -20.2421875 4.05859375 C-19.5821875 4.05859375 -18.9221875 4.05859375 -18.2421875 4.05859375 C-17.9740625 3.41921875 -17.7059375 2.77984375 -17.4296875 2.12109375 C-14.51396553 -2.94305493 -4.7749922 -2.00483122 0 0 Z " fill="#6D6D6D" transform="translate(498.2421875,222.94140625)"/>
<path d="M0 0 C4.77003402 -0.38160272 8.09465992 -0.4609004 12.4375 1.75 C15.59498355 4.52242458 16.79362721 6.41140946 17.3359375 10.5859375 C17.4194693 16.55010773 17.24202761 20.40447009 13 25 C8.59288437 27.72148807 4.03320723 27.70230799 -1 27 C-3.625 25.125 -3.625 25.125 -5 23 C-5 22.34 -5 21.68 -5 21 C-5.66 21 -6.32 21 -7 21 C-8.74057351 17.51885297 -8.4532396 13.80597089 -8 10 C-6.98456182 7.1536163 -5.85628564 5.47504752 -4 3 C-1.75 2.0625 -1.75 2.0625 0 2 C0 1.34 0 0.68 0 0 Z " fill="#F7F6F7" transform="translate(527,227)"/>
<path d="M0 0 C0 0.66 0 1.32 0 2 C0.86625 2.061875 0.86625 2.061875 1.75 2.125 C5.38685011 3.5393306 6.30027148 5.53983837 8 9 C8.94412666 14.26632119 8.73847928 18.56923961 5.6875 23.0625 C2.97171495 26.03091622 1.81727951 26.8560902 -2.12109375 27.16796875 C-2.88550781 27.17441406 -3.64992188 27.18085938 -4.4375 27.1875 C-5.19933594 27.20167969 -5.96117187 27.21585938 -6.74609375 27.23046875 C-10.70268754 26.82589503 -12.61136852 25.43181276 -15.25 22.5 C-17.56881178 17.86237644 -17.69972242 14.09432052 -17 9 C-13.62012749 0.81715077 -8.1485345 -0.63910075 0 0 Z " fill="#F7F6F7" transform="translate(596,227)"/>
<path d="M0 0 C3.23164938 2.83993431 4.93072157 4.94468399 5.2421875 9.359375 C5.2492276 11.85157046 5.19296475 14.32400576 5.0625 16.8125 C4.4025 16.8125 3.7425 16.8125 3.0625 16.8125 C2.7221875 17.9571875 2.7221875 17.9571875 2.375 19.125 C0.71452911 22.52501182 -0.44911986 23.37164733 -3.9375 24.8125 C-8.03221484 25.41758944 -11.07894672 25.19610891 -14.875 23.5 C-16.9375 21.8125 -16.9375 21.8125 -17.9375 18.8125 C-18.5975 18.8125 -19.2575 18.8125 -19.9375 18.8125 C-21.30115965 14.55106361 -21.8361787 10.1220577 -20.18359375 5.875 C-15.94219876 -2.10880234 -8.10543501 -3.27666522 0 0 Z " fill="#F8F7F8" transform="translate(642.9375,229.1875)"/>
<path d="M0 0 C1.546875 -0.00773438 1.546875 -0.00773438 3.125 -0.015625 C6.97276829 0.33987533 9.08102606 1.29820556 11.75 4.0625 C13.23241214 6.65672124 13.24510355 8.30875742 13 11.25 C11.35 11.25 9.7 11.25 8 11.25 C8 10.26 8 9.27 8 8.25 C6.68 7.92 5.36 7.59 4 7.25 C4 6.59 4 5.93 4 5.25 C0.7 5.58 -2.6 5.91 -6 6.25 C-6.07427838 9.59252724 -6.06546953 12.0535914 -5 15.25 C-4.3709375 15.33636719 -3.741875 15.42273438 -3.09375 15.51171875 C3.13557259 16.53430333 8.05885535 18.22483778 13 22.25 C14.57455739 25.39911479 14.34799118 27.77008816 14 31.25 C12.22719439 34.22672584 10.14391985 36.67804007 7 38.25 C1.59583607 38.92360684 -3.73030279 39.47395524 -8.63671875 36.828125 C-10.74088368 35.06017314 -12.46494375 33.53171504 -14 31.25 C-14 29.93 -14 28.61 -14 27.25 C-10.6875 26.9375 -10.6875 26.9375 -7 27.25 C-6.54625 28.075 -6.0925 28.9 -5.625 29.75 C-5.08875 30.575 -4.5525 31.4 -4 32.25 C-0.93807484 32.89704834 1.94292555 32.9145814 5 32.25 C6.9183906 31.08221789 6.9183906 31.08221789 8 29.25 C8.12718445 27.10758515 8.12718445 27.10758515 7 25.25 C4.95111193 24.28350191 4.95111193 24.28350191 2.4375 23.8125 C-3.67828046 22.20031719 -8.32382391 19.60179111 -13.0625 15.4375 C-14.57285849 11.91333018 -13.68328832 8.97702718 -13 5.25 C-12.01 4.92 -11.02 4.59 -10 4.25 C-10 3.59 -10 2.93 -10 2.25 C-6.6042877 0.19298197 -3.9382341 -0.01969117 0 0 Z " fill="#676767" transform="translate(735,221.75)"/>
<path d="M0 0 C3.84659328 2.26270193 5.66728285 4.2092296 8.1875 7.875 C8.1875 8.865 8.1875 9.855 8.1875 10.875 C5.9375 11.125 5.9375 11.125 3.1875 10.875 C1.0625 8.9375 1.0625 8.9375 -0.8125 6.875 C-1.8025 6.545 -2.7925 6.215 -3.8125 5.875 C-3.8125 5.215 -3.8125 4.555 -3.8125 3.875 C-9.71464361 4.20092414 -9.71464361 4.20092414 -15.25 6.0625 C-19.24185396 10.69305059 -19.18605689 16.08486818 -18.8125 21.875 C-17.89681094 24.12632517 -17.89681094 24.12632517 -16.8125 25.875 C-16.8125 26.865 -16.8125 27.855 -16.8125 28.875 C-13.69339144 30.66775866 -11.13567572 31.21790718 -7.5625 31.5 C-6.67046875 31.57476562 -5.7784375 31.64953125 -4.859375 31.7265625 C-4.18390625 31.77554688 -3.5084375 31.82453125 -2.8125 31.875 C-2.8125 31.215 -2.8125 30.555 -2.8125 29.875 C-1.8225 29.215 -0.8325 28.555 0.1875 27.875 C0.5175 26.885 0.8475 25.895 1.1875 24.875 C3.4975 24.875 5.8075 24.875 8.1875 24.875 C7.71104792 29.16306873 6.52847516 31.14147487 3.1875 33.875 C2.5275 33.875 1.8675 33.875 1.1875 33.875 C1.1875 34.535 1.1875 35.195 1.1875 35.875 C-3.55494921 38.24622461 -9.69635074 37.55864755 -14.8125 36.875 C-19.26881422 34.55637636 -21.81779572 31.18054937 -24.8125 27.25 C-26.72332689 20.80095924 -27.38160161 12.92855669 -24.125 6.8125 C-17.59101583 -1.48742584 -9.91884299 -2.9268717 0 0 Z " fill="#646464" transform="translate(411.8125,223.125)"/>
<path d="M0 0 C3.55929605 2.26689147 6.42005743 4.92317863 7.578125 9.0703125 C7.76926736 12.66105832 7.09017043 14.85697105 5.1875 17.875 C2.05564602 20.91737244 -0.04278184 22.31182132 -4.375 22.4375 C-8.20452973 22.37512981 -8.85081641 22.12121166 -12 19.5625 C-12.66 18.716875 -13.32 17.87125 -14 17 C-14.33 16.67 -14.66 16.34 -15 16 C-15.6681048 10.84604869 -15.88455578 7.17143874 -12.6875 2.9375 C-8.47721899 -0.09781887 -5.12114942 -0.68281992 0 0 Z " fill="#A181DA" transform="translate(408,80)"/>
<path d="M0 0 C10.23 0 20.46 0 31 0 C31 1.32 31 2.64 31 4 C26.71 4 22.42 4 18 4 C18 17.86 18 31.72 18 46 C16.35 46 14.7 46 13 46 C13 32.14 13 18.28 13 4 C8.71 4 4.42 4 0 4 C0 2.68 0 1.36 0 0 Z " fill="#585858" transform="translate(307,213)"/>
<path d="M0 0 C1.98 0 3.96 0 6 0 C6 16.5 6 33 6 50 C4.02 50 2.04 50 0 50 C0 33.5 0 17 0 0 Z " fill="#646464" transform="translate(559,209)"/>
<path d="M0 0 C2.31 0 4.62 0 7 0 C7 12.54 7 25.08 7 38 C4.69 38 2.38 38 0 38 C0 25.46 0 12.92 0 0 Z " fill="#727272" transform="translate(664,222)"/>
<path d="M0 0 C3.3 0 6.6 0 10 0 C10 0.66 10 1.32 10 2 C10.78375 2.0825 11.5675 2.165 12.375 2.25 C15 3 15 3 16.3125 4.8125 C17 7 17 7 17 11 C9.74 11 2.48 11 -5 11 C-4.67 8.69 -4.34 6.38 -4 4 C-1.9375 2.5625 -1.9375 2.5625 0 2 C0 1.34 0 0.68 0 0 Z " fill="#F6F5F6" transform="translate(691,227)"/>
<path d="M0 0 C0 0.66 0 1.32 0 2 C1.175625 2.185625 1.175625 2.185625 2.375 2.375 C5 3 5 3 7 5 C7 6.98 7 8.96 7 11 C-0.26 11 -7.52 11 -15 11 C-14 4 -14 4 -12 1.5625 C-7.92625304 -0.55924321 -4.50172909 -0.35307679 0 0 Z " fill="#F6F5F6" transform="translate(366,227)"/>
<path d="M0 0 C2.91517292 1.07401108 4.77810176 1.77810176 7 4 C7 3.01 7 2.02 7 1 C9.88988083 1.336183 10.92130283 1.91834195 12.97265625 4.046875 C13.66230469 4.93890625 14.35195312 5.8309375 15.0625 6.75 C16.22845703 8.22919922 16.22845703 8.22919922 17.41796875 9.73828125 C17.83224121 10.26631348 18.24651367 10.7943457 18.67333984 11.33837891 C21.45673674 14.82453998 24.38331192 18.19232075 27.28149414 21.58300781 C29.61568212 24.32549736 31.88060998 27.08759318 34 30 C33.67 30.66 33.34 31.32 33 32 C21 20 21 20 19.30078125 18.1953125 C13.68160165 12.33677637 7.31273133 6.65636567 0 3 C0 2.01 0 1.02 0 0 Z " fill="#3947A3" transform="translate(203,81)"/>
<path d="M0 0 C5.32307475 7.98461212 3.11405301 21.28515135 3.0625 30.625 C3.05747395 32.21744651 3.052913 33.80989455 3.04882812 35.40234375 C3.03791237 39.26826779 3.02070895 43.13411653 3 47 C0.08512411 43.45794794 -1.98323768 40.11755641 -4 36 C-4.721875 34.9275 -5.44375 33.855 -6.1875 32.75 C-8 30 -8 30 -8 28 C-7.01 28.33 -6.02 28.66 -5 29 C-4.67 30.65 -4.34 32.3 -4 34 C-3.01 34.33 -2.02 34.66 -1 35 C-0.67 23.45 -0.34 11.9 0 0 Z " fill="#48ACE1" transform="translate(260,104)"/>
<path d="M0 0 C0.66 0 1.32 0 2 0 C2.99 3.3 3.98 6.6 5 10 C4.01 10 3.02 10 2 10 C1.47924931 13.31978564 1 16.51055425 1 19.875 C1 20.57625 1 21.2775 1 22 C0.67 22.33 0.34 22.66 0 23 C-0.04627845 24.66602403 -0.03786901 26.33376361 0 28 C0.03786901 29.66623639 0.04627845 31.33397597 0 33 C-0.495 33.495 -0.495 33.495 -1 34 C-3.27914735 50.11799892 -3.79076733 67.57204325 2 83 C2.66 83.66 3.32 84.32 4 85 C3.01 85 2.02 85 1 85 C-4.54382794 76.68425809 -4.458521 66.16161072 -4.3125 56.5 C-4.303396 55.27748535 -4.29429199 54.0549707 -4.28491211 52.79541016 C-4.16569538 44.00792739 -3.53891711 35.37009131 -2.5078125 26.6484375 C-1.85158058 21.02393333 -1.58007449 15.38751159 -1.34204102 9.73193359 C-1.18920644 6.37579527 -1.01404453 3.21812479 0 0 Z " fill="#F3D6F9" transform="translate(21,49)"/>
<path d="M0 0 C2.31 0 4.62 0 7 0 C6.64598897 3.18609925 6.16972964 4.79066678 4.125 7.3125 C2 9 2 9 -1 9 C-1 9.66 -1 10.32 -1 11 C-3.8194068 12.4097034 -6.23267226 12.16984647 -9.375 12.1875 C-10.51710938 12.20167969 -11.65921875 12.21585937 -12.8359375 12.23046875 C-15.83936816 12.01170034 -17.47925934 11.57080637 -20 10 C-19.34 9.67 -18.68 9.34 -18 9 C-17.01 9.33 -16.02 9.66 -15 10 C-12.8156629 10.23255026 -12.8156629 10.23255026 -10.5 10.25 C-9.7265625 10.27578125 -8.953125 10.3015625 -8.15625 10.328125 C-5.55798285 10.15066338 -5.55798285 10.15066338 -3 7 C-6.96 7 -10.92 7 -15 7 C-15 6.67 -15 6.34 -15 6 C-8.565 5.505 -8.565 5.505 -2 5 C-1.34 3.35 -0.68 1.7 0 0 Z " fill="#7B7B7B" transform="translate(372,248)"/>
<path d="M0 0 C0.66 0.33 1.32 0.66 2 1 C3.11911712 4.35735137 3.11365586 6.88205386 3.09765625 10.41796875 C3.09443359 11.67158203 3.09121094 12.92519531 3.08789062 14.21679688 C3.07951172 15.52712891 3.07113281 16.83746094 3.0625 18.1875 C3.05748317 19.52278481 3.05292059 20.85807141 3.04882812 22.19335938 C3.03702695 25.46228473 3.02056297 28.73111991 3 32 C0.69 32 -1.62 32 -4 32 C-4.33 22.76 -4.66 13.52 -5 4 C-4.34 4 -3.68 4 -3 4 C-2.07446257 7.13850064 -1.88335353 9.93680778 -1.90234375 13.203125 C-1.90556641 14.1828125 -1.90878906 15.1625 -1.91210938 16.171875 C-1.92048828 17.18765625 -1.92886719 18.2034375 -1.9375 19.25 C-1.94201172 20.28125 -1.94652344 21.3125 -1.95117188 22.375 C-1.96293912 24.91672573 -1.97937989 27.45833319 -2 30 C-0.68 30 0.64 30 2 30 C1.86001598 26.31225385 1.71195796 22.62487337 1.5625 18.9375 C1.52318359 17.89916016 1.48386719 16.86082031 1.44335938 15.79101562 C1.22333656 10.45969359 0.8883816 5.26310107 0 0 Z " fill="#8F8F8F" transform="translate(459,228)"/>
<path d="M0 0 C0.66 0 1.32 0 2 0 C0.1643002 9.9127789 0.1643002 9.9127789 -3 14 C-3.66 14 -4.32 14 -5 14 C-5.38478516 15.04220703 -5.38478516 15.04220703 -5.77734375 16.10546875 C-7.1442106 19.34140593 -8.78937044 22.28078161 -10.5625 25.3125 C-11.18253906 26.38113281 -11.80257812 27.44976562 -12.44140625 28.55078125 C-13.21291016 29.76314453 -13.21291016 29.76314453 -14 31 C-14.33 31 -14.66 31 -15 31 C-15 25.72 -15 20.44 -15 15 C-14.67 15 -14.34 15 -14 15 C-14 17.97 -14 20.94 -14 24 C-13.34 24 -12.68 24 -12 24 C-11.7525 23.33097656 -11.505 22.66195312 -11.25 21.97265625 C-9.71816858 18.32976966 -7.88375728 14.90811803 -6 11.4375 C-2.92287749 5.75887621 -2.92287749 5.75887621 0 0 Z " fill="#46A9E0" transform="translate(246,214)"/>
<path d="M0 0 C1.1859375 0.00451172 2.371875 0.00902344 3.59375 0.01367188 C6.47922228 0.02530684 9.36458213 0.0416516 12.25 0.0625 C12.25 0.3925 12.25 0.7225 12.25 1.0625 C10.65345581 1.13766846 10.65345581 1.13766846 9.0246582 1.21435547 C5.06390849 1.40314995 1.10380769 1.6034302 -2.85620117 1.80712891 C-4.56796047 1.89358303 -6.27987866 1.97695002 -7.99194336 2.05712891 C-10.45735488 2.17313142 -12.92197566 2.3003411 -15.38671875 2.4296875 C-16.14836838 2.46311249 -16.91001801 2.49653748 -17.69474792 2.53097534 C-21.79301793 2.75791696 -25.01125824 3.39699533 -28.75 5.0625 C-30.74956611 5.10415763 -32.75043389 5.10415763 -34.75 5.0625 C-35.575 5.2275 -36.4 5.3925 -37.25 5.5625 C-40.12781883 6.13806377 -42.82271757 6.13057634 -45.75 6.0625 C-45.42 5.4025 -45.09 4.7425 -44.75 4.0625 C-41.80110898 3.43424493 -38.91643638 2.93011381 -35.9375 2.5 C-34.73577148 2.31147461 -34.73577148 2.31147461 -33.50976562 2.11914062 C-22.33639965 0.42942336 -11.29174534 -0.08302754 0 0 Z " fill="#D4D1F1" transform="translate(136.75,5.9375)"/>
<path d="M0 0 C0.66 0.33 1.32 0.66 2 1 C-14.8 15 -14.8 15 -20 15 C-20.33 15.99 -20.66 16.98 -21 18 C-24.83550432 20.22994437 -28.77096401 21.69101267 -33 23 C-31.5879217 18.76376509 -28.56386242 17.89398111 -24.8125 15.9375 C-17.69986974 12.10205315 -11.18635168 7.7689836 -4.6953125 2.96875 C-2 1 -2 1 0 0 Z " fill="#479DDA" transform="translate(185,287)"/>
<path d="M0 0 C0.66 0.33 1.32 0.66 2 1 C1.030625 1.804375 0.06125 2.60875 -0.9375 3.4375 C-3.02262962 5.15986865 -3.02262962 5.15986865 -5 7 C-4.67 7.66 -4.34 8.32 -4 9 C-8.95 11.31 -13.9 13.62 -19 16 C-17.89013986 11.56055943 -17.57494748 11.30695922 -13.96484375 8.984375 C-13.15595703 8.45585938 -12.34707031 7.92734375 -11.51367188 7.3828125 C-10.66353516 6.84398437 -9.81339844 6.30515625 -8.9375 5.75 C-8.08349609 5.19570313 -7.22949219 4.64140625 -6.34960938 4.0703125 C-4.23959947 2.70293178 -2.1231711 1.34681837 0 0 Z " fill="#F3C7F7" transform="translate(49,28)"/>
<path d="M0 0 C0.33 0.99 0.66 1.98 1 3 C-0.4765625 5.26953125 -0.4765625 5.26953125 -2.625 7.8125 C-3.36878906 8.70066406 -4.11257812 9.58882812 -4.87890625 10.50390625 C-5.92884766 11.73947266 -5.92884766 11.73947266 -7 13 C-7.85453357 14.08304394 -8.70877654 15.16631736 -9.5625 16.25 C-12.4293438 19.48438788 -15.46749139 22.49076215 -19 25 C-19.66 25 -20.32 25 -21 25 C-21 24.34 -21 23.68 -21 23 C-19.59691781 21.83646843 -18.1905902 20.67666262 -16.76953125 19.53515625 C-10.33357443 13.95164404 -5.2535733 6.65907472 0 0 Z " fill="#3F65B1" transform="translate(228,245)"/>
<path d="M0 0 C0.99 0.495 0.99 0.495 2 1 C1.98952637 1.61931396 1.97905273 2.23862793 1.96826172 2.87670898 C1.92623901 5.73026335 1.90052873 8.58375226 1.875 11.4375 C1.85824219 12.41138672 1.84148438 13.38527344 1.82421875 14.38867188 C1.78300507 20.55011716 2.38505309 26.05645281 4 32 C4.96853322 36.06783951 5.08203375 39.81627851 5 44 C2.20212238 41.20212238 2.01059733 38.14309717 1.375 34.375 C1.24311279 33.60043457 1.11122559 32.82586914 0.9753418 32.02783203 C-0.62941903 21.42002066 -0.26554935 10.69551061 0 0 Z " fill="#C6BDE6" transform="translate(20,155)"/>
<path d="M0 0 C4.61694253 1.39241124 6.63186512 3.54599709 9.5625 7.3125 C10.30628906 8.25738281 11.05007812 9.20226562 11.81640625 10.17578125 C12.53699219 11.10777344 13.25757813 12.03976563 14 13 C15.3308264 14.66866912 16.66334265 16.33599799 18 18 C17.67 18.66 17.34 19.32 17 20 C13 16 9 12 5 8 C4.071875 7.13375 3.14375 6.2675 2.1875 5.375 C0 3 0 3 0 0 Z " fill="#3F51A7" transform="translate(219,93)"/>
<path d="M0 0 C2.375 -0.125 2.375 -0.125 5 0 C5.66 0.66 6.32 1.32 7 2 C6.44444444 6.55555556 6.44444444 6.55555556 5 8 C2.5 8.125 2.5 8.125 0 8 C-0.33 7.67 -0.66 7.34 -1 7 C-0.71269945 4.66055264 -0.38063221 2.3260857 0 0 Z " fill="#6B6B6B" transform="translate(665,208)"/>
<path d="M0 0 C0 4.18024384 -2.18318942 6.17581557 -5 9 C-9.93573265 12.90745501 -9.93573265 12.90745501 -13.875 13.25 C-14.57625 13.1675 -15.2775 13.085 -16 13 C-16 12.34 -16 11.68 -16 11 C-16.99 10.67 -17.98 10.34 -19 10 C-17.906875 10.20625 -16.81375 10.4125 -15.6875 10.625 C-10.92099827 10.71057454 -8.28996057 8.11522984 -5 5 C-3.30197265 3.3594341 -1.64562166 1.6940223 0 0 Z " fill="#5EA3DE" transform="translate(147,246)"/>
<path d="M0 0 C1.41666895 3.83445062 0.58323054 6.73054008 -0.375 10.625 C-0.65085938 11.77226562 -0.92671875 12.91953125 -1.2109375 14.1015625 C-2 17 -2 17 -3 19 C-3.66 19 -4.32 19 -5 19 C-3.57142857 3.57142857 -3.57142857 3.57142857 0 0 Z " fill="#49ACDF" transform="translate(256,184)"/>
<path d="M0 0 C0.66 0 1.32 0 2 0 C2.515625 1.175625 3.03125 2.35125 3.5625 3.5625 C5.88436871 8.26491281 9.13237825 11.52348606 13 15 C12.67 15.66 12.34 16.32 12 17 C10.02 15.02 8.04 13.04 6 11 C5.01 11.495 5.01 11.495 4 12 C3.32332002 10.75539217 2.65905281 9.50403104 2 8.25 C1.62875 7.55390625 1.2575 6.8578125 0.875 6.140625 C0 4 0 4 0 0 Z " fill="#825BB0" transform="translate(23,49)"/>
<path d="M0 0 C-0.59167969 0.19335938 -1.18335937 0.38671875 -1.79296875 0.5859375 C-5.91798036 1.94523986 -9.9739919 3.36783455 -14 5 C-15.99620166 5.67795528 -17.99538701 6.34733531 -20 7 C-20 6.01 -20 5.02 -20 4 C-5.10024855 -1.70008285 -5.10024855 -1.70008285 0 0 Z " fill="#E1CCF4" transform="translate(91,13)"/>
<path d="M0 0 C3.7952131 1.49097658 5.61042731 3.75700849 8 7 C-0.57142857 6.14285714 -0.57142857 6.14285714 -4 4 C-2.68 3.67 -1.36 3.34 0 3 C0 2.01 0 1.02 0 0 Z " fill="#5547A8" transform="translate(88,105)"/>
<path d="M0 0 C0.66 0 1.32 0 2 0 C1.05944297 5.68046944 0.13782924 9.72424312 -4 14 C-4.88855164 11.00446363 -5.19605797 9.48360967 -4.00390625 6.54296875 C-3.52824219 5.76566406 -3.05257812 4.98835937 -2.5625 4.1875 C-1.85287109 3.00220703 -1.85287109 3.00220703 -1.12890625 1.79296875 C-0.75636719 1.20128906 -0.38382813 0.60960937 0 0 Z " fill="#5FB5E2" transform="translate(246,214)"/>
<path d="M0 0 C4.62 0 9.24 0 14 0 C14 0.33 14 0.66 14 1 C11.25162151 1.53107314 8.50187625 2.05015881 5.75 2.5625 C4.97269531 2.71396484 4.19539063 2.86542969 3.39453125 3.02148438 C2.64042969 3.16005859 1.88632813 3.29863281 1.109375 3.44140625 C0.41811523 3.57232666 -0.27314453 3.70324707 -0.98535156 3.83813477 C-3.21287942 4.01710362 -4.87506962 3.65206197 -7 3 C-6.34 3 -5.68 3 -5 3 C-5 2.34 -5 1.68 -5 1 C-3.35 1.33 -1.7 1.66 0 2 C0 1.34 0 0.68 0 0 Z " fill="#BAA5E7" transform="translate(76,24)"/>
<path d="M0 0 C1.46373047 0.02707031 1.46373047 0.02707031 2.95703125 0.0546875 C3.69308594 0.07789063 4.42914062 0.10109375 5.1875 0.125 C5.1875 0.455 5.1875 0.785 5.1875 1.125 C4.19169922 1.21587891 4.19169922 1.21587891 3.17578125 1.30859375 C0.51069899 1.56148477 -2.15071532 1.8396632 -4.8125 2.125 C-5.8025 2.228125 -6.7925 2.33125 -7.8125 2.4375 C-9.99129926 2.93566521 -9.99129926 2.93566521 -10.875 5.0625 C-11.184375 5.743125 -11.49375 6.42375 -11.8125 7.125 C-13.9375 8.375 -13.9375 8.375 -15.8125 9.125 C-15 7.1875 -15 7.1875 -13.8125 5.125 C-12.8225 4.795 -11.8325 4.465 -10.8125 4.125 C-10.8125 3.465 -10.8125 2.805 -10.8125 2.125 C-7.04027911 0.37336544 -4.145861 -0.09990027 0 0 Z " fill="#838383" transform="translate(531.8125,221.875)"/>
<path d="M0 0 C-0.33 0.66 -0.66 1.32 -1 2 C-1.886875 1.979375 -2.77375 1.95875 -3.6875 1.9375 C-6.88338408 1.89972418 -6.88338408 1.89972418 -9.5 2.5 C-12.37781883 3.07556377 -15.07271757 3.06807634 -18 3 C-17.67 2.34 -17.34 1.68 -17 1 C-11.35450392 -0.20116938 -5.75098214 -0.10414253 0 0 Z " fill="#CFC3F0" transform="translate(109,9)"/>
<path d="M0 0 C4.59306496 1.4859916 7.43569245 3.85014682 11 7 C10.34 7.66 9.68 8.32 9 9 C7.491987 8.07544441 5.99375083 7.1349253 4.5 6.1875 C3.6646875 5.66542969 2.829375 5.14335938 1.96875 4.60546875 C0.99421875 3.81076172 0.99421875 3.81076172 0 3 C0 2.01 0 1.02 0 0 Z " fill="#454EA5" transform="translate(203,81)"/>
<path d="M0 0 C4.04420651 1.77945087 7.46078487 4.39529673 11 7 C10.67 8.65 10.34 10.3 10 12 C9.75507813 11.40445313 9.51015625 10.80890625 9.2578125 10.1953125 C7.7883036 7.63051746 6.30073934 6.53563159 3.875 4.875 C1.6796875 3.3671875 1.6796875 3.3671875 0 2 C0 1.34 0 0.68 0 0 Z " fill="#52ABE1" transform="translate(248,47)"/>
<path d="M0 0 C3.25914951 3.08297927 6.06553673 5.9161331 8 10 C7.67 10.99 7.34 11.98 7 13 C6.34 11.68 5.68 10.36 5 9 C4.34 9 3.68 9 3 9 C2.67 7.35 2.34 5.7 2 4 C1.34 4 0.68 4 0 4 C0 2.68 0 1.36 0 0 Z " fill="#9D9EDD" transform="translate(32,221)"/>
<path d="M0 0 C3.63 0 7.26 0 11 0 C11 0.99 11 1.98 11 3 C8.3125 3.75 8.3125 3.75 5 4 C2.125 2.0625 2.125 2.0625 0 0 Z " fill="#64ACE1" transform="translate(131,314)"/>
<path d="M0 0 C-1.78881736 1.00508801 -3.58114696 2.00392736 -5.375 3 C-6.37273437 3.556875 -7.37046875 4.11375 -8.3984375 4.6875 C-11 6 -11 6 -13 6 C-12 3 -12 3 -9.78515625 1.796875 C-8.43744141 1.27867187 -8.43744141 1.27867187 -7.0625 0.75 C-6.16660156 0.39421875 -5.27070313 0.0384375 -4.34765625 -0.328125 C-2 -1 -2 -1 0 0 Z " fill="#73B9E5" transform="translate(165,304)"/>
<path d="M0 0 C0.66 0.33 1.32 0.66 2 1 C-3.96583144 8.66742597 -3.96583144 8.66742597 -9 10 C-9 9.34 -9 8.68 -9 8 C-7.52999567 6.72599625 -6.05484219 5.4564992 -4.53515625 4.2421875 C-2.90933658 2.92663876 -1.43797979 1.51786755 0 0 Z " fill="#4674B9" transform="translate(216,260)"/>
<path d="M0 0 C0.33 0 0.66 0 1 0 C3.44064587 5.64399358 3.19289099 10.97751478 3 17 C-0.51760602 13.48239398 -0.05502509 8.87157039 -0.0625 4.125 C-0.0466164 2.74993391 -0.02749766 1.37488287 0 0 Z " fill="#AEA4DC" transform="translate(22,182)"/>
<path d="M0 0 C2.0625 0.4375 2.0625 0.4375 4 1 C2.07010782 2.19982444 0.13080772 3.38452818 -1.8125 4.5625 C-3.43091797 5.55443359 -3.43091797 5.55443359 -5.08203125 6.56640625 C-8 8 -8 8 -11 7 C-10.28972656 6.57847656 -9.57945312 6.15695312 -8.84765625 5.72265625 C-7.92855469 5.17480469 -7.00945312 4.62695312 -6.0625 4.0625 C-5.14597656 3.51722656 -4.22945312 2.97195313 -3.28515625 2.41015625 C-1.11587323 1.19267827 -1.11587323 1.19267827 0 0 Z " fill="#4DA7E1" transform="translate(171,296)"/>
<path d="M0 0 C4.55737263 0.43820891 7.57653445 0.85041169 11 4 C10.34 4 9.68 4 9 4 C8.67 4.66 8.34 5.32 8 6 C4.5625 4.6875 4.5625 4.6875 1 3 C0.67 2.01 0.34 1.02 0 0 Z " fill="#718CCB" transform="translate(165,185)"/>
<path d="M0 0 C3.3 0.99 6.6 1.98 10 3 C10 3.66 10 4.32 10 5 C6.05272412 5.17942163 3.4019487 5.09350689 0 3 C0 2.01 0 1.02 0 0 Z " fill="#5D5BAE" transform="translate(169,64)"/>
<path d="M0 0 C0.33 0.99 0.66 1.98 1 3 C-1.64 5.31 -4.28 7.62 -7 10 C-7.66 9.34 -8.32 8.68 -9 8 C-6.03 5.36 -3.06 2.72 0 0 Z " fill="#4582C3" transform="translate(205,270)"/>
<path d="M0 0 C3.86933162 0.57323431 6.15222057 2.38953552 9 5 C9 5.66 9 6.32 9 7 C5.56072421 5.7580393 2.74792181 4.44259716 0 2 C0 1.34 0 0.68 0 0 Z " fill="#4FACE0" transform="translate(237,142)"/>
<path d="M0 0 C0.33 0 0.66 0 1 0 C1 2.97 1 5.94 1 9 C1.66 9 2.32 9 3 9 C2.25 13.75 2.25 13.75 0 16 C0 10.72 0 5.44 0 0 Z " fill="#469ED8" transform="translate(231,229)"/>
<path d="M0 0 C9.59453303 2.89066059 9.59453303 2.89066059 13 6 C7.43820225 6.37078652 7.43820225 6.37078652 5.375 4.625 C4.92125 4.08875 4.4675 3.5525 4 3 C1.90010348 1.82425289 1.90010348 1.82425289 0 1 C0 0.67 0 0.34 0 0 Z " fill="#4347A2" transform="translate(181,69)"/>
<path d="M0 0 C2.475 0.495 2.475 0.495 5 1 C5 1.66 5 2.32 5 3 C6.65 3.33 8.3 3.66 10 4 C10 4.99 10 5.98 10 7 C5.56541027 5.6062718 3.12621626 3.39417765 0 0 Z " fill="#82AADF" transform="translate(91,288)"/>
<path d="M0 0 C2.25900493 2.25900493 2.34458029 2.94183075 2.6875 6 C2.77386719 6.70125 2.86023438 7.4025 2.94921875 8.125 C3 10 3 10 2 12 C1.34 12 0.68 12 0 12 C0 8.04 0 4.08 0 0 Z " fill="#6872B4" transform="translate(179,197)"/>
<path d="M0 0 C6.57142857 5 6.57142857 5 8 10 C4.20401451 8.50871999 2.28279601 6.34266559 0 3 C0 2.01 0 1.02 0 0 Z " fill="#4EA9E1" transform="translate(240,115)"/>
<path d="M0 0 C1.66905241 3.33810482 2.8741386 6.46157845 4 10 C2.66666667 10 1.33333333 10 0 10 C0 6.7 0 3.4 0 0 Z " fill="#DBACEC" transform="translate(22,49)"/>
<path d="M0 0 C0 4.31618166 -2.13270348 5.92789659 -5 9 C-5.66 9 -6.32 9 -7 9 C-6.82374165 6.62051228 -6.30280227 5.29774151 -4.59765625 3.62109375 C-3.09350908 2.37884514 -1.54870149 1.18623944 0 0 Z " fill="#69A7DB" transform="translate(147,246)"/>
<path d="M0 0 C1.22589844 0.29197266 1.22589844 0.29197266 2.4765625 0.58984375 C3.41628906 0.82380859 3.41628906 0.82380859 4.375 1.0625 C4.375 1.3925 4.375 1.7225 4.375 2.0625 C-1.565 2.5575 -1.565 2.5575 -7.625 3.0625 C-7.295 2.0725 -6.965 1.0825 -6.625 0.0625 C-3.99249612 -1.25375194 -2.82320944 -0.68563658 0 0 Z " fill="#545454" transform="translate(444.625,224.9375)"/>
<path d="M0 0 C0 0.33 0 0.66 0 1 C-1.2375 1.0825 -2.475 1.165 -3.75 1.25 C-7.74810336 1.72327372 -9.37961179 2.87569098 -12 6 C-12.66 6 -13.32 6 -14 6 C-11.65664118 -1.03007646 -6.41906352 -0.37033059 0 0 Z " fill="#C4C4C4" transform="translate(408,227)"/>
<path d="M0 0 C0.969375 0.7425 1.93875 1.485 2.9375 2.25 C3.75541016 2.87648438 3.75541016 2.87648438 4.58984375 3.515625 C6.2692289 5.28339884 6.59922685 6.62579957 7 9 C5.82460004 8.07347299 4.65989423 7.13336613 3.5 6.1875 C2.52546875 5.40439453 2.52546875 5.40439453 1.53125 4.60546875 C0 3 0 3 0 0 Z " fill="#4F76BA" transform="translate(230,104)"/>
<path d="M0 0 C0.66 0 1.32 0 2 0 C1.52797514 4.24822374 -0.96655518 6.19989709 -4 9 C-2.94124926 5.59687262 -1.99097846 2.98646769 0 0 Z " fill="#4575BD" transform="translate(173,219)"/>
<path d="M0 0 C2 1.125 2 1.125 4 3 C4.25 6.1875 4.25 6.1875 4 9 C1.47740939 7.02579865 1.0070192 6.03254358 0.3125 2.8125 C0.209375 1.884375 0.10625 0.95625 0 0 Z " fill="#754FA7" transform="translate(28,59)"/>
<path d="M0 0 C0 3.64478912 -0.85802506 5.09303401 -3 8 C-5.109375 8.6484375 -5.109375 8.6484375 -7 9 C-6.02180976 7.68677212 -5.0424189 6.37443848 -4.0625 5.0625 C-3.51722656 4.33160156 -2.97195312 3.60070312 -2.41015625 2.84765625 C-1 1 -1 1 0 0 Z " fill="#6592CB" transform="translate(170,223)"/>
<path d="M0 0 C2.64 0.66 5.28 1.32 8 2 C8 2.66 8 3.32 8 4 C6.02 4 4.04 4 2 4 C2 3.34 2 2.68 2 2 C1.34 2 0.68 2 0 2 C0 1.34 0 0.68 0 0 Z " fill="#97B9E4" transform="translate(105,245)"/>
<path d="M0 0 C2.88437779 1.29299694 4.87219421 2.65941363 7 5 C6.67 5.99 6.34 6.98 6 8 C4.9970458 6.85675161 3.99770973 5.71032809 3 4.5625 C2.443125 3.92441406 1.88625 3.28632813 1.3125 2.62890625 C0 1 0 1 0 0 Z " fill="#8699DB" transform="translate(59,260)"/>
<path d="M0 0 C5.75 -0.125 5.75 -0.125 8 1 C8 1.66 8 2.32 8 3 C5.36 2.67 2.72 2.34 0 2 C0 1.34 0 0.68 0 0 Z " fill="#73AEE2" transform="translate(201,128)"/>
<path d="M0 0 C-4.455 1.485 -4.455 1.485 -9 3 C-9 2.01 -9 1.02 -9 0 C-3.375 -1.125 -3.375 -1.125 0 0 Z " fill="#D6C3F1" transform="translate(91,13)"/>
</svg>
